<?xml version="1.0" encoding="utf-8"?>
<svg version="1.1" xmlns="http://www.w3.org/2000/svg" xmlns:xlink="http://www.w3.org/1999/xlink" x="0px" y="0px"
	 viewBox="0 0 1617 1487.1" xml:space="preserve">
<g id="ladies">
	<g>
		<path fill="currentColor" d="M487.4,225.6c-14.4-4-23.8,3.8-27.8,13.6c-7.3,18-13.4,37.1-16.1,56.2c-5.1,36.2-2.7,74.1-12,109
			c-23.9,89.4-111.1,108.7-175.6,87.7c2.4-2.3,4-4.5,6.2-5.8c44.7-26,52-67.2,45.7-113.6c-4.3-32.3-11.9-64.3-13.4-96.7
			c-2.8-61.5,14.9-112.3,71.2-138.5c58.2-27,112.4-15.6,161.3,24.5c2.2,1.8,4.3,3.8,7.6,6.8c26.3-26.9,56.8-47,93.6-54.7
			c78.4-16.4,152.2-10.6,214,48.1c4.4,4.2,10.8,6.6,16.7,8.9c46,17.5,74.1,56.1,72.8,100.7c0,1.2,0.2,2.4-0.1,3.5
			c-10.2,37.7-20.7,75.3-30.6,113.1c-2,7.5-3.9,16.3-1.8,23.2c5.9,18.8,13.1,37.3,21.4,55.1c13.7,29.5,5.1,44.8-26.9,45.7
			c-2.9,0.1-5.7,0.3-10.3,0.6c-0.3,5.3-0.7,10.3-0.6,15.2c0,2.3,2.2,5,1.5,6.7c-7.2,17.3-14.5,34.6-22.4,51.6
			c-3,6.3-9.4,11.3-11.3,17.8c-9.5,32-29.4,44.1-62.7,36.1c-14.1-3.4-28-7.8-41.7-12.4c-13.1-4.4-26-9.8-43-16.3
			c-5.9,21.4-11.1,41.8-17.3,61.9c-1.9,6.1-5.2,12.5-9.6,17c-22,22.5-45.1,43.8-66.6,66.8c-7,7.4-11.4,8.6-20.6,4.9
			C534,740.6,503.7,697.7,485.6,644c-1.8-5.5-2.3-11.5-4.5-16.8c-8.3-19.2-4.5-34.9,6.2-53.5c13.3-23.2,21.8-49.9,28.4-76.1
			c2.6-10.5-2.9-25.1-8.8-35.5c-38.4-67.5-51.5-138-28.8-213.5C480.4,241.1,484.1,233.9,487.4,225.6z M657,370.2
			c15.6-15.2,15.8-26.8-2.2-38.8c-9.3-6.2-20.9-11.2-31.8-12c-38.5-2.7-62.2,17-71.2,56.9c-9.9,43.7,6.8,91.7,37.7,108.1
			c18.5,9.8,28.3,5.4,33.9-15.3c-43.9-13.1-64.6-62.8-43.1-103.6c11.2-21.3,33.7-29.4,52.9-17.5C642.1,353.6,649.1,362.7,657,370.2z
			"/>
		<path fill="currentColor" d="M448.3,607.7c16.5,83.5,52.6,151.7,132.3,183.5c-9.4,34-17.9,67-27.7,99.5c-2.3,7.8-7.7,15.7-13.9,21
			c-21.2,18.4-43.9,35.1-64.8,53.8c-9.6,8.6-16.2,20.6-24.8,30.5c-4,4.6-9.5,7.8-16.9,13.7c-10.3-65.5-21.2-128.2-60.7-182
			c5.3,33.4,10.2,66.8,16,100c4.8,27.5,10.4,54.9,15.8,82.2c1.8,9.1-0.3,14.7-9.2,19.5c-26.8,14.5-52.2,31.2-68.8,63.4
			c45.2-21.4,87.3-41.3,125.6-59.4c37.9,39.6,74,77.4,111.4,116.5c-56.2,57.4-118.1,114.5-196.8,149.6c-27.1,12.1-33.7,10-53.3-11.8
			c-40.4-44.8-63.8-98.9-79.7-155.8C216.3,1072.7,205,1012,190,952.3c-6.9-27.4-18.8-53.6-25.6-81.1c-9.2-37.3-9.4-75.4-1.1-112.9
			c14.4-64.5,55-104.4,118.8-119.1c52.1-12,104.9-21.4,157.4-31.8C441.7,606.9,444.1,607.5,448.3,607.7z"/>
		<path fill="currentColor" d="M943.5,898.6c30.1,28.4,58.8,55.5,85.3,80.5c-8.5,23.2-16.1,44-23.7,64.7c2.3,1.1,4.6,2.3,6.9,3.4
			c26.2-35.3,52.4-70.7,79.7-107.5c34.8,42.1,76.6,73.5,131.7,90.7c-14.9,21.2-27.8,41.8-42.8,60.7c-23.5,29.7-47.7,59.1-73,87.3
			c-24.6,27.3-56.5,31.9-87.8,15.8c-41.8-21.5-82.1-46.2-121.8-71.5c-33.4-21.3-64.9-45.4-98.7-69.2c-4.2,14.3-7.3,28.2-12.4,41.4
			c-6.2,16.2-11.6,33.5-21.4,47.5c-35.6,50.8-45.6,110-58.7,168.3c-5,22-10.1,44-15.3,66.8c-177.2,0-353.8,0-529.2,0
			c13.7-78.8,27.4-158,41.2-237.4c1,1.9,3,4.8,4.1,8c17.8,53.3,40.3,104.3,75.2,148.9c6.5,8.2,13.8,15.9,21.5,23
			c16.8,15.6,35.6,19.6,58,11.7c58.9-20.8,107.7-57.4,154.3-97.5c23.9-20.6,45.8-43.5,69-64.9c3.8-3.5,9.4-5.4,14.4-7.4
			c11.4-4.6,25.8-5.9,33.8-13.8c25.7-25.4,48.9-53.4,73.6-79.9c5.1-5.4,12.2-9.5,19.1-12.6c13.7-6.2,29.9-8.7,41.6-17.4
			c19.4-14.4,40.8-17.4,63.3-20.1c55-6.6,97.1-41.5,108.7-89.9C942.1,919.5,942.2,910.2,943.5,898.6z"/>
		<path fill="currentColor" d="M1154.9,813.8c28.8,33.3,59.3,62.7,101.1,78c4.5-7.5,8.6-14.4,11-18.4c-27.6-22.6-55.7-43.2-80.8-66.9
			c-21.6-20.4-40.1-44.4-45.7-75c-6.5-35.6,0.2-68.7,22.8-97.4c22.2-28.1,65.8-32.7,94.8-11.1c17.2,12.8,23,32.2,15.4,51.1
			c-7.4,18.4-23.4,27.3-45.1,25c-4-0.4-8.1-1.1-11.9-1.6c-10.8,18.9-9.3,22.4,11.3,26c36.6,6.4,69.9-17.8,75.9-55.2
			c6-37.1-22.1-73.9-60.1-78.7c-2.9-0.4-5.8-0.4-8.8-0.6c6.6-24.2,34-43.1,63.9-45.3c53.6-4,96.7,20.1,133.9,54.3
			c20.2,18.6,37.6,41.7,51.4,65.6c20.7,35.7,19.4,74-1.1,110.1c-29.5,51.9-71.5,92.2-122.3,122.8c-12,7.3-19.9,14.2-27,27
			c-15.6,27.8-35.9,53-54.2,79.3c-7.5,10.7-17.3,12.1-29.3,8.5c-56.2-17.1-104.1-46.2-140.1-93.7c-8.6-11.3-10.5-20.8-2.3-32.9
			C1123.6,861.7,1138.7,838.3,1154.9,813.8z"/>
		<path fill="currentColor" d="M857.3,924c-27.4,25.6-52,54.9-82.3,75.6c-62.1,42.4-66.1,39.1-120.4-7.8c-24.6-21.2-45.5-46.9-66.5-71.9
			c-5.5-6.5-8.4-18.6-7-27.1c12.9-75.6,52.7-135.2,114.2-179.6c44.2-32,93.7-27,142.3,14.1c40.5,34.2,69.2,76.9,80.7,129.8
			c14.2,65.1-20.5,118.6-87.9,132.8C845.4,968.9,862.3,949.8,857.3,924z"/>
		<path fill="currentColor" d="M559.6,932.5c36.4,45.1,73.2,86.5,124.3,117.7c-25,29.5-49.6,58.6-75.1,88.8c-56-31.7-97.8-75.3-128.3-129.8
			c-2.4-4.2,0.8-15.4,5-18.9C509.3,970.6,534.1,952.2,559.6,932.5z"/>
	</g>
</g>
</svg>