<?xml version="1.0" encoding="utf-8"?>
<svg version="1.1" xmlns="http://www.w3.org/2000/svg" xmlns:xlink="http://www.w3.org/1999/xlink" x="0px" y="0px"
	 viewBox="0 0 1617 1487.1" xml:space="preserve">
<g id="Protect">
	<g>
		<path fill="currentColor" d="M1470.5,559.4c-3.6,42.1-5.1,84.6-11.1,126.4c-12.2,84-34.5,165.3-75,240.6c-70.5,130.8-183.1,207.4-322.3,249.2
			c-85.3,25.6-173.1,31.8-261.6,30.3c-105.7-1.8-209.3-16.7-308.1-55.7c-162.9-64.3-260.7-186-306.8-352.3
			c-21.6-78.1-34.5-157.4-32.6-238.7c1.7-1.5,3.4-3.1,5.1-4.6c0.4,2.6,0.3,5.4,1.1,7.9c39.1,122.4,126.7,198.9,239.2,251.5
			c89.1,41.6,183.3,64.1,280.6,76.2c78.6,9.8,157.4,11.6,236,3.5c148.5-15.3,290.1-51.7,413.1-142
			c63.8-46.9,108.2-107.6,132.2-183.2c1.1-3.5,3-6.8,4.5-10.2C1466.6,558.7,1468.5,559,1470.5,559.4z"/>
		<path fill="currentColor" d="M810.2,857.6c-140.8-2.2-280.7-26.7-411.5-91c-103.1-50.7-179-126.4-210.7-240c-14.3-51.1-20-102.7-2.5-154.2
			c21.2-62.5,86.2-91.9,137.3-61.4c14.6,8.7,27.7,22.4,37.2,36.7c40.5,60.1,77,123.1,119.6,181.6c61.5,84.5,140,147.3,245.2,170.1
			c134.5,29.1,252.5-3.3,353.5-96.1c72.6-66.7,119.9-151.9,169.7-235.2c8.6-14.4,17.8-29.2,29.5-41.1
			c39.8-40.6,104.5-35.8,139.2,9.3c26.8,34.8,33.2,75.5,30,117.6c-7.8,100.8-49.8,185.3-126.9,250.7
			c-64,54.3-139.4,87.5-219.1,111.8C1007.4,844.8,911.4,856.5,810.2,857.6z"/>
	</g>
</g>
</svg>