<?xml version="1.0" encoding="utf-8"?>
<svg version="1.1" xmlns="http://www.w3.org/2000/svg" xmlns:xlink="http://www.w3.org/1999/xlink" x="0px" y="0px"
	 viewBox="0 0 1617 1487.1" xml:space="preserve">
<g id="PunchingBag">
	<g>
		<path fill="currentColor" d="M1034.3,903.6c0,120.2,0.6,240.4-0.3,360.6c-0.4,54.7-16.8,103.7-61.8,139.1c-31.7,24.9-69.4,36.1-108.4,40.7
			c-56.1,6.6-112.1,5.3-165.7-16.2c-59.8-24-91.7-69.7-100.1-132.4c-2.8-20.8-3.5-42-3.5-63c-0.2-229.8,0.1-459.7-0.6-689.5
			c0-16.8,5.8-24.9,19.9-32.1c47.1-24.1,97.6-35.9,149.5-39.5c76.2-5.2,151.8-1.4,224.4,26.8c46.5,18.1,46.7,17.7,46.7,66.1
			C1034.3,677.3,1034.3,790.5,1034.3,903.6z"/>
		<path fill="currentColor" d="M1030.1,477.3c-145.4-63-288.4-68-430.1,7.6c-0.7-24.9,21.9-61.4,50.3-80.4c8.8-5.9,17-14.1,22.5-23.1
			c39.8-64.5,79-129.4,118.1-194.4c2.8-4.6,3.7-10.9,3.8-16.4c0.4-25.8,0-51.6,0.3-77.3c0.2-19.2,7-28.1,21.1-28.1
			c14.4,0,23.1,8.9,20.7,27.9c-7.8,61.8,10.1,114.5,46.6,164.4c28.8,39.4,51,83.6,76.9,125.3c5.3,8.5,12.9,16.5,21.2,22.1
			C1008.7,423.5,1022.4,450,1030.1,477.3z M814.8,230.1c-30.8,50.8-60.1,98.9-88.1,145.2c59.1,0,117.8,0,177,0
			C875.1,328.7,845.7,280.6,814.8,230.1z"/>
	</g>
</g>
</svg>