<?xml version="1.0" encoding="utf-8"?>
<!-- Generator: Adobe Illustrator 25.4.1, SVG Export Plug-In . SVG Version: 6.00 Build 0)  -->
<svg version="1.1" id="Calque_1" xmlns="http://www.w3.org/2000/svg" xmlns:xlink="http://www.w3.org/1999/xlink" x="0px" y="0px"
	 viewBox="0 0 1200 630" style="enable-background:new 0 0 1200 630;" xml:space="preserve">
<style type="text/css">
	.st0{fill:#FFFFFF;}
	.st1{fill:#990F28;}
	.st2{fill:#CC2038;}
</style>
<path class="st0" d="M440.2,471.1c-3.7,0.5-7.4,0.5-11.3,0.7V451c4.6,0,9.1-0.3,13.6,0.1c2.9,0.2,4.8,2.5,5.2,5.4
	c0.3,1.9,0.5,3.9,0.4,5.8C447.8,467.2,445.1,470.4,440.2,471.1z"/>
<path class="st0" d="M448.8,494.4c0.7,4.7,0.8,9.5,0.6,14.2c-0.1,3.2-2,5.5-5.3,6c-5.1,0.8-10.2,1.3-15.7,2v-27.6
	c5.6,0.3,11.2,0.3,16.6,1.1C446.5,490.4,448.6,492.8,448.8,494.4z"/>
<g id="TsusCl_00000134247208168341501240000009589152823980767368_">
	<g>
		<path d="M793.7,125c-0.1-12.1,1.7-9.1-9.1-15c-26.7-14.7-55.1-25.3-84.3-33.9c-43.5-12.9-88.1-19.3-133.4-19.9
			c-29.5-0.4-58.9,2-87.9,7.2c-25.6,4.5-50.5,11.4-75.1,19.7c-23.2,7.9-45.4,18-66.5,30.4c-2.1,1.2-2.9,2.6-2.9,5.1
			c0.3,20.8,0.4,41.6,0.6,62.4c0.2,20.2,0.5,40.3,0.9,60.5c0.2,9.3,0.5,18.6,1.4,27.9c1.3,13.6,3.1,27.1,5,40.6
			c2.9,20.7,7.5,41,14,60.9c3.4,10.4,7.1,20.6,10.8,31.2c-0.7,0.3-1.2,0.5-1.7,0.6c-6.3,1.1-12.5,2.4-18.8,3.3
			c-3.1,0.4-4.3,1.4-4.2,4.9c0.3,9.3,0.1,18.6,0,28c-0.3,38.5-0.5,77-0.9,115.4c0,1.9,0.7,2.6,2.3,3.1c6.6,1.9,13.2,4,19.9,5.9
			c25,7.1,50.3,12.8,75.9,17c7.7,1.3,15.5,2.4,23.2,3.3c19.2,2.3,38.5,3.6,57.9,4.2c2.2,0.1,4.5,0.7,6.5,1.5
			c8,3.1,15.9,6.2,23.7,9.6c9,4,17.8,4.1,26.9,0c7.9-3.5,16-6.5,24-9.7c1.6-0.6,3.3-1.3,5-1.4c13-0.8,26-1.2,38.9-2.2
			c2-0.2,4-0.3,6-0.5c9.3-0.8,18.7-1.7,27.9-3.1c16.1-2.5,32.3-5.1,48.1-8.8c19.5-4.6,38.8-10.3,58.2-15.5c1.8-0.5,2.9-1.1,2.9-3.4
			c-0.1-14.1,0.1-28.2,0.1-42.3c0-34.4,0-68.7-0.1-103.1c0-0.9-1.1-2.4-1.8-2.5c-4.3-0.9-8.7-1.4-13.1-2.2
			c-4.5-0.8-9.1-1.6-13.8-2.4c0.7-1.8,1.2-3.1,1.6-4.4c5-14.9,10.9-29.6,14.9-44.8c4.5-17.2,7.9-34.8,10.6-52.4
			c2.3-15.1,3.2-30.3,4.3-45.6c1.1-15,2.2-30.1,2.4-45.1C794.1,181.2,794,153.1,793.7,125z M573,585.2c-6.3,2.2-11.9,1.9-18.1-0.3
			c-21.8-7.8-41.7-19.3-62.1-30c-0.8-0.4-1.5-0.8-2.3-1.2c-0.7-0.4-1.4-0.8-2-1.5c7,0.3,13.8-1.1,20.7,2.3
			c17.3,8.4,35,15.9,52.5,23.7c1.1,0.5,2.8,0.5,4,0.1c6.7-2.3,13.6-4.4,20-7.4c12.2-5.7,24.2-12,36.3-18c0.9-0.4,1.8-0.9,2.7-0.9
			c4.8-0.1,9.5,0,14.2,0c0.1,0.3,0.1,0.6,0.2,0.8c-8.8,4.8-17.5,9.7-26.4,14.3C599.9,573.9,586.9,580.4,573,585.2z M427.9,336.3
			c-0.4-0.6-0.8-1.2-1.1-1.9c-0.3-0.4-0.5-0.9-0.8-1.3c-0.4-0.7-0.8-1.4-1.2-2.1c-0.1-0.2-0.2-0.4-0.3-0.6c-0.4-0.8-0.9-1.6-1.3-2.4
			c-0.4-0.8-0.9-1.6-1.3-2.4c-0.2-0.5-0.5-0.9-0.7-1.4c-0.4-0.7-0.8-1.5-1.1-2.2c-0.2-0.4-0.4-0.7-0.5-1.1c-0.3-0.7-0.7-1.3-1-2
			c-0.2-0.5-0.5-1-0.7-1.5c0-0.1-0.1-0.2-0.1-0.2c-0.1-0.2-0.2-0.3-0.2-0.5c-0.2-0.5-0.4-0.9-0.6-1.4c-0.3-0.6-0.6-1.3-0.9-1.9
			c-0.1-0.3-0.3-0.6-0.4-0.8c0,0,0,0,0-0.1c0,0-0.1-0.1-0.1-0.2c0-0.1-0.1-0.1-0.1-0.2c0-0.1-0.1-0.1-0.1-0.2
			c-0.3-0.7-0.6-1.3-0.8-2c0,0-0.1-0.1-0.1-0.2c-0.3-0.6-0.5-1.2-0.8-1.8c0-0.1-0.1-0.2-0.1-0.3c-0.3-0.6-0.5-1.3-0.8-1.9
			c-0.1-0.3-0.3-0.6-0.4-1c-0.1-0.2-0.1-0.3-0.2-0.5c0-0.1-0.1-0.2-0.1-0.2c-0.2-0.4-0.3-0.8-0.5-1.3c0,0,0,0,0,0
			c-0.1-0.4-0.3-0.8-0.4-1.1c-0.2-0.4-0.3-0.9-0.5-1.3c-0.1-0.4-0.3-0.7-0.4-1.1c0-0.1-0.1-0.2-0.1-0.4c-0.3-0.9-0.6-1.9-0.9-2.8
			c-1.9-5.7-3.4-11.6-5.4-17.3c2,29,13,55,27,80.1c-0.2,0.2-0.4,0.3-0.6,0.5c-2.1-2.5-4.5-4.8-6.1-7.6
			c-13.4-22.6-23.6-46.3-23.2-73.3c0.2-10,0-20,5-29.1c9.1-16.6,22.2-29.2,39.6-36.7c20.3-8.8,41.6-11,63.3-6.4
			c11.8,2.5,21.2,9.2,28.7,18.5c0.1,0.2,0.3,0.3,0.4,0.5c0.1,0.1,0.2,0.2,0.3,0.4c0.2,0.3,0.4,0.6,0.6,0.9c0.1,0.2,0.2,0.4,0.4,0.6
			c0.3,0.4,0.5,0.9,0.7,1.3c0.1,0.2,0.2,0.5,0.3,0.8c0.1,0.3,0.2,0.5,0.3,0.8c0.2,0.4,0.3,0.8,0.4,1.2c0,0.1,0.1,0.3,0.1,0.4
			c0.1,0.4,0.2,0.7,0.2,1.1c0,0.2,0.1,0.4,0.1,0.6c0,0.2,0,0.4,0.1,0.6c0,0.2,0,0.4,0,0.5c0,0.2,0,0.3,0,0.5c0,0.1,0,0.1,0,0.2
			c0,0.1,0,0.2,0,0.4c0.1,2.3-0.3,4.6-1,6.9c-0.4,0.1-0.8,0.2-1.2,0.3c-0.3-1.5-0.6-3-0.9-4.6c-0.3-1.4-0.5-2.8-0.8-4.1
			c-0.2-0.9-0.4-1.8-0.5-2.8c0-0.1,0-0.2-0.1-0.3c-0.1-0.6-0.2-1.1-0.4-1.7c-0.2-0.7-0.3-1.4-0.5-2c-0.3-1-1.3-1.9-2.5-3.7
			c0,0.6,0,1.3-0.1,1.9c0,0.4,0,0.7-0.1,1.1c0,0.3,0,0.7-0.1,1c-0.1,0.7-0.1,1.3-0.2,2c0,0.3-0.1,0.6-0.1,1c0,0.2-0.1,0.4-0.1,0.6
			c-0.1,0.3-0.1,0.6-0.2,1c-0.1,0.4-0.2,0.7-0.3,1.1c-0.1,0.3-0.2,0.6-0.3,0.9c-0.1,0.2-0.2,0.5-0.2,0.7c0,0.1,0,0.2-0.1,0.2
			c0,0.1-0.1,0.2-0.1,0.3c-0.1,0.3-0.2,0.5-0.3,0.8c-0.1,0.2-0.2,0.3-0.2,0.5c-0.2,0.4-0.4,0.9-0.7,1.3c-0.1,0.1-0.2,0.3-0.2,0.4
			c0,0-0.1,0.1-0.1,0.1c-0.2,0.2-0.3,0.5-0.5,0.7c-0.2,0.3-0.4,0.6-0.7,0.9c-0.2,0.3-0.5,0.6-0.7,0.9c0-0.4,0.1-0.8,0.1-1.2
			c0-0.4,0.1-0.8,0.1-1.2c0-0.2,0.1-0.4,0.1-0.6c0.1-0.4,0.1-0.8,0.2-1.2c0.2-1,0.3-2.1,0.4-3.1c0-0.4,0.1-0.7,0.1-1.1
			c0-0.7,0.1-1.4,0-2.1c0-0.2,0-0.4-0.1-0.6c0,0,0-0.1,0-0.1c0-0.2,0-0.4-0.1-0.6c0-0.2-0.1-0.5-0.1-0.7c0-0.2-0.1-0.3-0.1-0.5
			c0-0.2-0.1-0.3-0.1-0.5c-0.1-0.2-0.1-0.3-0.2-0.5c-0.1-0.3-0.2-0.6-0.4-0.9c-0.1-0.2-0.2-0.4-0.4-0.7c-0.1-0.1-0.2-0.3-0.3-0.4
			c-0.2-0.4-0.5-0.7-0.8-1c-0.7,2.5-1.4,5-2.1,7.6c-0.6,2.2-1.2,4.4-1.8,6.6c-0.3,1.1-0.6,2.2-0.9,3.3c-0.3,0.9-0.9,1.8-2,2.4
			c0.6-4.3,1.3-8.6,1.7-12.9v0c0.1-0.7,0.1-1.4,0-2.1c0,0,0,0,0,0c0-0.2,0-0.5-0.1-0.7c0,0,0,0,0-0.1l0,0c0-0.2,0-0.5-0.1-0.7
			c-0.1-0.5-0.2-1-0.3-1.5c0-0.2-0.1-0.4-0.2-0.5c0,0,0,0,0,0c0,0,0-0.1,0-0.1c0,0,0,0,0,0c-0.1-0.2-0.1-0.4-0.2-0.6
			c-0.2-0.5-0.4-0.9-0.6-1.3c-0.1-0.2-0.2-0.4-0.3-0.6c-0.1-0.2-0.2-0.3-0.3-0.5c-0.2-0.2-0.3-0.5-0.5-0.7c-0.2-0.2-0.3-0.4-0.5-0.7
			c-0.2-0.2-0.4-0.4-0.6-0.6c-0.1-0.1-0.2-0.2-0.3-0.3c-0.2-0.2-0.4-0.4-0.6-0.5c-0.5-0.4-1-0.8-1.6-1.2c-0.6-0.3-1.2-0.7-1.8-0.9
			c1,1.4,1.7,2.4,2.4,3.4c1.6,2.5,2.6,4.7,1.6,8.1c-0.1,0.4-0.2,0.8-0.3,1.1c0,0.2-0.1,0.3-0.1,0.5c-0.1,0.3-0.1,0.7-0.2,1
			c0,0.1,0,0.2,0,0.3c0,0.2-0.1,0.4-0.1,0.6c0,0.1,0,0.2,0,0.3c0,0.1,0,0.1,0,0.2c0,0.1,0,0.1,0,0.2c0,0.5-0.1,1-0.1,1.5
			c0,0.4,0,0.9,0,1.3c0,0.3,0,0.6,0,0.9c0,0.6,0,1.2-0.1,1.8c0,0.2,0,0.4,0,0.6c0,0,0,0,0,0c0,0.4,0,0.8-0.1,1.1
			c-0.1,1.4-0.5,2.7-1.5,4c-0.4-2.7-0.5-5.5-1.2-8.2c-0.2-0.7-0.3-1.5-0.5-2.2c-0.1-0.4-0.2-0.8-0.4-1.2c-0.1-0.2-0.1-0.4-0.2-0.7
			c0-0.1-0.1-0.2-0.1-0.3c0-0.1-0.1-0.2-0.1-0.3c-0.1-0.2-0.2-0.4-0.3-0.6c-0.1-0.2-0.2-0.5-0.4-0.7c-0.1-0.1-0.1-0.2-0.2-0.3
			c-0.1-0.1-0.1-0.2-0.2-0.3c-0.1-0.1-0.1-0.2-0.2-0.3c-0.2-0.3-0.5-0.6-0.7-0.9c-0.1-0.1-0.2-0.2-0.2-0.2c-0.1-0.1-0.2-0.2-0.3-0.3
			c-0.1-0.1-0.2-0.1-0.2-0.2c0,0,0,0,0,0c-0.2-0.1-0.3-0.3-0.5-0.4c-0.4-0.3-0.8-0.5-1.3-0.8c-1.1-0.5-1.7-2.2-2.7-3.2
			c-0.8-0.8-1.7-1.5-2.8-2.1c0.2,0.3,0.4,0.6,0.6,0.9c0.2,0.3,0.3,0.5,0.5,0.8c0.2,0.3,0.4,0.6,0.6,0.9c0.1,0.2,0.3,0.4,0.4,0.7
			c0.1,0.2,0.2,0.4,0.4,0.7c0.2,0.4,0.4,0.8,0.6,1.2c0.2,0.4,0.4,0.8,0.6,1.2c0.1,0.2,0.2,0.3,0.2,0.5c0.2,0.4,0.3,0.8,0.5,1.1
			c0.1,0.2,0.2,0.4,0.2,0.6c0.2,0.4,0.3,0.8,0.4,1.2c0.1,0.4,0.3,0.8,0.4,1.2c0.1,0.2,0.2,0.5,0.2,0.8c0.1,0.2,0.1,0.5,0.2,0.8
			c0.1,0.4,0.2,0.8,0.3,1.2c0.1,0.3,0.1,0.7,0.2,1c0.1,0.4,0.1,0.8,0.2,1.2c0,0.1,0,0.3,0,0.4c0,0.2,0.1,0.5,0.1,0.7
			c0,0.1,0,0.1,0,0.2c0,0.1,0,0.3,0,0.4c0,0.4,0.1,0.9,0.1,1.3c0,0.3,0,0.7,0,1c0,2.6-0.3,5.2-0.9,8c-1.3-5.6-2.6-11.1-4-16.7
			c-0.3,0.1-0.7,0.1-1,0.2c-0.1,1-0.3,2-0.5,3.2c-2.2-1.9-4.2-3.7-6.2-5.5c-0.4-0.3-0.8-0.7-1.1-1c-0.7-0.6-1.3-1.1-1.9-1.7
			c-0.4,0.2-0.7,0.4-1,0.6c1.1,1.4,2.3,2.9,3.3,4.4c0.2,0.3,0.5,0.7,0.7,1c0.2,0.2,0.3,0.5,0.5,0.7c0.2,0.3,0.4,0.6,0.6,0.9
			c0.2,0.3,0.4,0.6,0.6,0.9c0.2,0.3,0.4,0.6,0.5,0.9c0.2,0.3,0.3,0.6,0.5,0.9c1.1,1.9,2,3.9,2.7,6c0.2,0.5,0.3,1,0.5,1.5
			c0.1,0.3,0.1,0.5,0.2,0.8c0.1,0.4,0.2,0.7,0.2,1.1c0.1,0.4,0.1,0.7,0.2,1.1c0,0.2,0.1,0.5,0.1,0.7c0,0.2,0,0.5,0.1,0.7
			c0,0.2,0,0.4,0,0.6c0,0.6,0.1,1.1,0.1,1.7c0,0.4,0,0.7,0,1.1c-1.5-4-3-8.1-4.6-12.1c-1.8-4.3-5.1-6.7-10.6-7.9
			c3.2,4.5,5.9,8.3,8.6,12.1c-0.2,0.3-0.5,0.5-0.8,0.8c-5.8-4.3-11.9-8.1-19.4-8.6c8.4,3.7,15.2,9.1,20.2,18.2
			c-9-5.5-17.2-10.8-27.3-9.4c-0.1,0.3-0.2,0.6-0.3,0.9c6.9,3,13.7,6,20.6,9c-0.1,0.3-0.2,0.5-0.3,0.8c-3.4-0.8-6.7-1.6-10.1-2.4
			c-0.1,0.3-0.2,0.6-0.4,1c2.2,1.2,4.5,2.4,6.7,3.6c0,0.2-0.1,0.4-0.1,0.6c-6.3,0.6-12.7,1.2-19,1.8c-0.1,0.4-0.2,0.8-0.4,1.2
			c0.8,0.4,1.6,1,2.5,1c6.4,0.3,12.8,0.2,18.7,3.3c4.3,2.2,4.4,3.2,0.7,6.3c-3.6,3-7.5,5.4-13,5.4c3.2,4,6.8,1.6,10.4,1.5
			c-1.2,2.1-2.1,3.8-3,5.5c0.4,0.2,0.7,0.5,1.1,0.7c1.7-1.3,3.3-2.7,4.9-4.1c0.2,0.2,0.4,0.4,0.6,0.5c-0.1,0.3-0.3,0.6-0.4,0.9
			c-0.1,0.2-0.2,0.5-0.4,0.7c-0.1,0.1-0.2,0.3-0.2,0.4c-1.2,2-2.7,3.8-4,5.8c-0.2,0.2-0.3,0.5-0.4,0.7c-0.1,0.2-0.3,0.5-0.4,0.7
			c-0.1,0.2-0.3,0.5-0.4,0.7c-0.1,0.2-0.2,0.5-0.3,0.7c-0.1,0.2-0.2,0.4-0.2,0.6c0,0,0,0.1,0,0.1c-0.1,0.2-0.1,0.4-0.2,0.6
			c0,0,0,0.1,0,0.1c-0.1,0.2-0.1,0.4-0.2,0.6c0,0.1,0,0.3-0.1,0.4c0,0.2-0.1,0.5-0.1,0.7c0,0.2-0.1,0.5-0.1,0.8
			c0.8-0.9,1.5-1.8,2.1-2.6h0c0-0.1,0.1-0.1,0.1-0.2c0.9-1.1,1.7-2.1,2.5-3c0.3-0.3,0.6-0.6,0.9-0.9c1.8-1.8,4-3.2,6-4.8
			c0.2,0.2,0.4,0.4,0.4,0.4c-0.4,0.8-0.7,1.5-1,2.3c0,0.1-0.1,0.2-0.1,0.4c-0.1,0.3-0.2,0.6-0.3,0.9c-0.1,0.2-0.1,0.4-0.1,0.6
			c0,0.2-0.1,0.4-0.1,0.6c0,0.2-0.1,0.5-0.1,0.7c0,0.1,0,0.1,0,0.2c0,0.2,0,0.4-0.1,0.5c0,0.2,0,0.4,0,0.5c0,0.2,0,0.4,0,0.5
			c0,0.5,0,1.1,0,1.6c0,0.3,0,0.6,0,0.9c0,0.3,0,0.7,0.1,1c0,0.1,0,0.3,0,0.4c0,0.4,0.1,0.9,0.1,1.3c0.1,0.9,0.2,1.8,0.2,2.6
			c0,0.5,0.1,0.9,0.1,1.4c0.1,1.4,0.2,2.7,0.1,4.1c-0.4,7,1.3,14.2,2.5,21.2c1.7,9.7,3.9,19.3,5.8,28.9c0.2,1.1,0.2,2.3,0.3,3.4
			c-0.4,0.1-0.7,0.2-1.1,0.2c-2-7.2-4-14.4-6-21.7c-1.4,4.1-2.3,8.2-4.2,11.7c-0.4,0.7-0.8,1.4-1.2,2.1c-0.1,0.2-0.3,0.5-0.5,0.7
			c-0.1,0.2-0.3,0.4-0.4,0.6c-0.2,0.3-0.4,0.6-0.7,0.9c-0.2,0.3-0.4,0.6-0.7,0.8c0,0,0,0,0,0c-0.2,0.3-0.5,0.5-0.7,0.8
			c-0.2,0.2-0.5,0.5-0.7,0.7c-0.3,0.3-0.7,0.6-1,0.9c-0.1,0.1-0.3,0.2-0.4,0.3c-0.2,0.2-0.4,0.3-0.7,0.5c-7.9,5.2-16.5,9.4-26.2,6.5
			c-7.5-2.2-13.7-7.3-18.3-13.5c-1.4-1.9-2.7-3.9-4-5.8c-0.3-0.4-0.6-0.9-0.9-1.3c-0.3-0.4-0.5-0.8-0.8-1.2
			c-0.2-0.3-0.4-0.6-0.6-0.9c0-0.1-0.1-0.1-0.1-0.2c-0.2-0.3-0.4-0.5-0.5-0.8C430.1,339.9,429,338.1,427.9,336.3z M704.4,471.6
			c3.6,0.3,7.1,0.5,10.7,0.7c1.5,0.1,2.8,0.2,2.8,2.3c-0.1,6,0,12.1,0,18.6c-9.2-0.9-17.8-1.7-27.1-2.5c0,7.4,0,14.4,0,21.4
			c0,2.4,1.8,1.7,3.1,1.8c10.5,0.7,21,1.4,31.4,2c0.6,0,1.2,0.2,1.7,0.2v20.1c-20.6-1-40.7-2-60.5-2.9V430.8
			c1.3,0.1,2.6,0.2,3.9,0.2c3.5,0.2,7,0.4,10.5,0.6c7.5,0.4,15.1,0.9,22.7,1.3c6.8,0.4,13.6,0.7,20.5,1c2.1,0.1,3,0.6,3.1,3
			c0.1,5.8,0.5,11.6,0.9,17.5c-12.2-0.8-24-1.5-36.4-2.3v18.5C695.6,470.9,700,471.3,704.4,471.6z M627.9,481.8
			c8.4,16.6,16.9,33.1,25.4,49.6c0.1,0.3,0.1,0.6,0.3,1.4c-1.6,0-3,0-4.5,0c-7.2,0-14.3-0.2-21.5,0c-2.2,0-3-0.8-3.7-2.6
			c-3.6-8.8-7.3-17.5-11-26.3c-0.2-0.5-0.5-0.9-1-1.8c-0.6,1.1-1,1.9-1.4,2.8c-4,8.6-7.9,17.3-12,25.9c-0.4,0.9-1.8,2-2.7,2
			c-8.7,0.1-17.3,0-26,0c-0.3,0-0.6-0.2-1.2-0.4c0.3-0.8,0.5-1.6,0.9-2.3c8-14.1,15.9-28.3,24-42.3c0.9-1.5,1.7-3,2.6-4.5
			c0.8-1.5,1.2-2.7,1.1-3.9c-0.1-1.1-0.5-2.2-1.2-3.4c-2.1-3.8-4.3-7.7-6.4-11.5c-4.9-9-9.8-18.1-14.8-27.1c-1.5-2.7-3.1-5.3-5-8.4
			c4.4,0,8.3,0,12.3,0c5,0,10,0,15-0.2c2.1-0.1,3,0.6,3.8,2.6c3.3,8.6,6.8,17.1,10.2,25.6c0.3,0.7,0.8,1.3,1.6,2.6
			c2.3-5.4,4.3-10.1,6.3-14.8c0.1-0.2,0.2-0.5,0.3-0.7c1.9-4.3,3.7-8.7,5.7-13c0.4-0.9,1.6-2.1,2.4-2c8.9,0.4,17.9,0.9,27.4,1.5
			c-3.8,6.7-7.2,13-10.8,19.3c-2.8,4.9-5.5,9.9-8.3,14.8c-2.6,4.7-5.2,9.4-7.8,14.1c-0.1,0.2-0.2,0.5-0.3,0.9
			C627.4,480,627.6,481.1,627.9,481.8z M658.7,322h16.4c0,0.3,0,0.6,0.1,0.9c-2.6,0.4-5.2,0.8-7.7,1.2c0,0.1,0,0.3-0.1,0.4
			c3.9,0.7,7.9,1.3,12.3,2c-1.4,0.9-2.5,2-3.9,2.5c-3,1-3.2,1-2.8,4.8c0.9-0.1,1.8-0.2,2.6-0.2c0.2,0.2,0.3,0.4,0.5,0.7
			c-1.5,1.1-2.9,2.2-4.4,3.3c0,0.2,0,0.4,0,0.7c0,0.1,0,0.2,0,0.3c0,0.1,0,0.2-0.1,0.3c0,0.1,0,0.2-0.1,0.4
			c-0.2,0.8-0.5,1.6-0.9,2.6c-0.1,0.2-0.1,0.3-0.2,0.5c-0.1,0.3-0.2,0.5-0.4,0.8c-0.1,0.3-0.3,0.5-0.4,0.8c0,0,0,0,0,0
			c-0.1,0.2-0.2,0.4-0.3,0.6c-0.3,0.7-0.7,1.4-1.1,2.1c-0.2,0.3-0.4,0.7-0.6,1c-0.5,0.8-0.9,1.5-1.4,2.3c-0.2,0.3-0.4,0.7-0.6,1
			c-2.4,3.7-5.2,7.6-8,10.9c-0.2,0.2-0.4,0.5-0.6,0.7c-0.9,1.1-1.9,2.2-2.8,3.1c-0.3,0.3-0.5,0.5-0.8,0.8c-2,2-3.9,3.5-5.4,4.2
			c2.1-5,4-9.2,5.8-13.4c-6.1,1.8-8.3,7.9-13.4,10.9c1.4-4.2,4-8,3.3-12.7c-4.7,5.8-9.4,11.5-14.5,16.8c-0.3-0.2-0.6-0.4-0.9-0.6
			c0.2-0.6,0.2-1.2,0.5-1.6c5.1-9.1,8.9-18.8,10.4-29.1c0.7-4.7,0.1-9.7-0.8-14.4c-0.4-2-2.6-4.3-4.6-5.4c-0.2-0.1-0.4-0.2-0.6-0.3
			c0,0-0.1,0-0.1,0c-0.1-0.1-0.2-0.1-0.4-0.2c-0.8-0.3-1.5-0.6-2.2-0.8c-0.1,0-0.2-0.1-0.4-0.1c-0.2,0-0.3-0.1-0.5-0.1
			c-0.2,0-0.3-0.1-0.4-0.1c-0.2,0-0.4-0.1-0.6-0.1c-0.2,0-0.5-0.1-0.7-0.1c-0.3,0-0.6,0-0.8,0c-0.3,0-0.6,0-0.9,0
			c-0.2,0-0.5,0-0.7,0.1c-0.1,0-0.2,0-0.4,0.1c-0.2,0-0.5,0.1-0.7,0.1c-0.1,0-0.2,0-0.2,0.1c-0.2,0-0.4,0.1-0.6,0.2
			c-0.1,0-0.1,0-0.2,0c-0.2,0.1-0.4,0.1-0.6,0.2c0,0-0.1,0-0.2,0.1c-0.3,0.1-0.5,0.2-0.8,0.4c-0.3,0.1-0.5,0.3-0.8,0.4
			c-0.2,0.1-0.3,0.2-0.5,0.3c-0.2,0.1-0.3,0.2-0.4,0.3c-0.2,0.1-0.3,0.2-0.5,0.4c0,0-0.1,0-0.1,0.1c-0.1,0.1-0.2,0.2-0.4,0.3
			c-0.1,0.1-0.2,0.2-0.3,0.3c-0.1,0.1-0.2,0.2-0.3,0.3c0,0,0,0,0,0c0,0,0,0-0.1,0.1c-0.1,0.1-0.2,0.2-0.4,0.4
			c-0.1,0.2-0.3,0.3-0.4,0.5c-0.1,0.2-0.3,0.3-0.4,0.5c-0.1,0.2-0.3,0.3-0.4,0.5c-0.1,0.2-0.2,0.3-0.3,0.5c-0.1,0.1-0.2,0.2-0.2,0.3
			c-0.1,0.2-0.2,0.3-0.3,0.5c-0.3,0.5-0.6,1.1-0.9,1.7c-3.4,7.3-8.2,14-9.6,22.2c-0.3,1.7-0.7,3.3-1.1,5c-0.4-0.1-0.8-0.1-1.2-0.2
			c0.8-5.4,1.6-10.9,2.4-16.3c-0.4-0.2-0.8-0.4-1.3-0.7c-3.8,4.4-7.6,8.7-11.2,13.2c-0.2,0.2,0.8,1.8,1.5,2.2c2.6,1.6,5.4,3,8.6,4.7
			c-6.5,0.5-12-4.7-12.7-10.3c-0.6-4.8,0.9-8.7,2.8-12.7c5-10.1,8.7-20.7,10.8-31.9c0.7-3.7,1.5-4,4.8-2.3c0.9,0.5,1.9,0.9,2.8,1.4
			c0.4,0.2,0.7,0.4,1.1,0.5c0.6,0.3,1.2,0.6,1.9,0.9c0.6,0.3,1.3,0.6,1.9,0.9c0.4,0.2,0.8,0.4,1.2,0.5c0.5,0.2,0.9,0.4,1.4,0.6
			c0.9,0.4,1.8,0.8,2.7,1.2c0.5,0.2,1.1,0.5,1.6,0.7c0.4,0.2,0.8,0.3,1.2,0.5c0.9,0.4,1.8,0.8,2.8,1.1c0.4,0.2,0.8,0.3,1.1,0.4
			c0.4,0.1,0.7,0.3,1.1,0.4c1,0.4,2,0.7,3,1.1c2,0.7,4,1.4,6,2c0.6,0.2,1.1,0.3,1.7,0.5c1,0.3,1.9,0.5,2.9,0.8
			c1.2,0.3,2.4,0.6,3.6,0.9c0.7,0.2,1.4,0.3,2,0.5c0.7,0.2,1.4,0.3,2.1,0.5c0.6,0.1,1.3,0.3,1.9,0.4c0.7,0.1,1.4,0.3,2,0.4
			c0.4,0.1,0.9,0.2,1.3,0.2c0.8,0.1,1.5,0.2,2.2,0.4c0.8,0.1,1.5,0.2,2.3,0.3c0.5,0.1,1.1,0.1,1.6,0.2c1,0.1,2,0.2,3,0.3
			c-2.2,1-4.5,2-6.7,3C658.7,321.6,658.7,321.8,658.7,322z M633.6,329.1c-1.8-4.3-6.8-5.1-10.1-1.7c-0.5,0.6-1,1.1-1.5,1.7
			c-0.1,0.1-0.2,0.3-0.3,0.4c-0.2,0.2-0.3,0.4-0.5,0.6c-0.2,0.3-0.4,0.6-0.6,0.9c-0.2,0.2-0.3,0.5-0.4,0.7c-0.3,0.5-0.6,1-0.9,1.6
			c-0.2,0.4-0.5,0.9-0.7,1.3c-0.3,0.7-0.7,1.3-0.9,2c-0.2,0.5-0.5,1.1-0.7,1.6c-0.2,0.6-0.5,1.2-0.7,1.8c-0.1,0.2-0.1,0.4-0.2,0.5
			c-0.4,1-0.7,2-1.1,3c-0.2,0.5-0.4,1-0.5,1.5c-1.9,5.5-3.2,11.3-5,17.6c-0.2-1.4-0.5-2.2-0.4-3c0.4-11.1,4.3-21.1,9.6-30.6
			c0.1-0.1,0.1-0.3,0.2-0.4c0.1-0.1,0.1-0.2,0.2-0.4c0,0,0-0.1,0.1-0.1c0.1-0.2,0.3-0.5,0.5-0.7c0.1-0.1,0.2-0.2,0.3-0.3
			c0.2-0.3,0.5-0.6,0.8-0.9c0.1-0.1,0.3-0.3,0.4-0.4s0.3-0.3,0.4-0.4c0.2-0.2,0.5-0.4,0.7-0.5c0.1-0.1,0.2-0.2,0.4-0.2
			c0.4-0.2,0.8-0.5,1.2-0.7c0.2-0.1,0.4-0.2,0.5-0.2c0.8-0.3,1.8-0.6,2.8-0.7c5.7-0.6,9.9,2.5,10.1,8.2c0.1,2.8-0.1,5.7-1,8.3
			c-2.7,8.1-5.8,16-8.9,24c-0.6,1.6-1.9,3-2.9,4.5c-0.3-0.2-0.6-0.3-0.9-0.5c1.5-3.7,3.1-7.3,4.3-11c2.3-6.7,4.6-13.5,6.4-20.3
			C634.7,334,634.5,331.2,633.6,329.1z M602.5,365.7c2.6,1.2,5.1,2.4,7.7,3.5c6.1,2.8,12.2,5.6,18.2,8.3c3.4,1.5,7.2,2.3,10.7,3.7
			c2.1,0.8,4,2.2,6,3.3c-0.1,0.3-0.2,0.5-0.3,0.8h-2.7c-3.3,8.9-6.5,17.4-9.8,25.9c-0.7,1.7-1.9,3.2-3.1,4.5
			c-0.4,0.5-1.5,0.4-2.3,0.6c-0.1-0.8-0.5-1.7-0.2-2.3c0.5-1.4,1.5-2.6,2.1-4c3.5-8.2,6.9-16.4,10.5-24.9c-1.7-0.6-3.4-1.2-5.1-1.8
			c-1.7-0.6-3.4-1.2-5.1-1.7c-2.5-0.9-5-1.7-7.5-2.6c-0.8-0.3-1.7-0.6-2.5-0.9c-1.1-0.4-2.3-0.8-3.4-1.2c-0.3-0.1-0.6-0.2-0.9-0.3
			c-1-0.4-1.9-0.7-2.8-1.1c-0.8-0.3-1.6-0.6-2.4-0.9c-0.7-0.2-1.3-0.5-2-0.8c-0.7-0.3-1.4-0.5-2-0.8c-0.5-0.2-1-0.4-1.6-0.7
			c-1.5-0.6-3-1.3-4.4-2c-0.6-0.3-1.2-0.6-1.8-0.9c-0.6-0.3-1.2-0.6-1.8-0.9c-0.2-0.1-0.3-0.2-0.5-0.2c-1-0.5-2.1-1.1-3.1-1.6
			c-0.7-0.4-1.5-0.8-2.2-1.2c-0.7-0.4-1.4-0.8-2.1-1.3c-0.5-0.3-1-0.6-1.5-0.9c-0.1-0.1-0.3-0.2-0.4-0.3c-0.3-0.2-0.6-0.4-1-0.6
			c-0.4-0.3-0.9-0.5-1.3-0.8c-0.5-0.4-1.1-0.7-1.6-1.1c-0.6-0.4-1.1-0.8-1.6-1.2c0.2-0.4,0.3-0.7,0.5-1c0-0.1,0.1-0.2,0.2-0.3
			c0.1-0.1,0.1-0.2,0.2-0.2c0-0.1,0.1-0.1,0.2-0.2c0-0.1,0.1-0.1,0.2-0.2c0.5-0.5,1-0.6,1.6-0.5c0.1,0,0.2,0,0.3,0.1
			c0.1,0,0.2,0,0.3,0.1c0.2,0.1,0.4,0.2,0.7,0.3c0.3,0.2,0.7,0.3,1,0.5C591.4,360.5,597,363.1,602.5,365.7z M603.2,376.6
			c1.1,0.4,2.1,0.8,3.2,1.2c1,0.4,2,0.7,3,1.1c0.8,0.3,1.6,0.6,2.4,0.9c1,0.4,2,0.7,3,1.1c1.4,0.5,2.7,1,4.1,1.4
			c1.4,0.5,2.8,0.9,4.1,1.4c2.8,0.9,5.5,1.8,8.3,2.7c2.8,0.9,3.7,2.2,3,5.2c-1.8,8.8-6.8,16.1-10.9,23.8c-0.3,0.5-1.2,1.1-1.8,1
			c-0.8-0.1-1.6-0.2-2.4-0.3c-0.4-0.1-0.8-0.1-1.2-0.1c-1.5-0.2-3.1-0.3-4.6-0.6c-0.3-0.1-0.7-0.1-1-0.2c-1-0.2-1.9-0.5-2.9-0.9
			c-10.2-4.1-20.2-8.8-30.3-13.2c-0.5-0.2-1-0.5-1.4-0.8c-6.7-3.9-5.5-3-4-9.2c1.6-6.6,3.8-13.1,5.6-19.6c0.5-1.7,0.6-3.5,0.9-5.4
			C588.1,369.7,595.5,373.5,603.2,376.6z M569.9,399c-1.1-2.1,1.2-11.7,4.4-18.5C572.9,386.6,571.4,392.6,569.9,399z M595.3,415.2
			c0.2,0.1,0.4,0.5,0.6,0.7c-0.2,0.3-0.3,0.7-0.5,1c-10.7-3.3-20.6-8.2-29.5-15c0.1-0.4,0.3-0.7,0.4-1.1c1,0,2.2-0.4,3,0
			C578,405.5,586.7,410.4,595.3,415.2z M639.7,374.8c0.1-0.4,0.2-0.8,0.3-1.1c8.3,1.3,16.1,4.4,23.8,7.6c-0.1,0.4-0.3,0.9-0.4,1.3
			C655.5,380,647.6,377.4,639.7,374.8z M666.8,392.4c1.8,4.5-5,21.2-9.1,23.4C660.8,407.8,663.8,400.1,666.8,392.4z M669.2,375.6
			c2.3-2.2,4.5-4.6,6.5-7c0.2-0.2,0.4-0.5,0.6-0.7c0,0,0-0.1,0.1-0.1c0.3-0.3,0.5-0.6,0.8-1c0.1-0.1,0.1-0.1,0.2-0.2
			c0.3-0.4,0.7-0.8,1-1.3c0.3-0.4,0.6-0.8,0.9-1.1c0.4-0.5,0.8-1,1.2-1.5c0.5-0.6,0.9-1.3,1.4-1.9c1.7-2.3,3.2-4.7,4.7-7.1
			c0.2-0.4,0.5-0.8,0.7-1.2c0.3-0.6,0.7-1.1,1-1.7c0.4-0.7,0.8-1.4,1.2-2.1c0.6-1.2,1.2-2.3,1.8-3.5c0.3-0.6,0.6-1.2,0.9-1.8
			c0.4-0.8,0.8-1.6,1.2-2.5c0.4-0.9,0.8-1.7,1.2-2.6c0.1-0.3,0.3-0.6,0.4-0.9c0.1-0.3,0.3-0.6,0.4-1c0.4-0.9,0.8-1.8,1.2-2.8
			c0.9-2.2,1.8-4.5,2.7-6.7c0.5-1.2,0.9-2.5,1.4-3.7c0.4-1,0.7-2,1.1-3l0.6-1.7c0.5-1.4,1-2.8,1.4-4.2c0.6-1.8,1.2-3.7,1.8-5.6
			c-1.6-0.2-3.2-0.4-4.8-0.6l-0.6-0.8c5.8-0.3,7.5-3.8,7.9-8.7c-2.9,0.6-5.7,1.2-8.5,1.8c3.6-3.6,9.1-4.2,11.5-9.4
			c-1-0.3-1.7-0.5-2.9-0.9c1.7-1.4,3.2-2.5,4.7-3.7c-0.1-0.3-0.2-0.6-0.4-0.9c-3.2,0.5-6.5,0.9-9.7,1.4c-0.2-0.3-0.4-0.6-0.5-1
			c7.4-2.7,13.2-6.8,15-15.7c-2.5,2.2-4.5,4-6.5,5.7l-0.9-0.6c5.1-5.6,7.4-11.8,5.7-19.7c-1.7,3.9-3.2,7.3-4.6,10.6
			c-0.4-0.1-0.9-0.2-1.3-0.3c2.1-9.5,0.5-17.8-7.5-25.2c0.8,6.8,4.9,12.2,3.4,18.2c-2.4-5.4-4.9-10.8-7.3-16.2
			c-0.3,0.1-0.6,0.3-1,0.4c0.7,3.7,1.5,7.3,2.1,11c2,12.4,0.5,23.7-9.8,32.5c-0.4,0.3-0.7,0.6-1.1,0.9c-0.2,0.1-0.3,0.3-0.5,0.4
			c-0.2,0.2-0.5,0.4-0.8,0.6c-0.2,0.1-0.4,0.3-0.6,0.4c-0.3,0.2-0.5,0.4-0.8,0.5c-0.1,0-0.1,0.1-0.2,0.1c-0.3,0.2-0.6,0.4-0.9,0.6
			c-0.3,0.2-0.5,0.3-0.8,0.5c-0.6,0.4-1.3,0.7-1.9,1c0,0,0,0-0.1,0c0,0,0,0,0,0c-0.2,0.1-0.3,0.2-0.5,0.2c-0.3,0.1-0.5,0.2-0.8,0.4
			c-0.2,0.1-0.5,0.2-0.7,0.3c-0.3,0.1-0.6,0.2-0.9,0.3c-0.2,0.1-0.5,0.2-0.7,0.3c0,0-0.1,0-0.1,0c-0.2,0.1-0.4,0.1-0.6,0.2
			c0,0-0.1,0-0.1,0c-0.2,0.1-0.4,0.1-0.5,0.2c-0.5,0.1-0.9,0.3-1.4,0.4c-0.4,0.1-0.9,0.2-1.3,0.3c-0.5,0.1-1,0.2-1.6,0.3
			c-0.5,0.1-1,0.2-1.5,0.3c0,0,0,0-0.1,0c-0.2,0-0.5,0.1-0.8,0.1c-0.2,0-0.4,0.1-0.7,0.1c-1.1,0.1-2.2,0.2-3.3,0.3
			c-2.8,0.1-5.6,0.1-8.3,0c-0.2,0-0.3,0-0.5,0s-0.3,0-0.5,0c-0.5,0-1.1-0.1-1.6-0.1c-0.3,0-0.7,0-1-0.1c-0.4,0-0.8-0.1-1.3-0.1
			c-0.5,0-0.9-0.1-1.4-0.1c-0.5,0-1.1-0.1-1.6-0.2c-0.6-0.1-1.2-0.2-1.8-0.3c0,0-0.1,0-0.1,0c-0.6-0.1-1.2-0.2-1.8-0.3
			c-0.5-0.1-1-0.2-1.5-0.3c-0.2-0.1-0.5-0.1-0.7-0.2c0,0-0.1,0-0.2,0c-0.4-0.1-0.9-0.2-1.3-0.3c-0.1,0-0.3-0.1-0.4-0.1
			c-0.5-0.1-0.9-0.2-1.4-0.4c-0.5-0.1-1-0.3-1.5-0.4c-0.2,0-0.3-0.1-0.5-0.2c-2.1-0.7-4.2-1.4-6.2-2.3c-0.2-0.1-0.5-0.2-0.7-0.3
			c-0.4-0.2-0.9-0.4-1.3-0.6c-0.4-0.2-0.8-0.4-1.2-0.6c-1.5-0.8-3-1.6-4.4-2.5c-0.3-0.2-0.7-0.4-1-0.6c-0.3-0.2-0.6-0.4-0.9-0.6
			c-0.3-0.2-0.6-0.4-0.9-0.6c-0.5-0.3-0.9-0.6-1.3-1c-0.1,0-0.1-0.1-0.2-0.1c-0.3-0.2-0.7-0.5-1-0.8c0,0-0.1-0.1-0.1-0.1
			c-0.4-0.3-0.8-0.6-1.2-1c-1.1-0.9-2.2-1.9-3.3-2.9c-0.4-0.4-0.8-0.7-1.2-1.1c-0.5-0.4-0.9-0.9-1.4-1.4c-0.4-0.4-0.8-0.8-1.1-1.2
			c-0.2-0.2-0.4-0.4-0.6-0.6c-0.2-0.2-0.3-0.4-0.5-0.6c-0.3-0.3-0.5-0.6-0.8-0.9c0,0,0,0,0,0c0,0-0.1-0.1-0.1-0.1
			c-0.3-0.4-0.6-0.7-0.9-1.1c-7.1-8.8-8.4-19-4.2-29.7c0.2-0.4,0.3-0.8,0.5-1.2c0.1-0.4,0.3-0.8,0.5-1.1c0.3-0.9,0.7-1.7,1.1-2.5
			c0.1-0.3,0.3-0.6,0.4-0.9c0.2-0.5,0.5-1,0.7-1.5c0-0.1,0.1-0.2,0.1-0.3c0-0.1,0.1-0.1,0.1-0.2c0-0.1,0.1-0.2,0.1-0.3
			c0.2-0.4,0.4-0.7,0.6-1.1c0.1-0.2,0.2-0.4,0.3-0.6c0,0,0,0,0-0.1c0.1-0.1,0.2-0.3,0.2-0.4c0.2-0.3,0.3-0.6,0.5-0.8
			c0-0.1,0.1-0.1,0.1-0.2c0.2-0.3,0.4-0.7,0.7-1c0-0.1,0.1-0.1,0.1-0.2c0.2-0.3,0.4-0.5,0.6-0.8c0.2-0.2,0.4-0.5,0.6-0.7
			c0.1-0.1,0.1-0.2,0.2-0.2c0,0,0.1-0.1,0.1-0.1c0.1-0.1,0.2-0.2,0.3-0.3c0.2-0.2,0.4-0.4,0.6-0.6c0.3-0.3,0.6-0.6,0.9-0.9
			c0.1-0.1,0.3-0.3,0.4-0.4c0.1-0.1,0.3-0.3,0.4-0.4c-0.2-0.3-0.4-0.5-0.7-0.8c-1.8,1.2-3.8,2.3-5.5,3.7c-0.4,0.3-0.7,0.6-1.1,0.9
			c-0.2,0.2-0.3,0.3-0.5,0.5c-0.3,0.3-0.6,0.6-0.9,0.9c-0.6,0.5-1.2,1.1-1.8,1.8c-0.4,0.4-0.8,0.8-1.2,1.1c0-0.4,0.1-0.8,0.1-1.2
			c0-0.2,0-0.5,0.1-0.7c0-0.1,0-0.2,0.1-0.4c0-0.1,0-0.1,0-0.1c0-0.1,0-0.1,0-0.1c0-0.1,0-0.1,0-0.2c0,0,0-0.1,0-0.1
			c0-0.2,0.1-0.4,0.1-0.7c0,0,0,0,0,0c0-0.2,0.1-0.4,0.1-0.6c0,0,0,0,0,0c0-0.2,0.1-0.4,0.2-0.6c0.1-0.3,0.1-0.5,0.2-0.8
			c0,0,0,0,0-0.1c0-0.2,0.1-0.3,0.2-0.5c0,0,0,0,0-0.1c0.1-0.3,0.2-0.6,0.3-1c0.1-0.4,0.3-0.7,0.4-1c0.1-0.1,0.1-0.3,0.2-0.4
			c0.1-0.2,0.2-0.5,0.3-0.7c0.1-0.2,0.2-0.4,0.3-0.5c0.3-0.6,0.7-1.3,1-1.9c0.2-0.4,0.5-0.8,0.7-1.2c0.2-0.4,0.5-0.8,0.8-1.3
			c0.3-0.5,0.7-1,1-1.6c0.4-0.7,0.9-1.3,1.4-2c-5.4,2.3-9.2,6.3-12.2,10.9c-0.5,0.8-1,1.5-1.4,2.3c-0.4,0.7-0.9,1.4-1.3,2.1
			c-0.4,0.7-0.8,1.4-1.3,2.1c-1.6,2.6-3.1,5.2-4.8,7.8c-0.2-1.6-0.3-3.1-0.2-4.6c0-0.1,0-0.2,0-0.3c0,0,0,0,0,0c0-0.3,0-0.7,0.1-1
			c0-0.1,0-0.1,0-0.2c0-0.4,0.1-0.9,0.2-1.3c0.1-0.4,0.1-0.8,0.2-1.3c0.1-0.4,0.2-0.8,0.3-1.2c0,0,0,0,0-0.1
			c0.2-0.8,0.4-1.5,0.7-2.3c0.3-0.9,0.6-1.7,1-2.5c0.3-0.8,0.7-1.6,1.1-2.3c0.2-0.4,0.4-0.8,0.6-1.2c0.8-1.6,1.7-3.1,2.7-4.6
			c-2.1,1.5-4.3,3.1-6.2,4.8c-0.3,0.2-0.6,0.5-0.8,0.7c-0.3,0.2-0.6,0.5-0.9,0.8c-0.2,0.2-0.5,0.5-0.8,0.7l-0.2,0.2
			c-0.1,0.1-0.2,0.2-0.2,0.2c-0.3,0.3-0.6,0.6-0.9,1c-0.4,0.4-0.7,0.8-1,1.2c-0.2,0.2-0.3,0.4-0.5,0.6c-0.1,0.1-0.2,0.2-0.3,0.4
			c-0.2,0.3-0.5,0.6-0.7,0.9c-0.3,0.5-0.6,0.9-0.8,1.4c-0.3,0.5-0.5,1-0.8,1.5c-0.1,0.3-0.3,0.6-0.4,0.9c-0.4,1-0.7,2-1,3
			c0,0.2-0.1,0.3-0.1,0.5c-0.1,0.5-0.2,1-0.3,1.5c-0.1-0.3-0.3-0.6-0.4-0.9c-0.1-0.1-0.1-0.3-0.2-0.4c-0.1-0.2-0.2-0.4-0.2-0.6
			c-0.3-0.7-0.5-1.4-0.7-2.2c0-0.1-0.1-0.2-0.1-0.3c-0.1-0.4-0.2-0.8-0.2-1.3c0-0.1,0-0.2,0-0.4c0-0.5,0-0.9,0-1.4
			c0-0.2,0-0.3,0-0.5c0-0.1,0-0.2,0-0.2c0-0.2,0.1-0.4,0.1-0.6c0-0.2,0.1-0.5,0.1-0.7c2.3-9.2,8.7-15.1,16.6-19.4
			c11.6-6.4,24.2-7.5,37.2-5.9c14.3,1.7,28.4,4.5,42,9.8c14,5.5,26,13.9,35.8,25.2c8.5,9.8,10.8,21.6,9.8,34.3
			c-1.8,21.5-9.5,41.2-17.8,60.8c-0.3,0.8-0.7,1.6-1,2.3c-0.1,0.2-0.1,0.3-0.2,0.4c0,0.1-0.1,0.2-0.1,0.3c-0.3,0.7-0.6,1.4-1,2
			c-0.1,0.2-0.2,0.4-0.2,0.5c-0.3,0.6-0.6,1.2-0.9,1.8c0,0.1,0,0.1-0.1,0.2c-0.1,0.3-0.3,0.6-0.5,0.9c0,0,0,0.1-0.1,0.2
			c-0.3,0.6-0.7,1.2-1,1.8c-0.1,0.1-0.1,0.2-0.2,0.3c-1,1.7-2,3.5-3.1,5.1c-0.4,0.7-0.9,1.4-1.3,2.1c-0.1,0.1-0.2,0.3-0.3,0.4
			c-0.1,0.2-0.2,0.3-0.3,0.5c-0.2,0.3-0.4,0.7-0.7,1c-0.3,0.5-0.7,1-1,1.5c-0.3,0.4-0.6,0.8-0.9,1.2c0,0-0.1,0.1-0.1,0.1
			c-0.3,0.4-0.6,0.8-0.9,1.2c0,0,0,0.1-0.1,0.1c-0.4,0.5-0.8,1.1-1.2,1.6c0,0,0,0,0,0.1c-0.6,0.8-1.2,1.5-1.8,2.2
			c-0.5,0.6-0.9,1.1-1.4,1.7c-0.2,0.2-0.3,0.4-0.5,0.6c-0.4,0.5-0.8,1-1.2,1.4c0,0-0.1,0.1-0.1,0.1c-0.4,0.5-0.8,0.9-1.2,1.4
			c-1.1,1.2-2.3,2.4-3.5,3.6c-0.7,0.7-1.4,1.4-2.1,2.1c-1.5,1.5-3.3,2.7-4.9,4C669.9,376.2,669.5,375.9,669.2,375.6z M581,256.9
			c0.2,8.4-3.2,15.8-5.5,23.6c-0.5,1.7-0.8,3.4-1.1,5.1l1,0.4c1.9-3.1,3.8-6.2,5.8-9.3c0.4,0.2,0.7,0.3,1,0.5
			c-2.1,5.5-4.2,10.9-6.3,16.4c0.2,0.1,0.3,0.2,0.5,0.4c1.2-1.2,2.3-2.5,3.4-3.7c0.3,0.1,0.6,0.3,0.9,0.5
			c-2.3,5.3-4.6,10.5-6.9,15.8c0.3,0.2,0.6,0.4,0.9,0.6c2.2-3.2,4.7-6.4,6.7-9.8c2-3.4,3.8-7.1,5.4-10.7c1.7-3.7,3-7.5,5-11.1
			c0,0.3,0,0.6,0,0.9c0,0.4,0,0.8,0,1.1v0.1c0,0.3,0,0.6,0,1c0,0.1,0,0.2,0,0.3c0,0.2,0,0.4,0,0.6c0,0,0,0,0,0c0,0.5-0.1,1-0.2,1.5
			s-0.1,1-0.2,1.5c-0.1,0.4-0.1,0.8-0.2,1.3c0,0.3-0.1,0.6-0.2,0.9c-0.1,0.6-0.2,1.2-0.4,1.8c-0.1,0.4-0.2,0.7-0.3,1.1
			c-0.1,0.5-0.2,1-0.4,1.4c-0.1,0.3-0.2,0.7-0.3,1c-1.2,4.1-2.7,8.1-4.1,12.2c-0.3,0.9-0.6,1.7-0.9,2.6c2.3,0.2,4-1.4,6-5.8
			c1.3-2.8,2.5-5.6,4.2-8.3c0,1.6-0.2,3.2-0.5,4.7c-0.1,0.4-0.1,0.7-0.2,1.1c-0.1,0.4-0.2,0.8-0.3,1.2c-0.1,0.5-0.2,1-0.4,1.5
			c-0.5,1.8-1,3.5-1.6,5.3c-0.2,0.7-0.4,1.4-0.6,2.1c-0.2,0.7-0.4,1.4-0.6,2.1c-0.1,0.5-0.2,0.9-0.4,1.4c-0.1,0.3-0.2,0.6-0.2,0.9
			c-0.2,0.7-0.4,1.5-0.5,2.2c0,0.2-0.1,0.5-0.1,0.7c-0.1,0.4-0.2,0.9-0.2,1.4c0.2-0.4,0.4-0.9,0.6-1.3c0.1-0.3,0.3-0.6,0.4-0.9
			c0.2-0.5,0.4-0.9,0.7-1.3c0.4-0.9,0.9-1.8,1.4-2.7c0.2-0.4,0.5-0.9,0.7-1.3c0.9-1.8,1.9-3.5,2.7-5.3c0.2-0.4,0.4-0.7,0.5-1.1
			c0.2-0.4,0.4-0.9,0.6-1.3s0.4-0.9,0.5-1.3c0,0,0,0,0,0c0.1-0.4,0.3-0.7,0.4-1.1c0.8-2.2,1.5-4.4,1.8-6.8c0-0.1,0-0.2,0-0.3
			c0.1-0.4,0.1-0.8,0.2-1.3c0-0.2,0-0.3,0-0.5c0-0.3,0-0.6,0.1-0.9c0.4,0.1,0.8,0.1,1.2,0.2c0.1,2.1,0.4,4.2,0.3,6.3
			c0,0.2,0,0.3,0,0.5c0,0.7-0.1,1.5-0.2,2.2c0,0.3-0.1,0.6-0.1,1c0,0.4-0.1,0.8-0.1,1.2c0,0.4-0.1,0.7-0.2,1.1
			c0,0.3-0.1,0.7-0.2,1.1c-0.1,0.7-0.3,1.4-0.4,2.1c-0.1,0.6-0.3,1.2-0.4,1.8c-0.1,0.5-0.2,0.9-0.3,1.4c-0.1,0.5-0.2,0.9-0.4,1.4
			c-0.3,0.9-0.5,1.8-0.8,2.7c-0.1,0.4-0.3,0.8-0.4,1.2c-0.1,0.4-0.3,0.8-0.4,1.2c-0.2,0.6-0.5,1.3-0.7,1.9c-0.1,0.4-0.3,0.7-0.4,1.1
			c-0.1,0.4-0.3,0.7-0.4,1.1c-0.2,0.5-0.4,1-0.6,1.5c-0.4,0.9-0.8,1.8-1.2,2.7c-0.3,0.7-0.6,1.4-1,2.1c0,0.1-0.1,0.1-0.1,0.2
			c-0.6,1.3-1.3,2.6-2,3.9c-0.5,0.9-0.9,1.8-1.4,2.8c-0.4,0.8-0.8,1.6-1.3,2.4c-0.5,0.8-0.9,1.7-1.4,2.6c-1.1,2-2.2,4-3.3,6
			c-0.1,0.2-0.3,0.5-0.4,0.7c-0.2,0.2-0.3,0.5-0.5,0.7c-0.2,0.2-0.4,0.5-0.5,0.7c-0.2,0.2-0.3,0.4-0.5,0.7c-0.3-0.2-0.7-0.4-1-0.6
			c2.5-4.9,5.1-9.9,7.7-15c-9-0.8-8.6-2.7-13.3-10.9c-0.8,2.4-1.4,4.3-2,6.2c-0.3,0-0.6,0-0.8,0.1c-0.3-2.1-1.1-4.3-0.7-6.3
			c0.4-2,1.9-3.8,2.9-5.6c-0.2-0.2-0.4-0.3-0.7-0.5c-1,0.8-1.9,1.7-3,2.6c-0.1-0.3-0.3-0.5-0.4-0.8c-0.2-0.5-0.5-1.1-0.7-1.6
			c-0.3-0.7-0.5-1.4-0.7-2.2c-0.1-0.2-0.1-0.5-0.2-0.7c-0.1-0.3-0.2-0.6-0.2-0.9c0-0.1-0.1-0.3-0.1-0.5c-0.2-0.8-0.3-1.5-0.4-2.3
			c0-0.2-0.1-0.5-0.1-0.7c0-0.4-0.1-0.8-0.1-1.2c0-0.2,0-0.4,0-0.6c0-1,0-2.1,0-3.2c0-0.5,0-1,0.1-1.5c0-0.5,0.1-1.1,0.2-1.6
			c0-0.5,0.1-0.9,0.2-1.4c0-0.2,0-0.4,0.1-0.7c0.1-0.6,0.2-1.2,0.2-1.8c0-0.5,0.1-1,0.1-1.5c0-0.3,0-0.6,0.1-1
			c0.1-1.2,0.1-2.3,0.1-3.5c0-0.6,0-1.2,0-1.8c0-0.7-0.1-1.4-0.1-2.1c0-0.2,0-0.4,0-0.5c0-0.3-0.1-0.6-0.1-0.9
			c0-0.4-0.1-0.8-0.1-1.2c-0.1-0.5-0.2-1-0.2-1.6c-0.1-0.5-0.2-1-0.3-1.6c-0.1-0.5-0.2-1-0.3-1.5c-0.1-0.5-0.2-1-0.4-1.5
			c-0.1-0.5-0.3-1-0.4-1.5c-0.1-0.4-0.2-0.9-0.4-1.3c0-0.1-0.1-0.3-0.1-0.4c-0.1-0.3-0.2-0.7-0.3-1c-0.1-0.2-0.2-0.5-0.2-0.7
			c0-0.1,0-0.1-0.1-0.2c-0.1-0.4-0.3-0.7-0.4-1.1c-0.1-0.2-0.1-0.3-0.2-0.5c-0.1-0.3-0.3-0.7-0.4-1c-0.1-0.3-0.3-0.7-0.4-1
			c-0.4-0.8-0.7-1.7-1.1-2.5c0,0,0-0.1-0.1-0.1c-0.3-0.6-0.6-1.2-0.9-1.8c-0.3-0.6-0.7-1.2-1-1.9c-1.5-2.7-3.4-5.7-0.9-8.7
			c2.9-3.5,6.9-5,11.3-4.3C579.1,246.7,580.8,249.2,581,256.9z M560.2,321.9c1,2.3,1.7,4.3,2.7,6.1c0.8,1.5,1.6,3,2.5,4.6
			c0.8,1.5,1.6,3,2.5,4.5c0.6,1.1,1.2,2.1,1.7,3.2c0.5,0.9,1,1.9,1.5,2.8c0.6,1,1.1,2.1,1.6,3.2c0.7,1.4,1.1,3.3,0.7,4.8
			c-4.1,16.1-8.4,32.2-12.7,48.3c-0.8,3.1-1.8,6.2,2.2,8.4c-0.2,0.2-0.5,0.4-0.8,0.6h-10.9c-0.4-2.7-0.6-5.2-1.3-7.6
			c-3.7-12.7-7.5-25.3-11.2-37.9c-1-3.5-0.6-6.5,1.5-9.7c6.4-9.6,12.4-19.5,18.5-29.3C559.1,323.2,559.5,322.8,560.2,321.9z
			 M447.9,387.1c-1.3,0.1-2.8-0.8-4.2-1.2c0.8-0.2,1.7-0.3,2.5-0.5c0.8-0.2,1.7-0.3,2.5-0.4c1-0.2,2-0.4,3-0.5
			c1.5-0.2,3-0.5,4.4-0.7c1.7-0.3,3.3-0.5,5-0.8c2.4-0.4,4.9-0.7,7.3-1.1s4.9-0.7,7.3-1.1c1.3-0.2,2.6-0.4,3.9-0.6
			c1.3-0.2,2.6-0.4,3.8-0.6c0.1,0,0.2,0,0.2,0c1-0.2,2.1-0.4,3.1-0.6c1.1-0.2,2.2-0.4,3.4-0.6c1.1-0.2,2.2-0.4,3.3-0.7
			c0.8-0.2,1.6-0.3,2.4-0.5s1.6-0.3,2.3-0.5c0.6-0.1,1.2-0.3,1.8-0.4c0.8-0.2,1.6-0.4,2.4-0.6c2.3-0.6,4.5-1.2,6.8-1.8
			c0.2-0.1,0.5-0.1,0.8-0.2c1.5-0.5,3-0.9,4.6-1.4c0.4-0.1,0.8-0.3,1.2-0.4c0.7-0.2,1.4-0.5,2.1-0.7c0.7-0.3,1.5-0.5,2.2-0.8
			c0.7-0.3,1.4-0.5,2.1-0.8c0.5-0.2,1-0.4,1.5-0.6c0.3-0.1,0.6-0.2,0.9-0.4c0.3-0.1,0.6-0.3,0.9-0.4c0.1,0,0.1-0.1,0.2-0.1
			c0.6-0.3,1.3-0.6,1.9-0.8c-0.4,0.7-0.6,2.1-1.5,2.7c-3.2,2.3-6.3,5.3-9.9,6.4c-2.9,0.8-5.8,1.6-8.7,2.4c-1.3,0.3-2.6,0.7-3.8,1
			c-0.2,0-0.4,0.1-0.6,0.1c-1.5,0.4-2.9,0.7-4.4,1.1c-1.4,0.3-2.8,0.7-4.2,1c-1,0.2-2,0.4-3,0.7c-1,0.2-2,0.4-3,0.6
			c-0.4,0.1-0.9,0.2-1.3,0.2c-2.1,0.4-4.1,0.8-6.2,1.1C470,386.1,458.9,386.3,447.9,387.1z M450.3,416c-0.4,0.1-0.9,0.2-1.3,0.4
			c-2.7-6.2-3.7-12.9-4.9-19.5c0.2-0.1,0.5-0.1,0.8-0.2C446.6,403.1,448.5,409.5,450.3,416z M443.6,377.9
			c22.3-3.7,44.7-7.4,67.6-11.2c-0.2,0.1-0.3,0.3-0.6,0.4c-0.1,0.1-0.2,0.1-0.3,0.2c0,0-0.1,0.1-0.2,0.1c-0.2,0.1-0.4,0.2-0.6,0.3
			c-0.1,0-0.1,0.1-0.2,0.1c-0.2,0.1-0.3,0.2-0.5,0.2c-0.6,0.3-1.4,0.5-2.2,0.8c-0.5,0.2-1.1,0.4-1.7,0.5c-0.1,0-0.1,0-0.2,0
			c-0.4,0.1-0.9,0.2-1.3,0.4c-0.5,0.1-1,0.3-1.5,0.4c-0.3,0.1-0.6,0.2-1,0.2c-0.2,0.1-0.5,0.1-0.7,0.2c-0.6,0.1-1.2,0.3-1.8,0.4
			c-0.4,0.1-0.7,0.2-1.1,0.3c-1.4,0.3-2.8,0.7-4.3,1c-0.4,0.1-0.8,0.2-1.2,0.2c-1.2,0.3-2.5,0.5-3.8,0.8c-0.8,0.1-1.5,0.3-2.3,0.4
			c-1.2,0.2-2.4,0.4-3.6,0.7c-1.3,0.2-2.5,0.5-3.8,0.7c-0.1,0-0.2,0-0.3,0.1c-1.7,0.3-3.4,0.5-5.1,0.8c-0.8,0.1-1.7,0.3-2.5,0.4
			c-2.1,0.3-4.2,0.6-6.2,0.9c-0.7,0.1-1.4,0.2-2.1,0.3c-2,0.2-3.8,0.4-5.6,0.6c-0.7,0.1-1.3,0.1-1.9,0.2c-1,0.1-2,0.2-2.9,0.2
			c-0.5,0-1,0-1.5,0.1c-1.7,0.1-3.1,0.1-4.2,0c-0.3,0-0.7,0-0.9-0.1c-0.5-0.1-0.9-0.1-1.1-0.3C443.9,378.1,443.7,378,443.6,377.9z
			 M486.4,360.9c1.2-1.6,2.3-3,3.5-4.5C491.4,359.4,490.5,360.6,486.4,360.9z M513.2,382.5c-1.6,5.4,1,10.1,2.1,14.9
			c1.1,4.9,2.6,9.8,3.9,14.6c-0.4,0.1-0.7,0.2-1.1,0.3c-3.7-8.6-7.2-17.3-7.2-26.9C510.9,384.3,512.1,383.3,513.2,382.5z
			 M536.3,428.4c8.4,1.3,16.2,3.9,21.9,10.8c3.4,4.1,5.4,8.7,5.4,14.2c0,3.6,0,7.3,0,10.9c0,5,0,10,0,14.9v0.2c0,0,0,0,0,0
			c0,2.8,0,5.5,0,8.2c0,5.2,0,10.3,0.1,15.5c0.2,12.3-5.5,21.2-16.4,26c-16,6.9-32,6.9-47.2-2.7c-7.6-4.8-11.1-12.3-11.2-21.2
			c0-5.9-0.1-11.7-0.1-17.6c0-2.8,0-5.6,0-8.4c0-5,0-10,0.1-14.9c0-3.2,0.1-6.5,0.1-9.8c0.2-8.4,4.8-14.7,11.6-19.3
			C511.5,428,523.6,426.3,536.3,428.4z M533.8,380.9c0.4-0.1,0.7-0.2,1.1-0.3c2.4,8.1,4.9,16.1,7.3,24.2c-0.4,0.1-0.8,0.2-1.1,0.3
			C537.4,397.4,535.5,389.2,533.8,380.9z M555.3,285c0,0.3,0,0.6,0,0.9c0,0.5,0,0.9-0.1,1.4c0,0.9-0.1,1.9-0.2,2.8
			c-0.1,0.7-0.2,1.4-0.2,2.1c0,0.4-0.1,0.8-0.2,1.2c-0.1,0.5-0.1,0.9-0.2,1.4c-0.1,0.5-0.2,1.1-0.3,1.6c-0.2,0.8-0.3,1.7-0.5,2.5
			c-0.5,2.5-1.1,5-1.6,7.5c-4.6,20-14.7,36.6-29.4,50.7c-1.2,1.1-2.4,2.1-3.6,3.2c-0.2-0.2-0.5-0.5-0.7-0.7c1.9-2.3,3.7-4.7,5.7-6.9
			c12.6-14.6,19.9-31.7,24.1-50.4c0.1-0.6,0.3-1.2,0.4-1.9c0.2-0.7,0.3-1.4,0.4-2c0.1-0.5,0.2-1,0.3-1.5c0.1-0.5,0.2-1,0.3-1.6
			c0.1-0.4,0.1-0.8,0.2-1.2c0.1-0.6,0.2-1.3,0.3-2c0.1-0.5,0.2-1,0.2-1.5c0.1-1.1,0.2-2.2,0.3-3.3c0-0.3,0-0.6,0.1-0.9
			c0-0.2,0-0.4,0-0.5c0-0.3,0-0.5,0-0.8c0-0.1,0-0.2,0-0.2c0-0.4,0-0.9,0-1.3c0-2.7-0.2-5.4-0.8-8.1c-1.1-5.2-2.4-7.8-4.3-9.2
			c0,3.7-0.2,7.8,0,11.8c0,0.9,0,1.8,0,2.7c0,0.4,0,0.9-0.1,1.3c-0.1,0.8-0.1,1.5-0.3,2.2c0,0.2,0,0.3-0.1,0.5
			c-0.1,0.6-0.2,1.3-0.4,1.9c0,0.2-0.1,0.5-0.2,0.8c-0.1,0.5-0.2,0.9-0.4,1.4c0,0.1-0.1,0.2-0.1,0.3c-0.1,0.5-0.3,0.9-0.4,1.4
			c-0.1,0.4-0.2,0.7-0.4,1.1c-0.1,0.2-0.1,0.4-0.2,0.6c-0.2,0.6-0.5,1.2-0.7,1.8c-0.1,0.2-0.2,0.4-0.3,0.6c-0.1,0.3-0.2,0.5-0.3,0.8
			c-0.2,0.4-0.3,0.8-0.5,1.2c-0.1,0.2-0.2,0.5-0.4,0.8c-0.2,0.5-0.5,1-0.8,1.5c-7.5,15.2-17.4,28.4-30.1,39.5
			c-0.7,0.6-1.4,1.6-2.3,1.7c-3.7,0.7-3.1,3.1-2.6,5.7c0.8,3.7,1.5,7.3,2.2,11c-0.3,0.1-0.7,0.2-1,0.3c-0.5-1.5-1.1-3-1.5-4.6
			c-2.8-10.9-5.8-21.7-8.2-32.6c-0.8-3.4-1.1-6.8-1.1-10.2c0-1.3,0-2.5,0.1-3.8c0-0.5,0.1-0.9,0.1-1.4c0-0.4,0.1-0.9,0.2-1.3
			c0.1-0.5,0.1-1.1,0.2-1.6c0.1-0.6,0.2-1.2,0.3-1.8c0-0.3,0.1-0.6,0.2-0.9c0.1-0.4,0.1-0.8,0.2-1.2c0.1-0.5,0.2-1,0.3-1.4
			c0.2-1,0.5-2.1,0.8-3.1c0.5-1.7,0.9-3.5,1.4-5.2c0.1-0.4,0.2-0.9,0.4-1.3c0.1-0.4,0.2-0.9,0.4-1.3c0.3-0.9,0.5-1.7,0.8-2.5
			c0.1-0.3,0.2-0.5,0.3-0.8c0.3-1,0.7-1.9,1-2.9c0.1-0.3,0.2-0.7,0.4-1c0.8-2,1.6-4,2.5-6c0.1-0.3,0.2-0.5,0.4-0.8s0.3-0.5,0.4-0.8
			c0.2-0.3,0.3-0.6,0.5-0.9c0.8-1.5,1.7-3,2.6-4.5c0.6-0.9,1.2-1.8,1.8-2.7c0.2-0.3,0.6-0.5,0.6-0.5c-3.2,9.9-6.4,20-9.7,30.1
			c0.4,0.2,0.8,0.3,1.2,0.5c0.5-0.9,1-1.8,1.6-2.7l1.3-2.2c0.1-0.2,0.2-0.3,0.3-0.5c0.4-0.6,0.7-1.2,1-1.8c0.1-0.2,0.2-0.4,0.3-0.6
			c0.4-0.7,0.8-1.4,1.1-2.1c3.7-7.2,7.1-14.6,10.7-21.8c2-4.2,5.2-7.3,9.1-9.8c6-3.9,13-1,16.6,3.1c4.3,5.1,7.2,10.8,8.9,17.1
			c1.1,4.1,1.5,8.2,1.5,12.2C555.3,284.2,555.3,284.6,555.3,285z M451.5,431.6c9.1,0.1,17.2,3.2,20.6,12.4c1.6,4.4,1.1,9.5,1.3,14.4
			c0.1,2.1,0,4.1-0.4,5.9c-1.1,5.7-4.5,10.3-9.6,13.9c2.4,1.8,4.7,3.4,6.7,5.3c1.3,1.3,2.2,2.7,2.9,4.2c1.4,3.1,1.6,6.5,1.7,9.9
			c0.2,5.5,0.1,11.1-0.5,16.5c-1.2,11.3-10.4,18.3-21.3,19.2c-15.5,1.3-31.1,1.9-46.7,2.8c-1.5,0.1-3,0.3-4.5,0.5
			c0-5.7,0-11.3,0-16.8c0.1-12.5,0.3-24.9,0.4-37.4c0.2-15.9,0.5-31.9,0.6-47.8c0-2.2,0.8-2.7,2.9-2.7c8.5,0,17-0.2,25.5-0.3
			c0.4,0,0.8,0,1.2,0C438.8,431.5,445.2,431.5,451.5,431.6z M467,416.6c-3.1,0.1-4-1.2-4.5-4.1c-0.8-5.1-2-10.2-3.2-15.2
			c-0.5-2.3-1.9-3-4.3-1.7c0.8,4.7,1.6,9.4,2.5,14c-0.3,0.1-0.6,0.2-0.9,0.2c-1.6-5.4-3.2-10.8-4.8-15.9c17.6-3,35.9-6.2,54.8-9.5
			c-0.5,10.5,3.2,20,5.9,29.8c0.6,2.1-0.9,2-2.3,2.1c-4.7,0-9.3,0-14,0.1C486.5,416.4,476.7,416.4,467,416.6z M772.2,417.5
			c2.1,0.3,2.7,1.1,2.7,3.1c-0.2,40.5-0.5,81.1-0.5,121.6c0,3.4-1.4,4.7-4.4,5.5c-24.5,7.2-49.2,13.7-74.5,17.4
			c-3.2,0.5-6.4,0.9-9.6,1.3c-1.6,0.2-3.1,0.4-4.7,0.6c-2.4,0.3-4.8,0.6-7.2,0.9c-1.8,0.2-3.6,0.4-5.4,0.7c-1.8,0.2-3.6,0.4-5.4,0.6
			c-6,0.7-12,1.4-17.9,2.1c-2.4,0.3-4.8,0.6-7.2,0.9c-1,0.1-2,0-3.1-0.3c2.3-1.2,4.5-2.5,6.7-3.7c0.9-0.5,1.8-1,2.7-1.5
			c1-0.5,2-1,3.1-1.5c0.3-0.1,0.5-0.2,0.8-0.3c0.1,0,0.2-0.1,0.3-0.1c0.4-0.2,0.9-0.3,1.3-0.5c0.5-0.2,1-0.4,1.6-0.5
			c0,0,0.1,0,0.1,0c0.1,0,0.3-0.1,0.4-0.1c0.1,0,0.1,0,0.2-0.1c0.3-0.1,0.6-0.2,0.9-0.2c0.2-0.1,0.4-0.1,0.6-0.2
			c0.3-0.1,0.7-0.2,1-0.2c0.2,0,0.5-0.1,0.7-0.1c0.5-0.1,0.9-0.2,1.4-0.2c0.3,0,0.5-0.1,0.8-0.1c36.3-3.4,71.8-11,106.7-21.2
			c2-0.6,2.8-1.2,2.8-3.5c0-37.6,0-75.2,0-112.9c0-0.3-0.1-0.6-0.2-1.2c-1.8-0.3-3.6-0.6-5.4-0.9c-1.8-0.3-3.6-0.6-5.3-0.9
			c-0.3-0.1-0.6-0.1-0.9-0.1c-3.9-0.7-7.7-1.3-11.6-1.9c-3.4-0.6-6.9-1.1-10.3-1.6c-1-0.1-2-0.3-2.9-0.4c-0.1,0-0.2,0-0.3,0
			c-1.2-0.2-2.4-0.3-3.6-0.5c-0.4-0.1-0.9-0.1-1.3-0.2c-1.6-0.2-3.1-0.4-4.7-0.6c-1.3-0.2-2.6-0.3-3.9-0.5c-1.3-0.2-2.6-0.3-3.9-0.5
			c-0.7-0.1-1.3-0.2-2-0.2c-1.9-0.2-3.8-0.4-5.7-0.6c-0.9-0.1-1.8-0.2-2.7-0.3c-0.5-0.1-1.1-0.1-1.6-0.2c-0.5,0-1.1-0.1-1.6-0.1
			c-1-0.1-1.9-0.2-2.9-0.2c-1-0.1-2.1-0.2-3.1-0.2c-1.1-0.1-2.2-0.2-3.4-0.2c-1.1-0.1-2.2-0.1-3.4-0.2c-0.7,0-1.5-0.1-2.2-0.1
			c-1,0-2.1-0.1-3.1-0.1c-0.8,0-1.7-0.1-2.5-0.1c-1.7-0.1-3.5-0.1-5.2-0.2c2.1-8.2,4.1-15.6,5.9-23.2c0.7-3,0.6-6.2,1.2-9.3
			c0-0.1,0.1-0.3,0.1-0.4c0-0.1,0.1-0.3,0.1-0.5c0.1-0.3,0.2-0.6,0.4-0.9c0,0,0-0.1,0.1-0.1c0,0,0.1-0.1,0.1-0.1c0,0,0,0,0-0.1
			c0.1-0.2,0.2-0.3,0.3-0.4c0.1-0.1,0.2-0.2,0.3-0.3c0,0,0,0,0.1-0.1c0.1-0.1,0.2-0.2,0.3-0.2c12.1-7.1,19.6-18.2,26.2-30
			c10.8-19.3,16.7-40.6,22-61.8c2.5-9.9,3-20.3,1.1-30.6c-2.8-15.6-11.4-27.3-23.8-36.7c-20.1-15.3-43-23.5-67.8-26.7
			c-11.9-1.5-24-1.6-35.9,1.6c-12.7,3.4-23.3,10.2-31.1,20.6c-3,4-3.8,9.7-5.2,14.8c-0.6,2.1-0.1,4.5-0.1,6.2
			c-5.4,1.1-10.6,2.2-16.1,3.3c-0.2-1.8-0.2-4.2-0.7-6.6c-0.1-0.5-0.2-1-0.3-1.6c-0.1-0.5-0.2-1-0.3-1.6c-0.1-0.4-0.1-0.7-0.2-1
			c-0.1-0.3-0.2-0.6-0.2-1c-0.1-0.2-0.1-0.5-0.2-0.7c-0.1-0.2-0.1-0.4-0.2-0.6c0,0,0,0,0,0c0-0.1-0.1-0.2-0.1-0.3
			c-0.1-0.2-0.1-0.4-0.2-0.5s-0.1-0.4-0.2-0.5c-0.1-0.2-0.1-0.3-0.2-0.5c-0.1-0.2-0.2-0.4-0.3-0.5c-7.9-15.2-21.1-23.5-37.4-27
			c-31.3-6.7-60.7-2.4-86.7,17c-16.4,12.3-28.5,28.2-33,48.8c-3,13.8-1.7,27.4,2.2,41c4.8,16.9,9.8,33.6,18.3,49.1
			c4.3,7.9,9.6,15.2,16.9,20.8c0.2,0.2,0.5,0.4,0.7,0.5c0.2,0.2,0.4,0.3,0.5,0.5c0.2,0.2,0.5,0.5,0.7,0.8c0.1,0.2,0.3,0.4,0.4,0.5
			c0.1,0.2,0.2,0.3,0.3,0.5c0.1,0.1,0.2,0.3,0.2,0.5c0.1,0.1,0.1,0.3,0.2,0.4c0.1,0.1,0.1,0.3,0.2,0.5c0.1,0.1,0.1,0.3,0.1,0.5
			c0,0.1,0.1,0.3,0.1,0.4c0,0.1,0,0.1,0,0.2c0,0.1,0,0.2,0,0.2c0,0.1,0,0.2,0,0.2v0c0,0.2,0,0.4,0.1,0.5c0,0.2,0,0.4,0,0.7v0.1
			c-0.1,11.7,1.4,23.1,5.6,33.7c-25,3.6-49.5,7.1-74.4,10.7c0,4.7,0,8.6,0,12.5c-0.4,33.9-0.7,67.9-1.2,101.8c0,1.7,0.1,2.8,2.1,3.2
			c17.9,4.4,35.7,9.5,53.8,13.1c1.1,0.2,2.3,0.5,3.4,0.7c1.4,0.3,2.7,0.5,4.1,0.8c1.4,0.2,2.7,0.5,4.1,0.7c1.6,0.3,3.2,0.5,4.8,0.8
			c0.5,0.1,1,0.2,1.5,0.2c0.5,0.1,1,0.2,1.5,0.2c4.9,0.8,9.9,1.5,14.9,2.2c3.4,0.5,6.8,1,10.1,1.5c1.7,0.2,3.5,0.5,5.2,0.8
			c1.7,0.2,3.5,0.5,5.2,0.8c2.3,0.4,4.7,0.9,6.8,1.9c4.6,2.1,9,4.5,13.4,7.2c-1.5-0.1-3-0.1-4.4-0.2c-1.2-0.1-2.3-0.1-3.5-0.2
			c-0.7,0-1.3-0.1-2-0.1c-1.5-0.1-3.1-0.2-4.6-0.3c-0.5,0-1-0.1-1.5-0.1c-1.5-0.1-3-0.2-4.6-0.4c-0.8-0.1-1.7-0.2-2.5-0.2
			c-0.8-0.1-1.6-0.2-2.4-0.2c-0.6-0.1-1.3-0.1-1.9-0.2c-0.3,0-0.7-0.1-1-0.1c-0.8-0.1-1.6-0.2-2.3-0.3c-0.6-0.1-1.1-0.1-1.7-0.2
			c-0.6-0.1-1.1-0.1-1.7-0.2c-0.3,0-0.7-0.1-1-0.1c-0.6-0.1-1.1-0.1-1.7-0.2c-0.3,0-0.6-0.1-0.9-0.1c-4.9-0.6-9.8-1.4-14.7-2.2
			c-1-0.1-2-0.3-2.9-0.5c-2.8-0.5-5.6-1-8.3-1.5c-1.1-0.2-2.2-0.4-3.3-0.6c-1.9-0.4-3.9-0.7-5.8-1.1c-1.9-0.4-3.7-0.8-5.6-1.1
			c-2.7-0.6-5.3-1.1-8-1.7c-1.2-0.3-2.5-0.6-3.7-0.8c-1.6-0.4-3.3-0.8-4.9-1.1c-1.3-0.3-2.6-0.6-3.8-0.9c-1.1-0.2-2.1-0.5-3.2-0.8
			c-0.7-0.2-1.4-0.4-2.1-0.5c-0.4-0.1-0.9-0.2-1.3-0.3c-0.3-0.1-0.6-0.2-0.9-0.2c-0.6-0.2-1.2-0.3-1.8-0.5c-1.5-0.4-3-0.8-4.4-1.1
			c0,0-0.1,0-0.1,0c-1.8-0.5-3.5-0.9-5.3-1.4c-1.6-0.5-3.3-0.9-4.9-1.4c-1.3-0.4-2.6-0.7-3.9-1.1c-2.1-0.6-4.2-1.2-6.4-1.8
			c-1.6-0.5-3.3-1-4.9-1.4c0-6,0-11.9,0-17.7c0.3-32.2,0.5-64.4,0.9-96.6c0-3.7,0.3-7.4,0.3-11c0-1.9,0.7-2.5,2.5-2.9
			c22.7-4.6,45.5-8.7,68.5-11c0.3,0,0.6-0.2,1.1-0.4c-0.9-6.2-2.5-12.3-2.7-18.5c-0.2-7.2-3.2-12-8.4-17.1c-9.9-9.6-16-22-21-34.8
			c-5.7-14.6-10.3-29.5-12.7-44.9c-3.6-22.5,1.7-43,14.6-61.6c17-24.4,40.6-38.5,69.5-43.3c19.6-3.3,39.2-2.2,57.6,6.4
			c14.3,6.6,24.9,17,31.2,31.6c0.3,0.8,0.5,1.7,1,2.4c0.4,0.5,1,0.9,1.6,1.3c0.4-0.5,1.2-1,1.2-1.6c2.7-23.3,19.5-33.2,39-40
			c12.4-4.3,25.5-3.8,38.3-2.5c25.7,2.6,49.5,10.9,71.2,25.2c24,15.8,33.2,38.6,30,66c-3.7,31.7-14.2,61.3-32.7,87.8
			c-4.5,6.5-9.9,12-16.2,16.7c-1.1,0.8-2,2.5-2.3,3.9c-1.3,5.9-2.3,11.9-3.4,17.9c-0.2,1-0.4,2.1-0.6,3.3c6.8,0.8,13.4,1.4,19.9,2.2
			c12.2,1.6,24.5,3,36.7,4.9C751.3,413.7,761.7,415.8,772.2,417.5z M755.1,498.3c-1.8-0.9-3.7-2.5-5.5-2.4c-1.7,0-3.5,1.7-5.8,2.6
			c3.1-5,0.1-7.7-3.9-10.5c5.9-0.7,5.9-0.7,8.5-5.5c1.9,3.6,4.3,6.4,9.2,5C755.2,490.9,753.1,494.1,755.1,498.3z M386.1,498.4
			c-4-2.2-7.6-3.3-11.3,0.6c1.5-4.5,1.3-8.1-3.3-10.7c4.8,0.6,8-1.1,10-5.7c1,4,2.6,6.7,8.1,4.8C387,491.2,382.9,493.6,386.1,498.4z
			 M410.1,167.3c-5.1-13.5-6.2-27.8-8.5-41.8c-0.1-0.7,0.7-2,1.4-2.3c3.7-1.4,7.5-2.6,11.6-4c1.3,14.5,2.6,28.9,4,43.2
			c0.5,5.7,1.2,11.4,1.9,17.1c0.3,2.1-0.3,3.3-2.4,3.7c-1.4,0.3-2.7,0.8-4,1.2c-5.7,1.8-5.5,1.7-8.7-3.6
			c-7.9-12.9-16-25.7-23.9-38.6c-1.7-2.6-3.2-5.3-5.1-8.4c4-1.5,7.8-3.1,11.7-4.5c0.5-0.2,1.8,0.9,2.2,1.6
			c6.3,12.4,12.5,24.9,18.8,37.3c0.4,0.7,0.8,1.4,1.9,1.8C410.6,169,410.5,168.1,410.1,167.3z M490.4,163.8c-3.6,0.5-7.3,1-10.8,1.5
			c-2.6-16.2-5.1-32.1-7.7-48.3c-3.7,0.5-7.2,1-10.9,1.5c-0.5-3.7-0.8-6.9-1.3-10.4c11.4-1.9,22.5-3.8,33.7-5.8
			c0.5,3.6,1,6.5,1.3,9.5c0,0.6-1,1.8-1.6,1.9c-2.7,0.6-5.5,0.8-8.7,1.2C486.5,131.3,488.4,147.4,490.4,163.8z M464.3,152.6
			c2.7,9.9-5.3,21.4-17.9,21.2c-9.3-0.2-14.2-3.9-16.5-12.9c-2.5-10-4.9-19.9-7.2-29.9c-1.6-6.9,2.8-14.2,10.6-17.8
			c4.8-2.2,9.8-2.4,14.9-0.8c5,1.6,8.2,4.9,9.4,10.2C459.7,132.6,461.6,142.7,464.3,152.6z M531.5,136.3c3.4,8,6.6,16,10.2,24.8
			c-3.3,0-6.2-0.3-9.1,0.1c-3.7,0.5-5.2-0.7-6.3-4.3c-1.9-6.2-4.5-12.2-7-18.2c-0.4-0.8-1.7-1.3-2.6-1.9c-0.3,0.2-0.5,0.4-0.8,0.6
			c0.7,8,1.3,16.1,2,24.5c-4.5,0.2-8.5,0.4-12.9,0.6c-1.4-20.3-2.9-40.3-4.3-61.3c8.3-0.1,16.5-0.6,24.6,0
			c5.7,0.4,9.5,5.2,10.4,10.9c0.5,3.1,0.8,6.2,0.9,9.4c0.1,3.9-1,7.6-4.2,10.1C530.5,133.1,530.8,134.4,531.5,136.3z M570.9,124.8
			c0,3.3,0.1,6.3-0.1,9.3c-0.1,0.7-1.5,1.7-2.3,1.8c-3.2,0.2-6.5,0.1-10,0.1v13.1h17.5c0,3.6,0.1,6.8-0.1,10c0,0.6-1.2,1.5-1.9,1.5
			c-8.9,0.1-17.8,0.1-27.1,0.1c-0.8-20.5-1.6-40.9-2.4-61.7h31.2c-0.2,3.8-0.3,7.4-0.5,11.3h-16.9v14.5H570.9z M619.2,111.2
			c-3-0.5-5.2,0.7-5.6,3.9c-1.4,10.9-2.7,21.9-3.8,32.9c-0.3,3,1.5,4.7,4.4,5c2.9,0.3,4.5-0.9,5-3.8c0.4-2,0.3-5,1.6-5.8
			c1.5-0.9,4.1,0.1,6.3,0.4c1.5,0.2,3,0.5,4.7,0.8c-0.8,5.2-0.1,10.4-3.8,14.6c-4.6,5.2-13.3,6.6-20.7,3.4c-6.6-3-10.3-9.7-9.5-16.9
			c1.2-10.4,2.3-20.9,3.4-31.3c1-9.6,8.4-15.5,17.8-13.9c3.3,0.6,6.9,1.5,9.7,3.2c4.8,2.9,7.1,7.4,5.9,13.3c-0.4,2.2-0.7,4.4-1.2,7
			c-3.3-0.4-6.2-0.8-9.1-1.1c-1.7-0.2-2.2-1-1.9-2.6c0.3-1.2,0.3-2.4,0.4-3.5C623.3,113.6,622,111.7,619.2,111.2z M651.2,157.6
			c4.1,0.6,8.2,1.6,12.5,2.4c-0.7,2.3-1.4,4.4-1.8,6.6c-0.5,2.9-1.8,3.7-4.7,3.1c-6.2-1.3-12.6-2.2-18.8-3.4
			c-0.8-0.2-1.9-1.5-1.8-2.1c2.6-19.1,5.3-38.2,8.1-57.2c0.1-0.5,0.3-1,0.5-1.9c4.2,0.7,8.4,1.4,12.9,2.1c-3.1,16-6,31.5-9,47
			C648.6,156.2,648.8,157.3,651.2,157.6z M681,163.4c0.9,1.3,3.1,2.5,4.5,2.3c1.5-0.3,3.3-2.1,3.8-3.6c3.4-11.6,6.4-23.4,9.6-35.1
			c0.8-3,1.7-6,2.7-9.2c4.1,1.2,7.7,2.2,11.8,3.3c-1,3.4-1.9,6.8-2.9,10.1c-3.2,11.2-6.4,22.5-9.7,33.7c-2.4,8.4-9.9,13.1-18,11.3
			c-9.9-2.2-15.6-9.4-13.7-18.4c3.3-15.3,7.2-30.5,10.9-46.2c3.9,0.9,7.7,1.9,11.7,2.8c-2.6,10.4-5.1,20.7-7.6,30.9
			c-1.1,4.3-2.4,8.6-3.3,12.9C680.4,160,680.2,162.2,681,163.4z M739.8,182.2c-2.8,5.2-7.6,7.7-13.4,6.3c-7.1-1.8-14-4.4-21-6.6
			c5.6-19.5,11.2-38.8,16.8-58.5c6.7,2.4,12.9,4.4,19.1,6.8c5.8,2.3,10.1,6.6,10.2,13c0.1,6.9-1.5,13.4-8.8,16.7
			c-0.3,0.1-0.5,0.3-0.8,0.5c-0.1,0-0.1,0.2-0.4,0.6C746,168.3,743.5,175.4,739.8,182.2z M780,203.1c-0.7,26-2.4,51.9-4.3,77.9
			c-1.8,24.3-5.8,48.4-13.1,71.7c-4.6,14.8-10.7,29.2-16.1,43.8c-0.8,2.3-2,3.5-4.6,2.5c-1.4-0.5-2.9-0.4-4.7-0.6
			c12.4-27,21.1-54.5,25.8-83.2c4.5-27.9,8-56,8.3-84.3c0.3-32.3,0.4-64.6,0.8-96.9c0.1-4.5-1.2-6.9-5.5-9.1
			c-36.5-18.5-75.1-30.8-115.3-38.2c-37.9-7-76.1-9.2-114.6-7.7c-24.4,1-48.7,4.2-72.7,9.5c-28.5,6.3-56.2,15-82.9,26.7
			c-7.7,3.4-15.2,7.3-22.7,11.1c-1,0.5-1.9,2.1-1.9,3.2c-0.2,13-0.4,26-0.4,39c0.1,13.3,0.3,26.7,0.6,40c0.3,15,0.1,30,1.4,44.8
			c1.8,20.1,4.4,40.2,7.3,60.2c4.3,29,13,56.8,22.9,84.3c0.1,0.3,0.1,0.6,0.1,1.3c-1.9,0.3-3.7,0.8-5.6,0.9c-0.7,0-1.8-0.8-2-1.5
			c-7.5-21.6-15.9-43-20.6-65.5c-4.3-20.6-7.4-41.3-9.1-62.3c-3.6-45.9-2.2-91.9-3.3-137.8c-0.2-7.6,2.1-11.4,9-14.9
			c21.9-11.3,44.5-20.7,68.2-27.4c17.2-4.9,34.7-9.3,52.3-12.7c14.7-2.8,29.8-4.4,44.7-5.7c13.8-1.2,27.7-1.9,41.5-1.9
			c20.8-0.1,41.5,1.7,62.2,4.3c26.4,3.2,52.2,8.7,77.7,16.4c25.8,7.7,50.2,18.7,74,31c1,0.5,2.1,2.2,2.1,3.4
			C780,151.3,780.7,177.2,780,203.1z"/>
		<path class="st0" d="M742.7,160c7.2-3.3,8.9-9.9,8.8-16.7c-0.1-6.5-4.3-10.7-10.2-13c-6.1-2.4-12.4-4.4-19.1-6.8
			c-5.7,19.7-11.2,38.9-16.8,58.5c7,2.3,13.9,4.8,21,6.6c5.7,1.4,10.5-1.1,13.4-6.3c3.7-6.8,6.2-13.9,1.7-21.2
			c0.3-0.4,0.3-0.6,0.4-0.6C742.1,160.3,742.4,160.1,742.7,160z M728.2,177.8c-2.3,0.3-4.9-0.9-7.2-1.9c-0.5-0.2-0.2-2.7,0.2-4
			c1.1-3.6,2.4-7.1,3.7-11c2,0.8,3.9,1.6,5.7,2.4c0.5,0.2,0.9,0.6,1.2,1C733.8,166.7,731.2,177.4,728.2,177.8z M735.5,152.6
			c-2.6-0.4-5.2-0.8-8.1-1.3c1.5-4.9,2.8-8.9,4.1-13.4c2.8,1.4,7.1,1,7.2,4.5C739,145.8,736.7,149.2,735.5,152.6z"/>
		<path class="st0" d="M713.4,121.1c-1,3.4-1.9,6.8-2.9,10.1c-3.2,11.2-6.4,22.5-9.7,33.7c-2.4,8.4-9.9,13.1-18,11.3
			c-9.9-2.2-15.6-9.4-13.7-18.4c3.3-15.3,7.2-30.5,10.9-46.2c3.9,0.9,7.7,1.9,11.7,2.8c-2.6,10.4-5.1,20.7-7.6,30.9
			c-1.1,4.3-2.4,8.6-3.3,12.9c-0.3,1.6-0.5,3.8,0.3,5c0.9,1.3,3.1,2.5,4.5,2.3c1.5-0.3,3.3-2.1,3.8-3.6c3.4-11.6,6.4-23.4,9.6-35.1
			c0.8-3,1.7-6,2.7-9.2C705.7,119,709.3,120,713.4,121.1z"/>
		<path class="st0" d="M663.6,160c-0.7,2.3-1.4,4.4-1.8,6.6c-0.5,2.9-1.8,3.7-4.7,3.1c-6.2-1.3-12.6-2.2-18.8-3.4
			c-0.8-0.2-1.9-1.5-1.8-2.1c2.6-19.1,5.3-38.2,8.1-57.2c0.1-0.5,0.3-1,0.5-1.9c4.2,0.7,8.4,1.4,12.9,2.1c-3.1,16-6,31.5-9,47
			c-0.4,2.1-0.2,3.2,2.2,3.5C655.3,158.3,659.4,159.2,663.6,160z"/>
		<path class="st0" d="M634.8,116.9c-0.4,2.2-0.7,4.4-1.2,7c-3.3-0.4-6.2-0.8-9.1-1.1c-1.7-0.2-2.2-1-1.9-2.6
			c0.3-1.2,0.3-2.4,0.4-3.5c0.2-3-1.1-4.9-3.9-5.4c-3-0.5-5.2,0.7-5.6,3.9c-1.4,10.9-2.7,21.9-3.8,32.9c-0.3,3,1.5,4.7,4.4,5
			c2.9,0.3,4.5-0.9,5-3.8c0.4-2,0.3-5,1.6-5.8c1.5-0.9,4.1,0.1,6.3,0.4c1.5,0.2,3,0.5,4.7,0.8c-0.8,5.2-0.1,10.4-3.8,14.6
			c-4.6,5.2-13.3,6.6-20.7,3.4c-6.6-3-10.3-9.7-9.5-16.9c1.2-10.4,2.3-20.9,3.4-31.3c1-9.6,8.4-15.5,17.8-13.9
			c3.3,0.6,6.9,1.5,9.7,3.2C633.6,106.5,635.9,111.1,634.8,116.9z"/>
		<path class="st0" d="M576,159.1c0,0.6-1.2,1.5-1.9,1.5c-8.9,0.1-17.8,0.1-27.1,0.1c-0.8-20.5-1.6-40.9-2.4-61.7h31.2
			c-0.2,3.8-0.3,7.4-0.5,11.3h-16.9v14.5h12.5c0,3.3,0.1,6.3-0.1,9.3c-0.1,0.7-1.5,1.7-2.3,1.8c-3.2,0.2-6.5,0.1-10,0.1v13.1h17.5
			C576.1,152.7,576.2,155.9,576,159.1z"/>
		<path class="st0" d="M531.5,136.3c-0.8-1.9-1.1-3.2,0.9-4.7c3.2-2.5,4.3-6.2,4.2-10.1c-0.1-3.1-0.4-6.3-0.9-9.4
			c-0.9-5.8-4.7-10.5-10.4-10.9c-8.1-0.6-16.3,0-24.6,0c1.5,20.9,2.9,41,4.3,61.3c4.4-0.2,8.5-0.4,12.9-0.6
			c-0.7-8.5-1.4-16.5-2-24.5c0.3-0.2,0.5-0.4,0.8-0.6c0.9,0.6,2.2,1.1,2.6,1.9c2.5,6,5.1,12,7,18.2c1.1,3.6,2.6,4.8,6.3,4.3
			c2.9-0.4,5.8-0.1,9.1-0.1C538.1,152.2,534.9,144.2,531.5,136.3z M524.1,124.5c-1.9,3.2-5.1,2.1-8.3,2.4c-0.3-5.3-0.7-10.2-1-15.4
			c2.6-0.7,5.2-1.4,7.5,0.6C524.2,113.5,525.4,122.3,524.1,124.5z"/>
		<path class="st0" d="M494.8,111.9c0,0.6-1,1.8-1.6,1.9c-2.7,0.6-5.5,0.8-8.7,1.2c2,16.2,3.9,32.3,5.9,48.7
			c-3.6,0.5-7.3,1-10.8,1.5c-2.6-16.2-5.1-32.1-7.7-48.3c-3.7,0.5-7.2,1-10.9,1.5c-0.5-3.7-0.8-6.9-1.3-10.4
			c11.4-1.9,22.5-3.8,33.7-5.8C494,105.9,494.6,108.9,494.8,111.9z"/>
		<path class="st0" d="M464.3,152.6c-2.7-9.9-4.6-20-6.8-30c-1.2-5.3-4.4-8.5-9.4-10.2c-5-1.7-10-1.4-14.9,0.8
			c-7.8,3.6-12.2,10.9-10.6,17.8c2.3,10,4.7,20,7.2,29.9c2.3,9,7.2,12.8,16.5,12.9C459,174,467,162.5,464.3,152.6z M448.2,162.9
			c-2.8,0.7-4.8-0.7-5.6-3.2c-1.1-3.3-1.8-6.7-2.5-10c-1.5-7-3.1-13.9-4.5-20.9c-0.7-3.3,0.6-5.3,3.6-6.2c3-0.9,5.5,0.3,6.2,3.5
			c2.5,10.2,4.8,20.4,7.1,30.6c0.1,0.3,0.1,0.6,0.1,0.6C452.6,160.6,450.9,162.3,448.2,162.9z"/>
		<path class="st0" d="M418,183.1c-1.4,0.3-2.7,0.8-4,1.2c-5.7,1.8-5.5,1.7-8.7-3.6c-7.9-12.9-16-25.7-23.9-38.6
			c-1.7-2.6-3.2-5.3-5.1-8.4c4-1.5,7.8-3.1,11.7-4.5c0.5-0.2,1.8,0.9,2.2,1.6c6.3,12.4,12.5,24.9,18.8,37.3c0.4,0.7,0.8,1.4,1.9,1.8
			c-0.2-0.9-0.3-1.8-0.7-2.7c-5.1-13.5-6.2-27.8-8.5-41.8c-0.1-0.7,0.7-2,1.4-2.3c3.7-1.4,7.5-2.6,11.6-4c1.3,14.5,2.6,28.9,4,43.2
			c0.5,5.7,1.2,11.4,1.9,17.1C420.7,181.5,420.2,182.6,418,183.1z"/>
		<path class="st0" d="M725.2,515.9c0.6,0,1.2,0.2,1.7,0.2v20.1c-20.6-1-40.7-2-60.5-2.9V430.8c1.3,0.1,2.6,0.2,3.9,0.2
			c3.5,0.2,7,0.4,10.5,0.6c7.5,0.4,15.1,0.9,22.7,1.3c6.8,0.4,13.6,0.7,20.5,1c2.1,0.1,3,0.6,3.1,3c0.1,5.8,0.5,11.6,0.9,17.5
			c-12.2-0.8-24-1.5-36.4-2.3v18.5c4.3,0.3,8.7,0.7,13,1c3.6,0.3,7.1,0.5,10.7,0.7c1.5,0.1,2.8,0.2,2.8,2.3c-0.1,6,0,12.1,0,18.6
			c-9.2-0.9-17.8-1.7-27.1-2.5c0,7.4,0,14.4,0,21.4c0,2.4,1.8,1.7,3.1,1.8C704.3,514.5,714.7,515.2,725.2,515.9z"/>
		<path class="st0" d="M653.3,531.4c0.1,0.3,0.1,0.6,0.3,1.4c-1.6,0-3,0-4.5,0c-7.2,0-14.3-0.2-21.5,0c-2.2,0-3-0.8-3.7-2.6
			c-3.6-8.8-7.3-17.5-11-26.3c-0.2-0.5-0.5-0.9-1-1.8c-0.6,1.1-1,1.9-1.4,2.8c-4,8.6-7.9,17.3-12,25.9c-0.4,0.9-1.8,2-2.7,2
			c-8.7,0.1-17.3,0-26,0c-0.3,0-0.6-0.2-1.2-0.4c0.3-0.8,0.5-1.6,0.9-2.3c8-14.1,15.9-28.3,24-42.3c0.9-1.5,1.7-3,2.6-4.5
			c0.8-1.5,1.2-2.7,1.1-3.9c-0.1-1.1-0.5-2.2-1.2-3.4c-2.1-3.8-4.3-7.7-6.4-11.5c-4.9-9-9.8-18.1-14.8-27.1c-1.5-2.7-3.1-5.3-5-8.4
			c4.4,0,8.3,0,12.3,0c5,0,10,0,15-0.2c2.1-0.1,3,0.6,3.8,2.6c3.3,8.6,6.8,17.1,10.2,25.6c0.3,0.7,0.8,1.3,1.6,2.6
			c2.3-5.4,4.3-10.1,6.3-14.8c0.1-0.2,0.2-0.5,0.3-0.7c1.9-4.3,3.7-8.7,5.7-13c0.4-0.9,1.6-2.1,2.4-2c8.9,0.4,17.9,0.9,27.4,1.5
			c-3.8,6.7-7.2,13-10.8,19.3c-2.8,4.9-5.5,9.9-8.3,14.8c-2.6,4.7-5.2,9.4-7.8,14.1c-0.1,0.2-0.2,0.5-0.3,0.9
			c-0.1,0.8,0,1.9,0.4,2.6C636.3,498.3,644.9,514.9,653.3,531.4z"/>
		<path class="st0" d="M563.5,487.6c0-2.8,0-5.5,0-8.2c0,0,0,0,0,0v-0.2c0-5,0-10,0-14.9c0-3.6,0-7.3,0-10.9
			c0.1-5.5-2-10.1-5.4-14.2c-5.7-6.9-13.5-9.4-21.9-10.8c-12.7-2-24.8-0.4-35.7,6.8c-6.8,4.6-11.4,10.8-11.6,19.3
			c0,3.2-0.1,6.5-0.1,9.8c0,5-0.1,10-0.1,14.9c0,2.8,0,5.6,0,8.4c0,5.9,0,11.7,0.1,17.6c0.1,8.9,3.6,16.4,11.2,21.2
			c15.1,9.6,31.2,9.6,47.2,2.7c11-4.7,16.6-13.7,16.4-26C563.5,498,563.5,492.8,563.5,487.6z M538.1,498.6c0,2.3-0.3,4.5-0.6,6.8
			c-0.8,4.9-3.8,7.8-8.8,8c-2.2,0.1-4.6,0-6.8-0.5c-4.9-1.1-7.2-3.9-7.2-9c-0.1-7.5,0-15,0-22.4c0-6.9,0-13.9,0-20.8
			c0-10.3,9.6-16.1,18.9-11.3c3.8,1.9,4.9,5.4,4.9,9.3C538.5,471.9,538.3,485.2,538.1,498.6z"/>
		<path class="st0" d="M474.8,497.6c-0.1-3.4-0.4-6.9-1.7-9.9c-0.7-1.5-1.6-2.9-2.9-4.2c-2-1.9-4.4-3.4-6.7-5.3
			c5.1-3.6,8.5-8.2,9.6-13.9c0.4-1.9,0.5-3.8,0.4-5.9c-0.2-4.8,0.3-10-1.3-14.4c-3.4-9.2-11.5-12.3-20.6-12.4
			c-6.4-0.1-12.7,0-19.1,0.1c-0.4,0-0.8,0-1.2,0c-8.5,0.1-17,0.2-25.5,0.3c-2,0-2.9,0.5-2.9,2.7c-0.1,15.9-0.4,31.9-0.6,47.8
			c-0.2,12.5-0.3,24.9-0.4,37.4c0,5.6,0,11.1,0,16.8c1.6-0.2,3-0.4,4.5-0.5c15.6-0.9,31.2-1.5,46.7-2.8c10.9-0.9,20-8,21.3-19.2
			C474.9,508.6,475,503.1,474.8,497.6z M429,451c4.6,0,9.1-0.3,13.6,0.1c2.9,0.2,4.8,2.5,5.2,5.4c0.3,1.9,0.5,3.9,0.4,5.8
			c-0.3,4.8-3.1,8-7.9,8.7c-3.7,0.5-7.4,0.5-11.3,0.7V451z M449.4,508.6c-0.1,3.2-2,5.5-5.3,6c-5.1,0.8-10.2,1.3-15.7,2v-27.6
			c5.6,0.3,11.2,0.3,16.6,1.1c1.5,0.2,3.6,2.6,3.8,4.2C449.5,499.1,449.6,503.9,449.4,508.6z"/>
		<path class="st1" d="M780,203.1c-0.7,26-2.4,51.9-4.3,77.9c-1.8,24.3-5.8,48.4-13.1,71.7c-4.6,14.8-10.7,29.2-16.1,43.8
			c-0.8,2.3-2,3.5-4.6,2.5c-1.4-0.5-2.9-0.4-4.7-0.6c12.4-27,21.1-54.5,25.8-83.2c4.5-27.9,8-56,8.3-84.3
			c0.3-32.3,0.4-64.6,0.8-96.9c0.1-4.5-1.2-6.9-5.5-9.1c-36.5-18.5-75.1-30.8-115.3-38.2c-37.9-7-76.1-9.2-114.6-7.7
			c-24.4,1-48.7,4.2-72.7,9.5c-28.5,6.3-56.2,15-82.9,26.7c-7.7,3.4-15.2,7.3-22.7,11.1c-1,0.5-1.9,2.1-1.9,3.2
			c-0.2,13-0.4,26-0.4,39c0.1,13.3,0.3,26.7,0.6,40c0.3,15,0.1,30,1.4,44.8c1.8,20.1,4.4,40.2,7.3,60.2c4.3,29,13,56.8,22.9,84.3
			c0.1,0.3,0.1,0.6,0.1,1.3c-1.9,0.3-3.7,0.8-5.6,0.9c-0.7,0-1.8-0.8-2-1.5c-7.5-21.6-15.9-43-20.6-65.5
			c-4.3-20.6-7.4-41.3-9.1-62.3c-3.6-45.9-2.2-91.9-3.3-137.8c-0.2-7.6,2.1-11.4,9-14.9c21.9-11.3,44.5-20.7,68.2-27.4
			c17.2-4.9,34.7-9.3,52.3-12.7c14.7-2.8,29.8-4.4,44.7-5.7c13.8-1.2,27.7-1.9,41.5-1.9c20.8-0.1,41.5,1.7,62.2,4.3
			c26.4,3.2,52.2,8.7,77.7,16.4c25.8,7.7,50.2,18.7,74,31c1,0.5,2.1,2.2,2.1,3.4C780,151.3,780.7,177.2,780,203.1z"/>
		<path class="st2" d="M574.3,380.5c-1.5,6-2.9,12.1-4.4,18.5C568.8,396.9,571.1,387.3,574.3,380.5z"/>
		<path class="st2" d="M542.2,404.8c-0.4,0.1-0.8,0.2-1.1,0.3c-3.6-7.7-5.5-15.9-7.3-24.2c0.4-0.1,0.7-0.2,1.1-0.3
			C537.3,388.7,539.7,396.7,542.2,404.8z"/>
		<path class="st2" d="M636.1,339.7c-2.7,8.1-5.8,16-8.9,24c-0.6,1.6-1.9,3-2.9,4.5c-0.3-0.2-0.6-0.3-0.9-0.5
			c1.5-3.7,3.1-7.3,4.3-11c2.3-6.7,4.6-13.5,6.4-20.3c0.6-2.2,0.3-5-0.6-7.2c-1.8-4.4-6.8-5.1-10.1-1.7c-4.8,5-6.9,11.4-9.1,17.7
			c-1.9,5.5-3.2,11.3-5,17.6c-0.2-1.4-0.4-2.2-0.4-3c0.4-11.1,4.3-21.1,9.6-30.6c1.8-3.2,4.4-5.5,8.4-5.9c5.7-0.6,9.9,2.5,10.1,8.2
			C637.1,334.1,637,337.1,636.1,339.7z"/>
		<path class="st1" d="M639.2,552.8c-8.8,4.8-17.5,9.7-26.4,14.3c-12.9,6.8-26,13.2-39.8,18.1c-6.3,2.2-11.9,1.9-18.1-0.3
			c-21.8-7.8-41.7-19.3-62.1-30c-0.8-0.4-1.5-0.8-2.3-1.2c-0.7-0.4-1.4-0.8-2-1.5c7,0.3,13.8-1.1,20.7,2.3
			c17.3,8.4,35,15.9,52.5,23.7c1.1,0.5,2.8,0.5,4,0.1c6.7-2.3,13.6-4.4,20.1-7.4c12.2-5.7,24.2-12,36.3-18c0.9-0.4,1.8-0.9,2.7-0.9
			c4.8-0.1,9.5,0,14.2,0C639.1,552.2,639.2,552.5,639.2,552.8z"/>
		<path class="st2" d="M601.7,294.3c-0.5,12-5.2,22.7-10.5,33.1c-2.3,4.6-4.9,9.2-7.3,13.7c-0.5,1-1.3,1.8-2,2.8
			c-0.3-0.2-0.7-0.4-1-0.6c2.5-4.9,5.1-9.9,7.7-15c-9-0.8-8.6-2.7-13.3-10.9c-0.8,2.4-1.4,4.3-2,6.2c-0.3,0-0.6,0-0.9,0.1
			c-0.3-2.1-1.1-4.3-0.7-6.3c0.4-2,1.9-3.8,2.9-5.6c-0.2-0.2-0.5-0.3-0.7-0.5c-1,0.8-1.9,1.7-3,2.6c-3.3-6.5-3.4-13.2-2.5-19.8
			c1.8-12.8-1.2-24.5-7.3-35.6c-1.5-2.7-3.4-5.7-0.9-8.7c2.9-3.5,6.9-5,11.3-4.3c7.5,1.2,9.3,3.7,9.5,11.4
			c0.2,8.4-3.2,15.8-5.5,23.6c-0.5,1.7-0.8,3.4-1.1,5.1c0.3,0.1,0.7,0.3,1,0.4c1.9-3.1,3.8-6.2,5.8-9.3c0.4,0.2,0.7,0.3,1.1,0.5
			c-2.1,5.5-4.2,10.9-6.3,16.4c0.2,0.1,0.3,0.2,0.5,0.4c1.2-1.2,2.3-2.5,3.4-3.7c0.3,0.1,0.6,0.3,0.9,0.4
			c-2.3,5.3-4.6,10.6-6.9,15.8c0.3,0.2,0.6,0.4,0.9,0.6c2.2-3.2,4.7-6.4,6.7-9.8c2-3.4,3.8-7.1,5.4-10.7c1.7-3.7,3-7.5,5-11.1
			c0.3,10.4-4,19.8-7.1,29.3c2.3,0.2,4-1.4,6-5.8c1.3-2.8,2.5-5.6,4.2-8.3c-0.2,8.6-4.4,16.2-5.6,24.6c4-9,10.3-17,10.8-27.4
			c0.4,0,0.8,0.1,1.2,0.2C601.5,290.1,601.8,292.2,601.7,294.3z"/>
		<path class="st2" d="M551.9,306.4c-4.6,20-14.7,36.6-29.4,50.7c-1.1,1.1-2.4,2.1-3.6,3.2c-0.2-0.2-0.5-0.5-0.7-0.7
			c1.9-2.3,3.7-4.7,5.7-6.9c12.6-14.6,19.9-31.7,24.1-50.4c2-8.8,3.7-17.6,1.8-26.7c-1.1-5.2-2.4-7.8-4.3-9.2c0,3.7-0.2,7.8,0,11.8
			c0.3,7.5-2.2,14.2-5.4,20.8c-7.5,15.2-17.4,28.4-30.1,39.5c-0.7,0.6-1.4,1.6-2.3,1.7c-3.7,0.7-3.1,3.1-2.6,5.6
			c0.8,3.7,1.5,7.4,2.2,11c-0.3,0.1-0.7,0.2-1,0.3c-0.5-1.5-1.1-3-1.5-4.6c-2.8-10.9-5.8-21.7-8.2-32.6c-2-8.9-1.1-17.9,1.2-26.7
			c2.6-9.7,5.6-19.3,11-27.9c0.6-0.9,1.2-1.8,1.8-2.7c0.2-0.3,0.6-0.5,0.6-0.5c-3.2,9.9-6.4,20-9.7,30.1c0.4,0.2,0.8,0.3,1.2,0.5
			c1.9-3.3,4-6.6,5.7-10c3.7-7.2,7.1-14.6,10.7-21.8c2-4.2,5.2-7.3,9.1-9.8c6-3.9,13-1,16.6,3.1c4.3,5.1,7.2,10.8,8.9,17.1
			C556.9,283.4,554.6,294.8,551.9,306.4z"/>
		<path class="st2" d="M573.3,351c0.4-1.5,0-3.4-0.7-4.8c-3.1-6.1-6.5-12.1-9.8-18.2c-1-1.9-1.7-3.9-2.7-6.1
			c-0.7,0.9-1.1,1.3-1.4,1.8c-6.1,9.8-12.1,19.7-18.5,29.3c-2.2,3.2-2.6,6.2-1.6,9.7c3.8,12.6,7.6,25.3,11.2,37.9
			c0.7,2.4,0.9,4.9,1.3,7.6h10.9c0.2-0.2,0.5-0.4,0.8-0.6c-4-2.2-3-5.2-2.2-8.4C564.9,383.2,569.2,367.1,573.3,351z M558.4,382.1
			c-0.9,3.4-1.6,6.9-2.6,11.1c-0.6-1.2-1-1.8-1.2-2.4c-2.5-9.7-5.1-19.4-7.5-29.2c-0.4-1.5-0.5-3.5,0.3-4.6c4-6,8.3-11.8,12.6-17.8
			c2.1,3.6,4.2,6.8,6.1,10.2c0.5,0.9,0.5,2.3,0.3,3.3C563.7,362.5,561,372.3,558.4,382.1z"/>
		<path class="st2" d="M663.9,381.3c-0.1,0.4-0.3,0.9-0.4,1.3c-7.9-2.6-15.8-5.2-23.8-7.8c0.1-0.4,0.2-0.8,0.3-1.1
			C648.4,374.9,656.1,378,663.9,381.3z"/>
		<path class="st2" d="M657.7,415.9c3.1-8.1,6.1-15.8,9.1-23.4C668.6,397,661.8,413.6,657.7,415.9z"/>
		<path class="st2" d="M595.9,415.9c-0.2,0.3-0.3,0.7-0.5,1c-10.7-3.3-20.6-8.2-29.5-15c0.1-0.4,0.3-0.7,0.4-1.1c1,0,2.2-0.4,3,0
			c8.7,4.7,17.4,9.6,26.1,14.4C595.6,415.3,595.7,415.7,595.9,415.9z"/>
		<path class="st2" d="M519.2,412c-0.4,0.1-0.7,0.2-1.1,0.3c-3.7-8.6-7.2-17.3-7.2-26.9c0-1,1.2-2.1,2.3-2.8
			c-1.6,5.4,1,10.1,2.1,14.9C516.4,402.3,517.9,407.2,519.2,412z"/>
		<path class="st2" d="M450.3,416c-0.4,0.1-0.9,0.2-1.3,0.4c-2.7-6.2-3.7-12.9-4.9-19.5c0.2-0.1,0.5-0.1,0.8-0.2
			C446.6,403.1,448.5,409.5,450.3,416z"/>
		<path class="st2" d="M486.4,360.9c1.2-1.6,2.3-3,3.5-4.5C491.4,359.4,490.6,360.6,486.4,360.9z"/>
		<path class="st2" d="M511.2,366.7c-5.8,5-63.8,14.3-67.6,11.2C466,374.2,488.3,370.5,511.2,366.7z"/>
		<path class="st2" d="M527.5,367c-0.4,0.7-0.6,2.1-1.5,2.7c-3.2,2.3-6.3,5.3-9.9,6.4c-11.6,3.2-23.4,6.3-35.3,8.2
			c-10.8,1.8-21.9,2-32.9,2.8c-1.3,0.1-2.8-0.8-4.2-1.2C472.2,380.4,500.9,379.3,527.5,367z"/>
		<path class="st2" d="M510.2,416.3c-4.7,0-9.3,0-14,0.1c-9.8,0.1-19.5,0-29.3,0.2c-3.1,0.1-4-1.2-4.5-4.1c-0.8-5.1-2-10.2-3.1-15.2
			c-0.5-2.3-2-3-4.3-1.7c0.8,4.7,1.7,9.3,2.5,14c-0.3,0.1-0.6,0.2-0.9,0.2c-1.6-5.4-3.2-10.8-4.8-15.9c17.6-3,35.9-6.2,54.8-9.5
			c-0.5,10.5,3.2,20,5.9,29.8C513.1,416.3,511.6,416.3,510.2,416.3z"/>
		<path class="st2" d="M645.2,384.6c-0.1,0.3-0.2,0.5-0.3,0.8h-2.7c-3.3,8.9-6.5,17.4-9.8,25.9c-0.7,1.7-1.9,3.1-3.1,4.5
			c-0.4,0.5-1.5,0.4-2.3,0.6c-0.1-0.8-0.5-1.7-0.2-2.3c0.5-1.4,1.5-2.6,2.1-4c3.5-8.2,6.9-16.4,10.5-24.9
			c-20.8-7.2-41.2-13.1-58.5-25.8c1.5-3.5,3.2-2.3,5-1.4c14.2,6.6,28.3,13.2,42.6,19.6c3.4,1.5,7.2,2.3,10.7,3.7
			C641.3,382.2,643.2,383.5,645.2,384.6z"/>
		<path class="st2" d="M634.3,391.6c-1.9,8.8-6.8,16.1-10.9,23.8c-0.3,0.5-1.2,1.1-1.8,1c-4-0.6-8.3-0.6-12-2.1
			c-10.2-4.1-20.2-8.8-30.3-13.2c-0.5-0.2-1-0.5-1.4-0.8c-6.7-3.9-5.5-3-4-9.2c1.6-6.6,3.8-13.1,5.6-19.6c0.5-1.7,0.6-3.5,0.9-5.4
			c7.8,3.6,15.1,7.5,22.8,10.5c9.2,3.6,18.7,6.7,28.1,9.8C634.1,387.3,634.9,388.6,634.3,391.6z"/>
		<path class="st2" d="M676.1,334.2c-1.5,1.1-2.9,2.2-4.4,3.3c0.9,5-16.3,30-23.7,33.3c2.1-5,4-9.2,5.8-13.4
			c-6.1,1.8-8.3,7.9-13.4,10.9c1.3-4.2,4-8,3.3-12.7c-4.7,5.8-9.4,11.5-14.5,16.8c-0.3-0.2-0.6-0.4-0.9-0.6c0.2-0.6,0.2-1.2,0.5-1.6
			c5.1-9.1,8.9-18.8,10.4-29.1c0.7-4.7,0.1-9.7-0.8-14.4c-0.4-2-2.6-4.3-4.6-5.4c-7.5-4.1-15.2-1.2-18.8,6.6
			c-3.4,7.3-8.2,14-9.6,22.2c-0.3,1.7-0.7,3.3-1.1,4.9c-0.4,0-0.8-0.1-1.2-0.2c0.8-5.4,1.6-10.9,2.4-16.3c-0.4-0.2-0.8-0.4-1.3-0.7
			c-3.8,4.4-7.6,8.7-11.2,13.2c-0.2,0.2,0.8,1.8,1.5,2.2c2.6,1.6,5.4,3,8.6,4.7c-6.5,0.5-12-4.7-12.7-10.3
			c-0.6-4.8,0.9-8.7,2.8-12.7c5-10.1,8.7-20.7,10.8-31.9c0.7-3.7,1.5-4,4.8-2.3c17.7,9,36.1,15.7,56.4,17.7c-2.2,1-4.5,2-6.7,3
			c0,0.2,0.1,0.4,0.1,0.6h16.4c0,0.3,0.1,0.6,0.1,0.9c-2.6,0.4-5.2,0.8-7.7,1.2c0,0.1,0,0.3-0.1,0.4c3.9,0.7,7.9,1.3,12.3,2
			c-1.4,0.9-2.5,2-3.9,2.5c-3,1-3.2,1-2.8,4.8c0.9-0.1,1.8-0.2,2.6-0.2C675.8,333.8,675.9,334,676.1,334.2z"/>
		<path class="st2" d="M710.4,238.6c-9.8-11.3-21.8-19.7-35.8-25.2c-13.5-5.3-27.6-8.1-42-9.8c-13-1.5-25.6-0.5-37.2,5.9
			c-7.9,4.3-14.3,10.2-16.6,19.4c-0.8,3.3,0,6.4,1.4,9.5c1.7-9.9,8.8-15.2,15.9-20.4c-4.5,7-7.8,14.2-6.6,22.7
			c3.1-4.7,5.7-9.7,8.8-14.3c3-4.6,6.8-8.7,12.2-10.9c-3.7,5.2-7.2,10.4-7.6,17.7c2.1-2,3.7-3.7,5.5-5.2c1.7-1.4,3.6-2.5,5.5-3.7
			c0.2,0.3,0.4,0.5,0.7,0.8c-5.2,4.5-7.7,10.6-10.1,16.8c-4.1,10.7-2.9,20.8,4.2,29.7c14.8,18.3,34.6,25.2,57.5,24.1
			c8.6-0.4,16.4-3,23.1-8.9c10.3-8.9,11.8-20.1,9.8-32.5c-0.6-3.7-1.4-7.3-2.1-11c0.3-0.1,0.6-0.3,1-0.4c2.5,5.4,4.9,10.8,7.3,16.2
			c1.5-6-2.6-11.4-3.4-18.2c8,7.4,9.6,15.7,7.5,25.2c0.5,0.1,0.9,0.2,1.3,0.3c1.5-3.4,2.9-6.7,4.6-10.6c1.8,7.8-0.6,14.1-5.7,19.7
			l0.9,0.6c2-1.8,4-3.5,6.5-5.7c-1.8,8.9-7.6,13-15,15.7c0.2,0.3,0.4,0.6,0.6,1c3.2-0.5,6.4-0.9,9.7-1.4c0.1,0.3,0.2,0.6,0.4,0.9
			c-1.5,1.2-3,2.3-4.7,3.7c1.1,0.3,1.9,0.6,2.9,0.9c-2.4,5.2-8,5.8-11.5,9.4c2.8-0.6,5.6-1.2,8.5-1.8c-0.4,4.9-2.1,8.4-7.9,8.7
			l0.6,0.8c1.6,0.2,3.2,0.4,4.8,0.6c-7.8,24.8-17.3,48.3-36.2,66.9c0.4,0.3,0.7,0.6,1.1,0.9c1.6-1.3,3.4-2.5,4.9-4
			c11.5-11.2,20.9-23.9,27.2-38.8c8.3-19.6,15.9-39.3,17.8-60.8C721.2,260.2,718.9,248.4,710.4,238.6z M690.7,278.8
			c-8.6,10.7-20.1,13.1-32.9,12.4c-8.4-0.5-16.4-2.9-24-6.2c-10.8-4.7-18.7-12.3-23.2-23.3c-0.5-1.3-0.7-2.7-0.8-4.1
			c9.9,10.4,27.1,19.1,35.9,17.6c-7.4-3.3-14.9-6.2-20-11.5c6.5,2,13.5,4.8,20.8,6.4c6.5,1.4,13.3,1.9,20,1.8
			c9-0.2,15.8-5,20.7-12.6c0.3,0.1,0.5,0.1,0.8,0.2c-0.5,2.1-0.7,4.2-1.4,6.2c-0.8,2.1-2.1,3.9-3,6.2c3.1-0.9,5-3.3,6.7-5.7
			c1.7-2.5,3.1-5.3,4.8-8.4c0.5,0.9,1,1.3,1,1.9C696.9,266.6,695.4,273,690.7,278.8z"/>
		<path class="st2" d="M774.9,420.7c-0.2,40.5-0.5,81.1-0.5,121.6c0,3.4-1.4,4.7-4.4,5.5c-24.5,7.2-49.2,13.7-74.5,17.4
			c-19,2.8-38.2,4.8-57.3,7.2c-1,0.1-2,0-3.1-0.3c7.3-3.8,13.9-8.6,22.6-9.4c36.3-3.4,71.8-11,106.7-21.2c2-0.6,2.8-1.2,2.8-3.5
			c0-37.6,0-75.2,0-112.9c0-0.3-0.1-0.6-0.2-1.2c-30.8-5.4-61.7-10.4-93.5-11.1c2.1-8.2,4.1-15.6,5.9-23.2c0.7-3,0.6-6.2,1.2-9.3
			c0.2-1.1,0.9-2.5,1.8-3c12.1-7.1,19.6-18.2,26.2-30c10.8-19.3,16.7-40.6,22-61.8c2.5-9.9,3-20.3,1.1-30.6
			c-2.8-15.6-11.4-27.3-23.8-36.7c-20.1-15.3-43-23.5-67.8-26.7c-11.9-1.5-24-1.6-35.8,1.6c-12.7,3.4-23.3,10.2-31.1,20.6
			c-3,4-3.8,9.7-5.2,14.8c-0.6,2.1-0.1,4.5-0.1,6.2c-5.4,1.1-10.6,2.2-16.1,3.3c-0.2-1.8-0.2-4.2-0.7-6.6c-0.6-3-1.1-6.2-2.5-8.9
			c-7.9-15.2-21.1-23.5-37.4-27c-31.3-6.7-60.7-2.4-86.7,17c-16.4,12.3-28.5,28.2-33,48.8c-3,13.8-1.7,27.4,2.2,41
			c4.8,16.9,9.8,33.6,18.3,49.1c4.3,7.9,9.6,15.2,16.9,20.8c2.4,1.8,3.7,3.9,3.6,7.1c-0.1,11.7,1.4,23.1,5.6,33.7
			c-25,3.6-49.5,7.1-74.4,10.7c0,4.7,0,8.6,0,12.5c-0.4,33.9-0.7,67.9-1.2,101.8c0,1.7,0.1,2.8,2.1,3.2c17.9,4.4,35.7,9.5,53.8,13.1
			c18.1,3.6,36.5,5.8,54.8,8.6c2.3,0.4,4.7,0.9,6.8,1.9c4.6,2.1,9,4.5,13.4,7.2c-47.2-2.2-92.8-12.3-138-25.6c0-6,0-11.9,0-17.7
			c0.3-32.2,0.5-64.4,0.9-96.6c0-3.7,0.3-7.4,0.3-11c0-1.9,0.7-2.5,2.5-2.9c22.7-4.6,45.5-8.7,68.5-11c0.3,0,0.6-0.2,1.1-0.4
			c-0.9-6.2-2.5-12.3-2.7-18.5c-0.2-7.2-3.2-12-8.4-17.1c-9.9-9.6-16-22-21-34.8c-5.7-14.6-10.3-29.5-12.7-44.9
			c-3.6-22.5,1.7-43,14.6-61.6c17-24.4,40.6-38.5,69.5-43.3c19.6-3.3,39.2-2.2,57.6,6.4c14.3,6.6,24.9,17,31.2,31.6
			c0.3,0.8,0.5,1.7,1,2.4c0.4,0.5,1,0.9,1.6,1.3c0.4-0.5,1.2-1,1.2-1.6c2.7-23.3,19.5-33.2,39-40c12.4-4.3,25.5-3.8,38.3-2.5
			c25.7,2.6,49.5,10.9,71.2,25.2c24,15.8,33.2,38.6,30,66c-3.7,31.7-14.2,61.3-32.7,87.8c-4.5,6.5-9.9,12-16.2,16.7
			c-1.1,0.8-2,2.5-2.3,3.9c-1.3,5.9-2.3,11.9-3.4,17.9c-0.2,1-0.4,2.1-0.6,3.3c6.8,0.8,13.4,1.4,19.9,2.2c12.2,1.6,24.5,3,36.7,4.9
			c10.5,1.6,20.9,3.8,31.3,5.5C774.3,417.9,774.9,418.6,774.9,420.7z"/>
		<path class="st2" d="M540.6,242.5c-0.4,0.1-0.8,0.2-1.2,0.3c-0.3-1.5-0.6-3-0.9-4.6c-0.7-3.7-1.4-7.4-2.3-11
			c-0.3-1-1.3-1.9-2.5-3.7c-0.1,7-1.2,12.7-5.4,17.5c0.3-5.9,3-12.1-1.5-17c-1.5,5.7-3.1,11.6-4.8,17.4c-0.3,0.9-0.9,1.8-2,2.4
			c0.6-4.3,1.3-8.6,1.7-12.9c0.6-5.8-2.5-11.4-8-13.7c1,1.4,1.7,2.4,2.4,3.4c1.6,2.5,2.6,4.7,1.6,8.1c-1.1,3.6-0.7,7.7-1,11.6
			c-0.1,1.4-0.5,2.7-1.5,4c-0.4-2.7-0.5-5.5-1.2-8.2c-0.9-3.9-1.9-7.7-6-9.7c-1.1-0.5-1.7-2.2-2.7-3.2c-0.8-0.8-1.7-1.5-2.8-2.1
			c6,8.4,8.2,17.6,5.8,27.8c-1.3-5.6-2.7-11.1-4-16.7c-0.3,0.1-0.7,0.1-1,0.2c-0.1,1-0.3,2-0.5,3.2c-3.3-2.9-6.3-5.5-9.3-8.2
			c-0.4,0.2-0.7,0.4-1,0.6c5.8,7.4,11.2,15,10.8,24.9c-1.5-4-3-8.1-4.6-12.1c-1.8-4.3-5.1-6.7-10.6-7.9c3.2,4.5,5.9,8.3,8.6,12.1
			c-0.2,0.3-0.5,0.5-0.8,0.8c-5.8-4.3-11.9-8.1-19.4-8.6c8.4,3.7,15.2,9.1,20.2,18.2c-9-5.5-17.2-10.8-27.3-9.4
			c-0.1,0.3-0.2,0.6-0.3,0.9c6.9,3,13.7,6,20.6,9c-0.1,0.3-0.2,0.5-0.3,0.8c-3.4-0.8-6.7-1.6-10.1-2.4c-0.1,0.3-0.2,0.6-0.4,1
			c2.2,1.2,4.5,2.4,6.7,3.6c0,0.2-0.1,0.4-0.1,0.6c-6.3,0.6-12.7,1.2-19,1.8c-0.1,0.4-0.2,0.8-0.4,1.2c0.8,0.4,1.7,1,2.5,1
			c6.4,0.3,12.8,0.2,18.7,3.3c4.3,2.2,4.4,3.2,0.7,6.3c-3.6,3-7.5,5.4-13,5.4c3.2,4,6.9,1.6,10.4,1.5c-1.2,2.1-2.1,3.8-3,5.5
			c0.4,0.2,0.7,0.5,1.1,0.7c1.7-1.3,3.3-2.7,4.9-4.1c0.2,0.2,0.4,0.4,0.6,0.5c-2,4.8-7,8.1-7.6,14.6c2.2-2.7,3.8-4.9,5.7-6.7
			c1.8-1.8,4-3.2,6-4.8c0.2,0.2,0.4,0.4,0.4,0.4c-3.6,6.7-0.8,13.8-1.2,20.7c-0.4,7,1.3,14.2,2.5,21.2c1.7,9.7,3.9,19.3,5.8,28.9
			c0.2,1.1,0.2,2.3,0.3,3.4c-0.4,0.1-0.7,0.2-1.1,0.2c-2-7.2-4-14.4-6-21.7c-1.4,4.1-2.3,8.2-4.2,11.7c-1.7,3.1-4.1,6.3-7,8.2
			c-7.9,5.2-16.5,9.4-26.2,6.5c-7.5-2.2-13.7-7.3-18.3-13.5c-12.3-17.1-22.3-35.5-28.8-55.7c-1.9-5.7-3.4-11.6-5.4-17.3
			c2,29,13,55,27.1,80.1c-0.2,0.2-0.4,0.3-0.6,0.5c-2.1-2.5-4.5-4.8-6.1-7.6c-13.4-22.6-23.6-46.3-23.2-73.3c0.2-10,0-20,5-29.1
			c9.1-16.6,22.2-29.2,39.6-36.7c20.3-8.8,41.6-11,63.3-6.4c11.8,2.5,21.2,9.2,28.7,18.5C541.8,230.2,542.5,236.3,540.6,242.5z"/>
		<path d="M690.7,278.8c-8.6,10.7-20.1,13.1-32.9,12.4c-8.4-0.5-16.4-2.9-24-6.2c-10.8-4.7-18.7-12.3-23.2-23.3
			c-0.5-1.3-0.7-2.7-0.8-4.1c9.9,10.4,27.1,19.1,35.9,17.6c-7.4-3.3-14.9-6.2-20-11.5c6.5,2,13.5,4.8,20.8,6.4
			c6.5,1.4,13.3,1.9,20,1.8c9-0.2,15.8-5,20.7-12.6c0.3,0.1,0.5,0.1,0.8,0.2c-0.5,2.1-0.7,4.2-1.4,6.2c-0.8,2.1-2.1,3.9-3,6.2
			c3.1-0.9,5-3.3,6.7-5.7c1.7-2.5,3.1-5.3,4.8-8.4c0.5,0.9,1,1.3,1,1.9C696.9,266.6,695.4,273,690.7,278.8z"/>
		<path d="M449.4,508.6c-0.1,3.2-2,5.5-5.3,6c-5.1,0.8-10.2,1.3-15.7,2v-27.6c5.6,0.3,11.2,0.3,16.6,1.1c1.5,0.2,3.6,2.6,3.8,4.2
			C449.5,499.1,449.6,503.9,449.4,508.6z"/>
		<path d="M448.2,462.4c-0.3,4.8-3.1,8-7.9,8.7c-3.7,0.5-7.4,0.5-11.3,0.7V451c4.6,0,9.1-0.3,13.6,0.1c2.9,0.2,4.8,2.5,5.2,5.4
			C448.1,458.5,448.3,460.5,448.2,462.4z"/>
		<path d="M538.5,458.6c0,13.3-0.2,26.7-0.4,40c0,2.3-0.3,4.5-0.6,6.8c-0.8,4.9-3.8,7.8-8.8,8c-2.2,0.1-4.6,0-6.8-0.5
			c-4.9-1.1-7.2-3.9-7.2-9c-0.1-7.5,0-15,0-22.4c0-6.9,0-13.9,0-20.8c0-10.3,9.6-16.1,18.9-11.3
			C537.4,451.2,538.5,454.8,538.5,458.6z"/>
		<path d="M728.2,177.8c-2.3,0.3-4.9-0.9-7.2-1.9c-0.5-0.2-0.2-2.7,0.2-4c1.1-3.6,2.4-7.1,3.7-11c2,0.8,3.9,1.6,5.7,2.4
			c0.5,0.2,0.9,0.6,1.2,1C733.8,166.7,731.2,177.4,728.2,177.8z"/>
		<path d="M738.9,142.5c0.1,3.4-2.1,6.8-3.3,10.2c-2.6-0.4-5.2-0.8-8.1-1.3c1.5-4.9,2.8-8.9,4.1-13.4
			C734.4,139.4,738.8,139,738.9,142.5z"/>
		<path d="M524.1,124.5c-1.9,3.2-5.1,2.1-8.3,2.4c-0.3-5.3-0.7-10.2-1-15.4c2.6-0.7,5.2-1.4,7.5,0.6
			C524.2,113.5,525.4,122.3,524.1,124.5z"/>
		<path d="M452.6,157.3c0,3.3-1.7,4.9-4.4,5.6c-2.8,0.7-4.8-0.7-5.6-3.2c-1.1-3.3-1.8-6.7-2.5-10c-1.5-7-3.1-13.9-4.5-20.9
			c-0.7-3.3,0.6-5.3,3.6-6.2c3-0.9,5.5,0.3,6.2,3.5c2.5,10.2,4.8,20.4,7.1,30.6C452.6,157,452.6,157.3,452.6,157.3z"/>
		<path d="M566.3,352.7c-2.6,9.8-5.3,19.6-7.9,29.4c-0.9,3.4-1.6,6.9-2.6,11.1c-0.6-1.2-1-1.8-1.2-2.4c-2.5-9.7-5.1-19.4-7.5-29.2
			c-0.4-1.5-0.5-3.5,0.3-4.6c4-6,8.3-11.8,12.6-17.8c2.1,3.6,4.2,6.8,6.1,10.2C566.5,350.3,566.6,351.7,566.3,352.7z"/>
	</g>
</g>
</svg>
