<?xml version="1.0" encoding="utf-8"?>
<!-- Generator: Adobe Illustrator 25.4.1, SVG Export Plug-In . SVG Version: 6.00 Build 0)  -->
<svg version="1.1" id="Calque_1" xmlns="http://www.w3.org/2000/svg" xmlns:xlink="http://www.w3.org/1999/xlink" x="0px" y="0px"
	 viewBox="0 0 1470.6 1404.7" style="enable-background:new 0 0 1470.6 1404.7;" xml:space="preserve">
<style type="text/css">
	.st0{fill:#0C0C0B;}
	.st1{fill:#AB3E43;}
	.st2{fill:#E4E3DC;}
</style>
<g>
	<path class="st0" d="M525.1,422.1c1.2-15,1.4-28.9,3.6-42.5c6.2-39.2,28.6-65.2,66.1-78.3c56.7-19.9,115.2-25.5,174.9-21.8
		c44.3,2.7,87.8,10.1,129.7,24.7c54.6,19.1,90.8,54.6,99.7,113.9c4.7,31.5,3.3,62.9-2.1,94.1C980.2,608.7,960,704.4,931,798.1
		c-3.5,11.3-8.1,21.9-1.8,33.9c2.1,4,1,9.8,1,14.8c-0.2,55,0.8,110-1.4,164.9c-0.7,17.1-8.3,34.9-16.3,50.5
		c-8.2,15.8-24.9,20.6-42.4,20.8c-31.5,0.4-63,1.4-94.5,1.1c-51.5-0.5-103-1.8-154.4-3.1c-23.9-0.6-37.5-14.9-44.4-37.5
		c-20.4-66.7-5.9-134.7-10.1-202c-0.2-3.7,0.8-7.6,1.8-11.4c0.8-3.3,2.4-6.4,3.4-9.2c-15.4-17-31-33.4-45.8-50.5
		c-47.9-55.4-68.8-121.4-75.6-193c-2.8-29.2-2.6-58.4,4.5-87.1C464.2,453.2,482.7,425.3,525.1,422.1z M554.7,684.9
		c-0.5-0.6-1.1-1.1-1.7-1.5c3.7-8.9,7.4-17.8,11.2-27c-12.5,5.2-23.4,9.7-34.3,14.2c13-9.4,29.1-13.9,37.4-32.9
		c-28.2,14.5-28.5,14.6-39.9,10.5c24-8,33.4-15.9,34.5-28.5c-7.7,2.7-15.6,5.5-23.5,8.3c-0.8-1-1.5-2.1-2.3-3.1
		c32.3-8,38.5-34.4,40.3-60.2c2.7-37.6-8.5-73-28.9-104.9c-9.1-14.3-27-19.3-41.3-10.2c-9.5,6-19.4,15.4-23.2,25.5
		c-6.3,16.5-10.4,34.8-11.1,52.5c-3.8,104.5,29.6,194.8,106.4,267.5c9.9,9.4,11,9.6,17.6-2c21.5-38.1,27.1-79.5,24-122.5
		c-1-13.6-4.6-26.7-13.3-37.9c2.5,31.6,2.5,62.3-17.5,89.4c2.6-14.6,5.2-29.3,7.8-43.9c-0.8-0.2-1.6-0.3-2.4-0.5
		c-8.3,13-16.5,26-24.8,39.1c-0.9-0.5-1.9-0.9-2.8-1.4c2.5-21.2,17.9-39.6,15.7-62C572.9,664.4,563.8,674.6,554.7,684.9z
		 M935.2,698.5c-3-1.1-6.7-1.4-9-3.3c-25.2-20.5-53.6-33-86.2-34.1c-42.6-1.4-85.2-1.7-127.8-2.5c-6.1-0.1-12.3-0.8-18.4-1.3
		c-0.1-1.7-0.2-3.4-0.3-5c27-4.2,54-8.4,77.5-12c-24.8-5-52.8-9.9-80.3-16.6c-18.9-4.6-37.1-11.6-55.7-17.5
		c-0.3-0.4-0.6-0.8-0.9-1.2c0,0.3-0.1,0.6,0.1,0.7c0.3,0.2,0.6,0.2,1,0.3c35.2,70.4,22.7,136.5-17.1,201.6c17.4,0.8,36,1.6,57.1,2.6
		c0-28.2,0-54.4,0-80.6c1.7,0,3.4,0,5.1,0c0,26.5,0,52.9,0,78.9c7.4,0,12.2,0,17.6,0c0-9.9-0.1-18.7,0-27.5
		c0.3-21.1-0.6-42.4,1.4-63.3c2.9-29.4,21.8-44.2,51-42.7c23.7,1.2,43,22.1,43.6,48.2c0.5,22.3,0,44.6,0,66.8c0,6.8,0,13.6,0,20.7
		c6.3,0,11.1,0,19,0c0-26.5,0-52.5,0-78.5c1.9,0,3.9,0.1,5.8,0.1c0,26.1,0,52.3,0,79.5c14.6-1.2,26.4-2.2,38.2-3.2
		c0-0.8,0-1.6,0-2.4c-5.5-2.4-11.1-4.8-18.2-7.9c4.2-1.5,6.3-2.9,8.4-2.9c17.2-0.5,34.3-0.8,51.5-0.9c5.5,0,11.6,2.7,13.7-5.8
		c7.4-30.1,15.1-60.2,22.6-90.3c0.4-0.6,1.2-1.2,1.3-1.9c11.1-49.8,22.1-99.6,33-149.4c1.3-5.9,1.5-11.9,2.5-20.5
		c-12.1,14.7-22,26.8-31.8,38.7c6.8-0.3,13.9-0.6,21.1-1c0.2,0.9,0.3,1.8,0.5,2.7c-15.1,6.9-30.2,13.8-45.3,20.6
		c0.3,0.5,0.6,1.1,0.9,1.6c9.3,0,18.6,0,27.9,0c0.3,1,0.5,2,0.8,3c-21.8,7.2-43.6,14.4-68.3,22.5c20.1,0,37.2,0,54.2,0
		c0.1,0.6,0.2,1.2,0.3,1.7c-16.9,6.3-33.8,12.6-53.7,20C904.3,653.8,930.6,666.8,935.2,698.5z M971.5,408.1c0.5,0.4,1,0.9,1.5,1.3
		c0-0.9-0.1-1.8-0.1-2.7c-1.3-6-1.8-12.3-4.1-17.8c-13.2-31.6-37.7-50.5-69.3-61.4c-65.6-22.7-133.4-31.2-202.2-25.1
		c-33,2.9-66,10.9-97.8,20.4c-35.6,10.7-53.9,43.7-49.1,77.7c9.1-13.1,19-27.4,28.9-41.7l0.6,0.5c-13.9,35.8-16.5,49.7-12.1,63.6
		c5.9-11.7,11.9-23.7,17.9-35.8c0.9,0.4,1.8,0.7,2.7,1.1c-6.3,26.1-6.9,52.1-4.1,78.8c5.2,50.9,30.2,84.7,79.2,101.1
		c49,16.4,99.2,21.7,150.1,15.8c23.7-2.7,47.5-9.5,70-17.7c29.9-10.9,49-32.8,52.2-65.7c1.1-11.6,0.2-23.5,0.2-37.5
		c11.8,15.9,10.4,33.3,13.7,52.7c7.4-18.3,8.3-34.4,5.2-50c-3-15.3-8.7-30.1-13.9-47.2c18.8,14.2,25.3,33.8,35.5,54.1
		c1.2-21.4-3.8-38.4-12.6-54.4c-5.9-10.7-13-20.7-19.6-31.1c0.5-0.4,0.9-0.9,1.3-1.4C954,393.2,962.7,400.7,971.5,408.1z
		 M899.8,1042.3c-4.1,0-7.8-0.1-11.5,0c-23.8,0.8-47.6,1.6-71.4,2.5c-14.2,0.5-23.6-6.8-28.6-19.1c-2.8-6.9-3.6-14.9-3.6-22.4
		c-0.2-88.8,0-177.5-0.1-266.3c0-8-0.4-16.2-2-24c-4-18.8-19.8-30.3-38.6-29.2c-19.6,1.1-32.8,13.4-35,33.2
		c-0.8,7.6-0.7,15.3-0.7,23c0.1,86.5,0.4,172.9,0.4,259.4c0,36-11.7,47-47.1,45.4c-9.2-0.4-18.4-1.2-27.6-1.8
		c-11.6-0.7-23.3-1.4-35.9-2.1c3.6,10.6,9.6,16,19.5,16.7c19.2,1.3,38.3,2.6,57.5,3.9c16,1.1,28.3-5.6,37.9-17.8
		c9.4-11.8,14.2-25.2,14.1-40.5c-0.4-81.9-0.7-163.7-0.9-245.6c0-12.7,0.1-25.4,1.1-38c0.9-11.4,8.4-18.5,18.2-18.8
		c10.2-0.3,19.2,6.8,20.7,17.8c1.1,8.7,0.9,17.6,0.9,26.5c-0.1,87.6-0.5,175.2-0.5,262.9c0,30.1,20.5,52.2,50.6,52.9
		c21.8,0.5,43.7-1.5,65.6-2.5C892.7,1058,898.1,1052.6,899.8,1042.3z M821.3,829.9c0,66,0,129.6,0,195c25.3-1.3,48.6-2.5,71.9-3.7
		c14.6-0.8,15.9-2.6,12-17.7c-19.9,0-39.9,0-59.8,0c17.1-4.1,34.2-6.3,51.3-7.8c8-0.7,11.1-3.6,10.9-12.2
		c-0.6-33.4-0.3-66.9-0.5-100.3c0-2.9-0.6-5.8-1.1-10.1c-14.7,0-28.7,0-42.7,0c0-1-0.1-2-0.1-3c11.3-1.3,22.5-2.4,33.8-3.8
		c5.7-0.7,12.1-1.1,8.5-11.9c-15,0-30.5,0-46,0c0-1.2,0-2.4-0.1-3.6c15.7-2.1,31.4-4.3,46.9-6.4c1.2-7.5,1.3-14.2-7.5-14.4
		C872.8,829.6,846.8,829.9,821.3,829.9z M589,871.7c0,5.2,0,9.3,0,13.4c0,31.5,0.1,63,0.1,94.5c0,16.5,0.1,16.4,17,18.2
		c16.4,1.8,32.7,3.7,49.1,5.5c0,0.5-0.1,0.9-0.1,1.4c-21.6,0-43.2,0-68.7,0c4.4,5.9,7.1,12.9,10.4,13.3c24.6,2.9,49.3,4.5,75.9,6.6
		c0-65.6,0-128.6,0-193.8c-25.5,0-50.8-0.2-76.1,0.3c-2.4,0-6.5,4.3-6.6,6.8c-0.1,2.3,3.6,5.3,6.3,7.1c1.7,1.1,4.5,0.4,6.8,0.7
		c16.7,1.7,33.4,3.4,50.1,5.1c-3.2,2.3-6.2,2.3-9.3,2.3c-15.8,0.2-31.5,0.2-47.3,0.7c-2.5,0.1-4.9,2.3-7.3,3.5
		c1.9,2.4,3.3,5.5,5.8,6.9c3.3,1.8,7.3,2.2,11,3.1c7.3,1.8,14.6,3.6,22,5.4c-0.2,0.7-0.4,1.5-0.5,2.2C615.2,874,602.8,873,589,871.7
		z M681.7,832.7c0,64.3,0,127.4,0,190.5c13.6-0.4,17-3.8,17.1-18.8c0.3-54.5,0.4-108.9,0.5-163.4c0-2.6-0.5-5.2-0.9-8.3
		C693,832.7,688.1,832.7,681.7,832.7z M811.2,831.3c-18.8-1.8-18.8-1.8-18.5,13.6c0.4,20.7,1.1,41.5,1.4,62.2
		c0.4,33.4,0.4,66.9,0.9,100.3c0.2,13.1,3.8,16.1,16.3,15.3C811.2,959.1,811.2,895.5,811.2,831.3z M606.6,796.5c1,0.8,2,1.5,3,2.3
		c5.2-7,11.5-13.5,15.4-21.2c18.9-37.4,28.4-77.4,23.3-119c-2.1-17.3-11.5-33.7-18.4-50.2c-1-2.4-6.1-3.1-9.2-4.6
		c-1.3,3.2-3.8,6.4-3.6,9.5c0.3,4.4,2.7,8.7,4,13.1c4,13.2,9.8,26.2,11.4,39.6C637.9,712.1,629,755.8,606.6,796.5z"/>
	<path class="st0" d="M474.7,992.6c-47.9-27.1-85-65.4-114.2-111.6c-84.8-134.1-77.4-300,18.6-426.2c18.8-24.7,40.5-46.6,64.8-65.8
		c0.7,0.7,1.5,1.3,2.2,2c-4,4.2-8,8.3-11.9,12.5c-56.9,60.6-96.8,130.2-111,213c-13.3,77.3-2.1,151.3,31.1,222.2
		c26.8,57.4,66.4,104.8,114.4,145.5c2.6,2.2,4.9,4.7,7.3,7C475.6,991.6,475.1,992.1,474.7,992.6z"/>
	<path class="st0" d="M1047.4,404.5c78.4,71.2,121,160,124.2,266.7c4,130.6-83.1,289.8-176,319.9c2.5-1.6,5.3-2.8,7.3-4.9
		c22.8-23.9,46.6-46.9,67.9-72c60.4-71.3,87.8-154.9,85.1-247.7c-2.3-79.6-29.2-151.1-76.7-214.9c-11.4-15.3-23-30.4-34.5-45.6
		C1045.6,405.4,1046.5,404.9,1047.4,404.5z"/>
	<path class="st1" d="M474.2,955.8c-45.1-11.3-116.8-125.1-133.9-208.4c-27.2-132.7,32.4-252.2,91.2-304.3
		c-58.7,78.5-91.3,165.6-82.1,264.4C358.6,805.4,401.2,888,474.2,955.8z"/>
	<path class="st1" d="M1046.3,446.3c43.1,43.3,70.6,95.4,84.6,154.3c24.5,103.8,3.2,199.2-58.8,284.8c-18,24.8-42.7,44.7-64.5,66.7
		c-2.2,2.2-5.4,3.5-8.8,4.4c40.7-37.8,73.1-81.5,95.2-132.2c56.3-129.5,38.1-250.8-41.2-365.1c-2.6-3.8-5.4-7.4-8.2-11.1
		C1045.1,447.4,1045.7,446.9,1046.3,446.3z"/>
	<g>
		<path class="st2" d="M352.1,1142.9c-3,2-6,3.9-8.9,5.9c-25.2,17.6-50.5,35.1-75.3,53.1c-7.9,5.7-13.8,5.6-21.2-0.8
			c-7.3-6.3-7.5-12.2-3.2-20.1c15-27.7,29.7-55.5,44.5-83.3c1.7-3.2,3.3-6.5,2.9-11.5c-2.3,1.9-4.8,3.7-6.9,5.8
			c-21.3,21.6-42.5,43.4-63.8,65c-9.7,9.8-10.9,9.7-22.2-1.3c-12.1-11.7-12.6-13.1-2.7-23c44.6-45.1,89.5-89.9,134-135
			c7.5-7.6,12.6-8.2,20.5,0c20.5,21.1,19.8,13.5,6,39.5c-15.5,29.1-31.3,58.1-46.9,87.2c-1.7,3.2-3,6.7-2.9,11.6
			c4.5-3.1,9.1-6,13.5-9.3c28.1-20.8,56.2-41.6,84.1-62.6c7-5.3,12.4-6.5,20-0.2c24.9,21,27.9,12.1,4.9,41.8
			c-35.8,46.2-71.9,92.1-108.1,137.9c-3.2,4.1-10.3,10-12.8,8.9c-7.7-3.5-14.8-9.3-20.5-15.7c-1.4-1.6,2-9.2,4.8-12.8
			c18.4-23.7,37.2-47,55.9-70.4c2.2-2.8,4.3-5.7,6.4-8.5C353.4,1144.3,352.7,1143.6,352.1,1142.9z M292.8,1085.6
			c0.3-0.3,0.6-0.6,0.8-0.8c-0.5-0.3-1-0.6-1.5-0.7c-0.2,0-0.5,0.5-0.8,0.7C291.8,1085.1,292.3,1085.3,292.8,1085.6z"/>
		<path class="st2" d="M586.5,1256.9c-1.5,6.5-3.3,13-4.4,19.7c-4.7,26.5-9.6,52.9-13.6,79.5c-1.5,10.1-6,12.7-15.6,10.9
			c-21.1-4.1-21.1-3.8-17.5-24.9c10.8-62,21.8-124.1,32.3-186.2c1.5-9.2,5.7-11.8,14-10c0.4,0.1,0.8,0.1,1.1,0.1
			c26.5,4.8,22.5,1.5,25.7,24.8c4.5,33.1,9.8,66,17,99.2c0.8-3.1,1.8-6.1,2.3-9.2c4.9-29.2,9.8-58.3,14.5-87.5
			c2.6-15.7,2.8-15.9,18.2-13.9c19.9,2.6,19.7,2.5,16.4,22.8c-10.4,63.3-20.6,126.6-30.6,189.9c-1.3,8.2-4.2,11.1-12.9,10
			c-25.2-3.4-24.9-3.2-28.9-28.7c-5-32.2-10.6-64.2-16-96.3C588,1257.1,587.3,1257,586.5,1256.9z"/>
		<path class="st2" d="M380.7,1271.9c0.3-1,0.9-4.8,2.4-8.2c20.1-45.2,40.5-90.2,60.4-135.5c6.2-14.1,16.2-22.1,31.3-23.2
			c4.7-0.3,9.9,0.3,14.4,1.9c10.1,3.7,19.8,8.3,29.7,12.5c23.1,9.9,31,28.2,21.3,50.9c-19.9,46.5-40.1,92.9-60.4,139.2
			c-7.4,16.9-29.4,24.8-46.2,16.9c-9.4-4.4-18.4-9.9-28.1-13.2C386.6,1306.8,381.2,1292.5,380.7,1271.9z M417.1,1274.6
			c1.4,12.2,11.8,13.6,20.3,17.4c8.6,3.8,12-1.8,14.7-8.2c16.8-39.1,33.6-78.3,50.3-117.5c5-11.7,2.7-17.2-9.1-22.4
			c-12.5-5.6-16.7-4-22.3,8.4c-16.5,36.7-33,73.5-49.5,110.3C419.9,1266.4,418.7,1270.5,417.1,1274.6z"/>
		<path class="st2" d="M820,1191.2c-0.3-14.7,12.6-30.8,26.5-34c9.7-2.3,19.3-4.9,29-7.2c24.9-6,44.4,5.7,49.5,30.4
			c10.3,48.9,20.3,97.8,30.2,146.7c4.1,20-7.2,37.7-27.1,42.7c-11.2,2.8-22.4,5.3-33.7,7.8c-17.5,3.9-37.1-7.1-40.9-24.6
			c-11.5-52.5-22.2-105.2-33.2-157.8C820.1,1193.7,820.1,1192.1,820,1191.2z M919.6,1328.5c-0.3-2.3-0.4-4.6-0.9-6.9
			c-9-41.6-17.9-83.2-27.2-124.8c-3.2-14.4-6.7-15.8-23.8-11.8c-10.3,2.4-12.7,7.3-10.1,20.3c3.5,16.9,6.9,33.8,10.5,50.7
			c5.4,25.1,10.8,50.2,16.5,75.3c1.8,8.2,5.7,14.7,15.9,12.3C909.1,1341.6,920,1342.2,919.6,1328.5z"/>
		<path class="st2" d="M1176.4,1221.3c-1.2,17.9-4.1,30-17.3,37.6c-8.3,4.8-15.6,11.2-23.5,16.6c-18.7,12.9-34,10.9-48.3-6.4
			c-6.1-7.4-11.7-15.2-17.9-22.6c-5.1-6.1-4.3-11,1.8-15.6c0.9-0.7,1.7-1.5,2.6-2.3c15.9-13.4,17.2-13.3,28.9,3.4
			c1.3,1.9,2.7,3.7,4.1,5.6c5.7,7.5,11.6,12,21.1,4.9c12.2-9.2,14-14.4,7.4-25.5c-8.8-14.7-18.7-26-38.8-24.3
			c-15.9,1.4-32.2-1.9-48.3-1.5c-11.8,0.3-20.2-4.5-26.4-13.3c-9.7-13.8-19-27.9-27.3-42.6c-6.4-11.3-0.8-32.9,9.4-40.9
			c9.1-7.1,18.2-14.1,27.6-20.7c19.1-13.4,35.9-10.6,49.6,8c5,6.8,9.5,14,14.7,20.6c5.1,6.4,3.4,10.2-2.8,14.9
			c-18.8,14.1-18.8,14.5-32.6-4.7c-5.4-7.5-10.7-13.2-20.6-6.5c-11.5,7.8-13,14.5-7.3,25.8c9.4,18.6,22.2,28.2,44.5,25.9
			c16.2-1.7,33,0.4,49.4,2c5.4,0.5,11.7,3.8,15.4,7.9c9.5,10.5,18.5,21.7,26.3,33.5C1172.7,1208.3,1174.7,1217,1176.4,1221.3z"/>
		<path class="st2" d="M801.6,1333.2c0,6.5,0,13.1,0,19.6c0,24.2-13.9,38.6-37.9,39.1c-9.2,0.2-18.4,0.2-27.7,0.1
			c-24.7-0.3-38.3-13.7-38.7-38c-0.1-5.8-0.3-11.5-0.3-17.3c-0.1-13,1.9-14.7,16.9-14.9c17.2-0.3,17.6,0.1,18.1,14
			c0.1,1.5,0.1,3.1,0.1,4.6c0.6,16.6,13.7,24.8,28.8,17.3c2.9-1.4,5.4-6.5,5.6-10.1c0.6-9.5,0.7-19.3-0.6-28.7
			c-0.7-4.7-4.1-9.9-7.9-13c-14.2-11.8-28.8-23-43.6-33.9c-12.3-9.1-19.4-20-18.3-36c0.9-13,0.3-26.1,0.9-39.1
			c0.8-17.5,16.4-32,34-32.2c10-0.1,20-0.1,30-0.1c22.6,0,36.4,13.3,37.3,35.8c0.1,3.1,0.2,6.1,0.2,9.2c0.6,25.5,0,26-25.3,24.4
			c-6.8-0.4-9.8-3.3-9.5-10c0.2-3.1-0.1-6.2,0.1-9.2c1-18.2-9.2-21-26.1-16.3c-2,0.5-4.1,2.3-5.2,4.2c-5.4,9-0.3,38,8,44.8
			c9.2,7.5,18.3,15.3,28.4,21.6C792.8,1283.9,809,1302.4,801.6,1333.2z"/>
		<path class="st2" d="M1186.9,1102.9c15.7,14.9,30.8,29.1,47,44.4c10.5-11.3,21.2-21.6,30.4-33c7.5-9.3,13.1-7.3,20.6-0.4
			c10.9,10.2,12,13.3,3.7,22.6c-15.1,16.9-30.7,33.3-46.1,50c-5.8,6.3-11.2,6.8-17.6,0.6c-47.2-45.6-94.5-91.2-142-136.6
			c-7.5-7.2-7.4-12.6,0.1-19.8c16-15.5,31.6-31.4,47-47.5c6.2-6.5,11.2-6.9,17.2-0.2c2.3,2.6,5,4.8,7.7,7c5.9,4.8,5.4,9.4-0.1,14.2
			c-11.9,10.4-23.6,20.8-36.6,32.2c17.2,16.3,31.2,29.7,47.9,45.6c7.7-9.1,15.1-16.9,21.5-25.4c8.1-10.6,14.1-5.4,21.4,1.1
			c8.1,7.2,8.9,12.9,0.7,20.7C1201.6,1085.6,1194.7,1094.3,1186.9,1102.9z"/>
		<path class="st2" d="M962,1121.2c2.6,3.8,5.8,7.3,7.7,11.4c16.9,36.9,33.6,74,50.4,111c10,22,19.9,44,30.3,65.8
			c4.2,8.8,2.6,13.6-6.8,17.7c-20.5,8.9-20.2,9.3-29.3-10.8c-25.6-56.2-51.1-112.4-77-168.3c-4.5-9.8-3.9-15.9,6.9-19.5
			C949.6,1126.5,954.8,1124.1,962,1121.2z"/>
		<g>
			<g>
				<path class="st2" d="M556.4,176.7c-2.9-29.7-5.8-59.3-8.6-89c-1.2-12.6-1.7-25.3-3-37.9c-0.7-6.5,1.6-9.6,7.8-11.7
					c30.2-10.1,30.2-10.3,40.2,19.6c18.7,55.7,37.3,111.4,55.6,167.2c1.7,5.2,2.6,15.1,0.2,16.5c-7.3,4.2-16.2,5.9-24.7,7
					c-1.8,0.2-5.3-5.8-6.6-9.5c-9.5-27.6-18.7-55.3-28-82.9c-1.2-3.4-2.7-6.7-4.1-10.1c-1.3,0.2-2.6,0.5-3.9,0.7
					c3.2,33.1,6.7,66.2,9.3,99.4c0.4,4.6-2.4,11.2-6,14c-8.4,6.6-15.4,4.4-21.4-5.5c-17-28.3-34.9-56-52.5-83.9
					c-1.9-3-4.1-5.8-8-7.4c9.6,28,19.3,56,28.9,83.9c1.9,5.4,3.8,10.9,5.7,16.3c5,14.2,4.1,15.1-13.7,21.7
					c-11.3,4.2-14.8-1.4-17.9-10.8c-20-60.1-40.5-120-60.7-180c-5.2-15.4-5.1-16.2,10.2-21.5c26.2-9,19.4-13.1,35.5,11.4
					c20.4,31.1,40.8,62.2,61.2,93.3C553.3,177.2,554.9,176.9,556.4,176.7z"/>
				<path class="st2" d="M1039.2,103c-1.1,4.6-1.8,9.6-3.4,14.2c-14.9,42.3-30.8,84.3-44.7,126.9c-6.4,19.6-19.5,28.2-37.9,31.8
					c-3.3,0.6-7.1,0.9-10.1-0.2c-18.1-6.3-36-13.1-54-19.8c-6.8-2.5-9.1-6.7-6.5-14.4c21.7-61.5,43.1-123.1,64.4-184.7
					c2.5-7.2,6.9-9.9,14.1-7.3c19.4,7.1,39.1,13.7,58.1,21.8C1032.1,77.1,1034.8,90.5,1039.2,103z M973.8,89.8c-1,1-1.8,1.5-2,2.2
					c-16.1,45.5-32.1,91-47.9,136.6c-0.7,2,0.8,6.1,2.6,7.4c16.1,11.4,26.3,8.2,33.1-10.2c11.8-32,23.4-64.1,35.1-96.1
					C1005.6,99.5,1005.6,99.5,973.8,89.8z"/>
				<path class="st2" d="M254.3,211.4c7.6,3.4,16.6,4.9,21.9,10.2c37.6,37.8,74.6,76.2,111.4,114.8c8.4,8.8,6.8,34-2.7,44.1
					c-13.1,14-26.9,27.3-40.6,40.8c-6.8,6.8-13.1,6-19.7-1c-43.4-45.5-87-91-130.7-136.2c-7.1-7.3-7.3-13,0.2-20.2
					c14.3-13.9,27.6-28.8,42-42.7C240.4,217.1,246.9,215.3,254.3,211.4z M336.5,383c3.9-3.2,6-4.9,8-6.6c16.3-14.7,16.3-17.7,1-33.9
					c-25.4-26.8-50.7-53.6-76-80.4c-14.3-15.1-16.6-14.8-30.5,0.5c-6.1,6.7-6.3,11.8,0.1,18.4c16.3,16.8,32.1,34.2,48.2,51.2
					C303.4,349.1,319.7,365.8,336.5,383z"/>
				<path class="st2" d="M1317.8,309.5c1.3,19.4-1.5,33.5-15.8,43.9c-9.6,6.9-18.2,15.3-27,23.3c-6.5,5.9-13.1,9.7-22.7,7.9
					c-3.2-0.6-8.3,2.6-10.9,5.5c-10.1,11.5-19.9,23.4-29.1,35.7c-11.7,15.6-28.6,18.5-46,19c-4.9,0.1-11.1-3.6-14.5-7.5
					c-12.8-14.7-25.1-30-37-45.6c-8.3-10.8-7.3-15.8,3.6-23.9c48.6-36.2,97.4-72.1,145.8-108.6c8.6-6.5,14-5.3,20,2.7
					c9.9,13.2,20.2,26.1,30,39.4C1316.5,304.4,1317.4,308.6,1317.8,309.5z M1198.8,350.8c-12.3,8.8-25,18-37.7,27.1
					c-1.9,1.3-3.9,2.6-5.4,4.3c-1.7,1.9-4.4,5.5-3.8,6.3c4.8,6.7,9.2,14.6,15.9,18.8c4.1,2.6,12.6,0.7,17.8-1.9
					c5.9-3,10.3-9,15.4-13.7c21-19.7,21-20.2-0.2-40.2C1200.4,351.1,1200,351.1,1198.8,350.8z M1222.1,331.9
					c7.1,6.7,12.7,12.5,18.9,17.4c2.3,1.8,7.3,3.2,9.1,1.9c10.9-7.7,22.2-15.2,31.4-24.6c7.6-7.7,2.2-16.1-3.7-23.4
					c-6.5-7.9-11.8-3.5-17.5,0.7C1248.2,313,1235.8,321.9,1222.1,331.9z"/>
				<path class="st2" d="M1403.1,448.4c1.7,18-7.8,34.2-21.3,40.4c-44,19.8-88,39.7-132.1,59.5c-15.2,6.9-33.2,2-41.7-12.7
					c-7.3-12.6-13.5-25.8-19.1-39.3c-4.6-11.1,5-33.2,16.4-38.2c48.7-21.6,97.5-43,146.3-64.3c7.8-3.4,27,1.5,31.2,9.4
					C1391.1,418.9,1397.4,435.4,1403.1,448.4z M1368.9,451.5c-1.8-18.6-11.2-24.2-25.5-18.2c-6.7,2.8-13.3,5.9-19.9,8.9
					c-31.4,14.3-62.7,28.7-94.2,42.9c-9.8,4.4-7.7,11.1-4,17.9c3.5,6.5,6.3,15.4,16.8,10.8c39.3-17.2,78.7-34.5,117.7-52.3
					C1364.2,459.5,1366.9,453.8,1368.9,451.5z"/>
				<path class="st2" d="M265.8,453c-5.7,10.7-10.7,20.2-16.7,31.4c12.5,9.1,25.1,18.2,37.1,26.9c-18.9,39.4-16.8,32-40.4,13.4
					C199,488,152.5,450.9,105.5,414.2c-7.4-5.8-8.9-10.1-4.1-18.8c18.8-34,18.2-33.7,54.1-20.1c51.6,19.6,103.5,38.6,155.3,57.8
					c7.4,2.7,15,4.4,10.4,15.8c-7.1,17.6-9.9,19.9-23.1,15.4C287.7,460.6,277.2,457,265.8,453z M157,411.9c-0.2,1-0.4,2-0.7,3.1
					c22.3,16.7,44.7,33.4,68.1,50.9c4.2-8.2,7.9-15.5,12.3-24.1C209.5,431.5,183.3,421.7,157,411.9z"/>
				<path class="st2" d="M190.8,705.1c0.4,10.2,0.2,19.8,1.3,29.2c0.3,2.6,4.1,6.2,6.9,6.7c8.6,1.6,17.5,1.8,26.3,3
					c10.2,1.4,12.7,7.1,11.1,23.3c-0.9,9.5-6.6,10.6-14.6,9.5C157.8,768.3,94,760,30.1,751.9c-6.8-0.9-10.3-3.7-10.5-10.9
					c-0.2-9.2-0.8-18.4-1.8-27.6c-1-9.5,2.5-13.7,12.3-15.3c50.1-7.8,100.1-16.3,150.1-24.5c14.4-2.4,28.8-4.8,43.1-7.5
					c8.6-1.6,12,1.8,12.3,10.3c0.8,20.5,0,21.8-20.2,25C207.4,702.6,199.5,703.8,190.8,705.1z M158,710.4
					c-30.9,4.7-61.2,9.2-91.5,13.8c0,0.4,0,0.9,0.1,1.3c31,3.5,62,7,93.9,10.6C159.6,727.3,158.9,719.7,158,710.4z"/>
				<path class="st2" d="M70.7,508.8c15,3.2,31.1,6.6,47.1,10.3c1.5,0.4,2.6,3.2,3.6,5c0.3,0.5-0.2,1.5-0.2,2.3
					c-1.2,25.3-4.8,28-29,21.5c-1.5-0.4-3-1.2-4.4-1.1c-6.1,0.1-15.7-1.8-17.7,1.2c-3.8,5.7-4.1,14.2-3.9,21.6
					c0,2.6,5.2,6.5,8.7,7.3c42.8,10.6,85.7,20.8,128.5,31.2c8.6,2.1,13.9-0.3,16.1-9.5c3.4-14.1,2.1-18.5-8.3-22.3
					c-4.3-1.6-8.8-2.7-13.2-4.1c-14.8-4.8-18.8-17.8-8.7-29.8c1.8-2.2,7-2.9,10.2-2.2c11.6,2.3,23.2,5.3,34.6,8.5
					c11,3.1,22.5,23.6,19.9,35.5c-2.8,12.7-5.8,25.4-9.5,37.9c-5.6,18.8-19.8,26.3-38.9,21.7c-48.4-11.8-96.9-23.4-145.3-35.1
					c-17.2-4.2-30.1-23.3-27-40.8c2.2-12.8,5.3-25.5,8.8-38.1C45.8,516.2,57.9,513.2,70.7,508.8z"/>
				<path class="st2" d="M1296.3,615.2c-21.9-3.1-40.6-5.5-59.1-8.3c-9.7-1.5-19.3-22.9-12.8-30c3-3.2,10.5-3.7,15.6-2.9
					c25.4,4,50.8,8.1,75.9,13.6c12.1,2.7,21.9,0.9,32.4-5.4c23.7-14.1,48.2-27,72.3-40.4c10.6-5.9,12.7-5,15.7,6.7
					c0.5,1.9,0.7,3.8,1.5,5.6c5.2,11.3,0.8,17.4-10,22.2c-15.5,7-30.4,15.5-45.2,25.6c17.7,2.7,35.4,5.1,53,8.2
					c4.9,0.9,12.9,2.7,13.6,5.5c2,7.9,1.6,16.7,0.3,24.8c-0.3,1.7-8.6,3.8-12.8,3.1c-28.4-4.6-56.6-10.3-85.1-14.6
					c-6.5-1-14.5,0.3-20.1,3.5c-25.8,14.3-51,29.8-76.5,44.7c-10.3,6-14.8,3.8-17.5-8.1c-4.1-17.9-3.5-19,12.8-28.1
					C1264.9,632.8,1279.2,624.8,1296.3,615.2z"/>
				<path class="st2" d="M766,139.2c-1.1,21.6-2.1,42.5-3.3,64.7c15.8,1,30.6,2.6,45.5,2.8c9.1,0.1,12.2,3.5,11.8,12.4
					c-0.8,19.4-1.7,20.4-21.5,19.2c-19.9-1.2-39.9-2.8-59.8-3.1c-10.4-0.2-13.3-3.9-12.6-13.8c4.6-60.1,8.9-120.2,13.2-180.3
					c0.1-0.8,0.2-1.5,0.2-2.3c0.7-30.8,0-24.5,27.4-23.8c17.6,0.4,35.2,2.7,52.9,3.2c15.1,0.4,11.5,11.1,12.1,19.8
					c0.7,9.9-3.8,14.1-13.7,13.3c-14.5-1.2-29-2.2-45.3-3.4c-1.5,19.3-3.1,38.2-4.7,58.7c12.2,1.1,23.9,2.6,35.6,2.9
					c9.1,0.2,12.6,3.8,11.4,12.7c-0.5,3.8-0.6,7.7-0.7,11.5c-0.1,6.5-3.3,8.6-9.6,8C792.5,140.4,779.9,139.9,766,139.2z"/>
				<path class="st2" d="M352.8,166.3c9,15.6,16.8,29.2,24.7,42.8c1.5,2.6,3.4,5,5.7,8.2c10.7-6.7,21.1-13,31.3-19.7
					c5.9-3.9,9.6-2.4,13.2,3.1c10.1,15.2,9.4,19.1-6.1,29.3c-7.3,4.8-14.8,9.5-23.3,15c11.7,18.5,23.1,36.5,35.4,55.9
					c13-8,25.6-15.7,38.2-23.5c4.8-3,9.3-7.5,14.7-0.4c7.6,10,9.1,19.1,1.8,24.3c-19.7,14-39.8,27.4-59.8,41
					c-7.7,5.2-11.2-0.8-14.4-6.1c-19.4-31.7-38.8-63.5-58.1-95.3c-14.3-23.6-28.1-47.6-42.6-71.1c-5.2-8.3-4.3-13.3,4.2-18.5
					c18.9-11.7,37.5-24,55.8-36.7c9.6-6.7,14.5-2.3,19.1,5.8c4.3,7.5,11.6,14.5-0.9,21.7C378.9,149.4,366.5,157.7,352.8,166.3z"/>
				<path class="st2" d="M1113,159c-10.2,16.2-19.3,30.8-29.4,47c9.9,6.4,19.2,13,29.1,18.4c7.6,4.2,9,8.6,3.9,15.4
					c-2.3,3.1-4.4,6.3-6.5,9.5c-3.7,5.7-8,6-13.6,2.4c-9.3-6-19-11.4-29.7-17.9c-11.1,17.5-21.7,34.2-33.3,52.4
					c13.2,8.6,25.2,17.4,38.1,24.8c9.3,5.3,10.2,10.7,4.5,19.3c-8.5,12.8-11,14.2-21.4,7.7c-18.6-11.6-36.9-23.6-55.6-35
					c-8.2-5-10-9.7-4.5-18.4c33.7-53.2,67-106.7,100.1-160.3c5.6-9,10.5-10,19.3-4.1c18.2,12.1,37,23.5,55.8,34.7
					c8.8,5.2,10.6,10.4,4.1,19.2c-11,15.1-10.6,15.3-26.8,5.4C1136.4,172.7,1125.5,166.4,1113,159z"/>
				<path class="st2" d="M1424.4,746.4c-20.7-1.7-40.4-3.3-61.8-5c-0.9,12.5-2.2,24.5-2.5,36.6c-0.3,10.1-5.3,12.1-14.2,10.9
					c-8.7-1.2-18.4,0.6-16.7-13.8c1.4-11.7,1.1-23.5,1.5-36.1c-21.2-2-41.3-3.8-63-5.8c-0.8,14.6-1.5,28.3-2.2,41.9
					c-0.6,14-1.9,15.2-15.5,14.5c-15.9-0.8-17.3-2.1-16.4-16.3c1.3-19.9,2.8-39.8,4.4-59.7c1.1-14,2.8-15.5,17.3-14.4
					c45.9,3.6,91.8,7.2,137.7,11c17.6,1.5,35.1,3.7,52.7,4.9c9.9,0.6,13.5,4.7,12.4,14.6c-2.2,21-3.6,42.1-5.5,63.1
					c-1.2,13.5-3.2,14.6-19.2,13.7c-10.4-0.6-12.5-6-11.7-15.4C1423.2,776.6,1423.6,762.1,1424.4,746.4z"/>
				<path class="st2" d="M693.9,128.8c3,31.3,8.3,60,11.4,91.3c1.4,13.9,0,15.7-13.3,16.9c-20,1.8-20.1,1.8-22.2-18.6
					c-6.3-61.5-12.3-123-18.9-184.5c-1.1-10.7,1.3-15.6,12.7-16.4c17.7-1.3,19.3-1,20.7,12.5c3.3,32.1,6.3,64.2,9.4,96.3
					C693.7,127.2,693.7,127.4,693.9,128.8z"/>
			</g>
			<path class="st2" d="M1233.2,916.6c23.7,12.6,38.6,2.2,50.7-18.5c-1.1,24.3,8.5,38.5,34.1,41.4c-22,8.5-32.4,22.1-25.9,46.4
				c-15.7-18.6-32.4-26.3-53.2-10.6c-0.4-3-0.8-3.7-0.6-4.3c3.8-8.9,11.4-18.2,10.5-26.5c-1-8.6-10.3-16.2-15.9-24.3
				C1233,919,1233.1,917.8,1233.2,916.6z"/>
			<path class="st2" d="M157.2,937c24.8-1,33-15.6,33.1-38.6c11.6,19.8,26.1,30.7,49.8,19c0.1,1.2,0.2,2.3,0.3,3.5
				c-4.1,5.6-7.7,11.6-12.4,16.6c-5.3,5.8-5.3,10.9-1.3,17.2c3.6,5.7,6.4,12,10.6,19.8c-5.4-1.5-9.3-1.7-12.4-3.5
				c-14.4-8.2-25.8-4.7-35.5,7.8c-1.8,2.3-4.5,3.7-7.6,6.2c0-10.8,3.1-22.1-0.9-29.6c-3.9-7.3-15.2-10.6-23.3-15.6
				C157.5,938.9,157.4,938,157.2,937z"/>
		</g>
	</g>
	<path class="st1" d="M1042.5,445.4c-1.1-1.1-2.3-2.3-3.4-3.4c0.7-0.6,1.3-1.3,2-1.9c1,1.3,2,2.5,3,3.8
		C1043.6,444.4,1043,444.9,1042.5,445.4z"/>
	<path class="st0" d="M476,991.2c0.5,0.6,1.1,1.3,1.6,1.9c-1-0.2-1.9-0.4-2.9-0.6C475.1,992.1,475.6,991.6,476,991.2z"/>
	<path class="st1" d="M1044.5,448c-0.7-0.9-1.4-1.7-2-2.6c0.5-0.5,1-1,1.6-1.5c0.8,0.8,1.5,1.6,2.3,2.4
		C1045.7,446.9,1045.1,447.4,1044.5,448z"/>
	<path class="st1" d="M579.2,358.8c-9.9,14.3-19.8,28.6-28.9,41.7c-4.8-33.9,13.5-66.9,49.1-77.7c31.8-9.6,64.8-17.5,97.8-20.4
		c68.8-6.1,136.5,2.4,202.2,25.1c31.7,10.9,56.2,29.8,69.3,61.4c2.3,5.5,2.8,11.8,4.1,17.8c-0.5,0.5-1,0.9-1.4,1.4
		c-8.7-7.5-17.5-14.9-26.2-22.4c-1.2-0.4-2.3-0.7-3.5-1.1c-0.2-0.3-0.4-0.5-0.6-0.8c0.2,0.2,0.5,0.4,0.7,0.6c0.7,0.9,1.3,1.7,2,2.6
		c6.6,10.3,13.7,20.4,19.6,31.1c8.8,15.9,13.8,33,12.6,54.4c-10.2-20.3-16.7-39.9-35.5-54.1c5.2,17.1,10.9,31.9,13.9,47.2
		c3.1,15.7,2.2,31.7-5.2,50c-3.3-19.5-1.8-36.8-13.7-52.7c0,14,1,25.8-0.2,37.5c-3.2,32.9-22.3,54.8-52.2,65.7
		c-22.5,8.2-46.3,14.9-70,17.7c-50.9,5.9-101.1,0.6-150.1-15.8c-49-16.4-73.9-50.2-79.2-101.1c-2.7-26.7-2.1-52.7,4.1-78.8
		c-0.9-0.4-1.8-0.7-2.7-1.1c-6,12-12,24.1-17.9,35.8c-4.4-13.8-1.8-27.7,12.1-63.6c0.5-0.8,1.1-1.5,1.6-2.3c0-0.1-0.5-0.4-0.7-0.7
		C580.2,357.1,579.7,358,579.2,358.8z M604,367.5c95.1-39.7,192.7-32.7,291.5-16.1c-1.1-1.2-1.6-1.9-2.2-2.3
		c-1.7-0.9-3.4-1.8-5.2-2.4c-76.6-28.2-154.6-33.4-233.9-13C633.7,339,616.4,349.6,604,367.5z"/>
	<path class="st1" d="M635,606.1c18.5,5.9,36.8,13,55.7,17.5c27.5,6.7,55.5,11.6,80.3,16.6c-23.5,3.6-50.5,7.8-77.5,12
		c0.1,1.7,0.2,3.4,0.3,5c6.1,0.4,12.3,1.1,18.4,1.3c42.6,0.9,85.2,1.2,127.8,2.5c32.6,1.1,61,13.6,86.2,34.1c2.4,1.9,6,2.3,9,3.3
		l-0.2-0.1c-7.6,30.1-15.2,60.2-22.6,90.3c-2.1,8.5-8.2,5.8-13.7,5.8c-17.2,0.1-34.3,0.5-51.5,0.9c-2.2,0.1-4.3,1.4-8.4,2.9
		c7.1,3.1,12.7,5.5,18.2,7.9c0,0.8,0,1.6,0,2.4c-11.8,1-23.6,2-38.2,3.2c0-27.3,0-53.4,0-79.5c-1.9,0-3.9-0.1-5.8-0.1
		c0,26,0,51.9,0,78.5c-7.9,0-12.7,0-19,0c0-7.1,0-13.9,0-20.7c0-22.3,0.5-44.6,0-66.8c-0.5-26-19.9-47-43.6-48.2
		c-29.2-1.5-48.1,13.4-51,42.7c-2.1,20.9-1.1,42.2-1.4,63.3c-0.1,8.8,0,17.6,0,27.5c-5.4,0-10.2,0-17.6,0c0-26,0-52.5,0-78.9
		c-1.7,0-3.4,0-5.1,0c0,26.2,0,52.4,0,80.6c-21.1-1-39.7-1.8-57.1-2.6c39.8-65.1,52.2-131.2,17.1-201.6L635,606.1z"/>
	<path class="st1" d="M554.7,684.9c9.1-10.3,18.1-20.6,27.7-31.4c2.2,22.3-13.2,40.8-15.7,62c0.9,0.5,1.9,0.9,2.8,1.4
		c8.3-13,16.5-26,24.8-39.1c0.8,0.2,1.6,0.3,2.4,0.5c-2.6,14.6-5.2,29.3-7.8,43.9c20-27.1,20-57.8,17.5-89.4
		c8.7,11.2,12.4,24.3,13.3,37.9c3.1,42.9-2.5,84.3-24,122.5c-6.6,11.7-7.7,11.4-17.6,2c-76.8-72.7-110.1-163-106.4-267.5
		c0.6-17.7,4.8-36,11.1-52.5c3.9-10.1,13.7-19.5,23.2-25.5c14.3-9.1,32.2-4,41.3,10.2c20.4,31.9,31.5,67.3,28.9,104.9
		c-1.8,25.8-8,52.1-40.3,60.2c0.8,1,1.5,2.1,2.3,3.1c7.9-2.8,15.9-5.6,23.5-8.3c-1,12.5-10.5,20.5-34.5,28.5
		c11.4,4.1,11.7,4,39.9-10.5c-8.3,19.1-24.4,23.5-37.4,32.9c10.9-4.5,21.9-9.1,34.3-14.2c-3.8,9.2-7.5,18.1-11.2,27
		c-0.3,1.2-0.6,2.3-0.9,3.5c-0.2,0.2-0.4,0.3-0.6,0.5c0.1-0.2,0.3-0.4,0.4-0.6C552.9,686.1,553.8,685.5,554.7,684.9z M503.9,466.8
		c12.3,30.4,24.3,60.3,37.4,92.5c6.2-31.1,2.5-58-12.7-82.9C523.4,467.8,516.5,461.6,503.9,466.8z"/>
	<path class="st2" d="M899.8,1042.3c-1.7,10.3-7,15.7-16.9,16.1c-21.9,1-43.8,3-65.6,2.5c-30.1-0.7-50.6-22.7-50.6-52.9
		c0-87.6,0.4-175.2,0.5-262.9c0-8.8,0.2-17.7-0.9-26.5c-1.4-11-10.4-18.1-20.7-17.8c-9.7,0.3-17.3,7.5-18.2,18.8
		c-1,12.6-1.2,25.3-1.1,38c0.2,81.9,0.5,163.7,0.9,245.6c0.1,15.3-4.7,28.7-14.1,40.5c-9.6,12.2-21.9,18.9-37.9,17.8
		c-19.2-1.4-38.3-2.6-57.5-3.9c-9.9-0.7-16-6.1-19.5-16.7c12.6,0.7,24.2,1.4,35.9,2.1c9.2,0.6,18.4,1.4,27.6,1.8
		c35.4,1.6,47.1-9.4,47.1-45.4c0-86.5-0.3-172.9-0.4-259.4c0-7.7-0.1-15.4,0.7-23c2.2-19.8,15.3-32,35-33.2
		c18.8-1.1,34.6,10.4,38.6,29.2c1.7,7.8,2,16,2,24c0.1,88.8-0.1,177.5,0.1,266.3c0,7.5,0.8,15.6,3.6,22.4
		c4.9,12.3,14.3,19.6,28.6,19.1c23.8-0.9,47.6-1.7,71.4-2.5C892,1042.2,895.7,1042.3,899.8,1042.3z"/>
	<path class="st1" d="M821.3,829.9c25.5,0,51.5-0.3,77.5,0.2c8.8,0.1,8.7,6.9,7.5,14.4c-15.5,2.1-31.2,4.2-46.9,6.4
		c0,1.2,0,2.4,0.1,3.6c15.5,0,31,0,46,0c3.7,10.8-2.8,11.2-8.5,11.9c-11.2,1.4-22.5,2.6-33.8,3.8c0,1,0.1,2,0.1,3c14,0,28,0,42.7,0
		c0.5,4.3,1.1,7.2,1.1,10.1c0.2,33.4-0.1,66.9,0.5,100.3c0.1,8.5-2.9,11.4-10.9,12.2c-17.1,1.5-34.2,3.7-51.3,7.8
		c19.9,0,39.9,0,59.8,0c3.9,15,2.6,16.9-12,17.7c-23.3,1.2-46.6,2.4-71.9,3.7C821.3,959.5,821.3,895.9,821.3,829.9z"/>
	<path class="st1" d="M589,871.7c13.7,1.2,26.2,2.3,38.6,3.4c0.2-0.7,0.4-1.5,0.5-2.2c-7.3-1.8-14.6-3.5-22-5.4
		c-3.7-0.9-7.8-1.3-11-3.1c-2.5-1.3-3.9-4.5-5.8-6.9c2.4-1.2,4.8-3.4,7.3-3.5c15.7-0.5,31.5-0.6,47.3-0.7c3,0,6.1,0,9.3-2.3
		c-16.7-1.7-33.4-3.4-50.1-5.1c-2.3-0.2-5.1,0.4-6.8-0.7c-2.7-1.8-6.5-4.8-6.3-7.1c0.2-2.5,4.2-6.8,6.6-6.8
		c25.3-0.5,50.6-0.3,76.1-0.3c0,65.2,0,128.3,0,193.8c-26.6-2.1-51.3-3.7-75.9-6.6c-3.4-0.4-6-7.4-10.4-13.3c25.5,0,47.1,0,68.7,0
		c0-0.5,0.1-0.9,0.1-1.4c-16.4-1.8-32.7-3.8-49.1-5.5c-16.9-1.8-17-1.7-17-18.2c-0.1-31.5-0.1-63-0.1-94.5
		C589,881,589,876.9,589,871.7z"/>
	<path class="st1" d="M935.2,698.5c-4.6-31.7-30.9-44.8-56.7-62c19.9-7.4,36.8-13.7,53.7-20c-0.1-0.6-0.2-1.2-0.3-1.7
		c-17.1,0-34.2,0-54.2,0c24.6-8.1,46.5-15.3,68.3-22.5c-0.3-1-0.5-2-0.8-3c-9.3,0-18.6,0-27.9,0c-0.3-0.5-0.6-1.1-0.9-1.6
		c15.1-6.9,30.2-13.8,45.3-20.6c-0.2-0.9-0.3-1.8-0.5-2.7c-7.1,0.3-14.2,0.6-21.1,1c9.8-11.9,19.7-23.9,31.8-38.7
		c-1,8.6-1.2,14.7-2.5,20.5c-10.9,49.8-22,99.6-33,149.4c-0.2,0.7-0.9,1.2-1.3,1.9C935,698.4,935.2,698.5,935.2,698.5z"/>
	<path class="st1" d="M681.7,832.7c6.4,0,11.3,0,16.6,0c0.3,3.1,0.9,5.7,0.9,8.3c-0.1,54.5-0.1,108.9-0.5,163.4
		c-0.1,14.9-3.5,18.3-17.1,18.8C681.7,960.1,681.7,896.9,681.7,832.7z"/>
	<path class="st1" d="M811.2,831.3c0,64.2,0,127.8,0,191.5c-12.5,0.8-16.1-2.2-16.3-15.3c-0.5-33.4-0.5-66.9-0.9-100.3
		c-0.2-20.8-0.9-41.5-1.4-62.2C792.3,829.5,792.4,829.5,811.2,831.3z"/>
	<path class="st1" d="M606.6,796.5c22.4-40.7,31.3-84.4,26-130.5c-1.6-13.5-7.4-26.5-11.4-39.6c-1.3-4.4-3.7-8.7-4-13.1
		c-0.2-3.1,2.3-6.3,3.6-9.5c3.2,1.5,8.2,2.2,9.2,4.6c6.8,16.5,16.3,32.9,18.4,50.2c5.1,41.6-4.4,81.6-23.3,119
		c-3.9,7.7-10.2,14.2-15.4,21.2C608.6,798.1,607.6,797.3,606.6,796.5z"/>
	<path class="st1" d="M635.1,606c-0.3-0.1-0.7-0.1-1-0.3c-0.1-0.1-0.1-0.5-0.1-0.7c0.3,0.4,0.6,0.8,0.9,1.2
		C635,606.1,635.1,606,635.1,606z"/>
	<path class="st1" d="M972.9,406.7c0,0.9,0.1,1.8,0.1,2.7c-0.5-0.4-1-0.9-1.5-1.3C971.9,407.6,972.4,407.2,972.9,406.7z"/>
	<path class="st0" d="M579.2,358.8c0.5-0.9,0.9-1.7,1.4-2.6c0.2,0.2,0.7,0.6,0.7,0.7c-0.5,0.8-1,1.6-1.6,2.3
		C579.8,359.3,579.2,358.8,579.2,358.8z"/>
	<path class="st0" d="M942,384.5c-0.2-0.2-0.5-0.4-0.7-0.6c0.2,0.3,0.4,0.5,0.6,0.8C941.8,384.7,942,384.5,942,384.5z"/>
	<path class="st0" d="M944,387.1c-0.7-0.9-1.3-1.7-2-2.6c0,0-0.2,0.2-0.2,0.2c1.1,0.4,2.3,0.7,3.5,1.1
		C944.9,386.2,944.4,386.7,944,387.1z"/>
	<path class="st0" d="M551.9,686.7c-0.1,0.2-0.3,0.4-0.4,0.6c0.2-0.2,0.4-0.3,0.6-0.5C552.1,686.9,551.9,686.7,551.9,686.7z"/>
	<path class="st0" d="M552.1,686.9c0.3-1.2,0.6-2.3,0.9-3.5c0.6,0.5,1.2,1,1.7,1.5c-0.9,0.6-1.9,1.2-2.8,1.8
		C551.9,686.7,552.1,686.9,552.1,686.9z"/>
</g>
</svg>
